<mxfile host="drawio-plugin" modified="2024-02-25T09:54:24.166Z" agent="5.0 (Windows NT 10.0; Win64; x64) AppleWebKit/537.36 (KHTML, like Gecko) Chrome/111.0.0.0 Safari/537.36" etag="HC5LB2MlcRyy5TxSFvHa" version="20.5.3" type="embed" pages="3"><diagram id="O6HLzuUdjo-aMGt9QSDf" name="classic-registration-process"><mxGraphModel dx="610" dy="618" grid="0" gridSize="10" guides="1" tooltips="1" connect="0" arrows="0" fold="1" page="0" pageScale="1" pageWidth="1169" pageHeight="827" math="0" shadow="0"><root><mxCell id="0"/><mxCell id="1" parent="0"/><mxCell id="Jz4uIw9JEW2cGko05HNJ-3" style="edgeStyle=orthogonalEdgeStyle;rounded=0;orthogonalLoop=1;jettySize=auto;html=1;entryX=0;entryY=0.5;entryDx=0;entryDy=0;" parent="1" source="Jz4uIw9JEW2cGko05HNJ-1" target="Jz4uIw9JEW2cGko05HNJ-2" edge="1"><mxGeometry relative="1" as="geometry"/></mxCell><mxCell id="Jz4uIw9JEW2cGko05HNJ-1" value="" style="shape=image;verticalLabelPosition=bottom;labelBackgroundColor=default;verticalAlign=top;aspect=fixed;imageAspect=0;image=https://upload.wikimedia.org/wikipedia/commons/thumb/5/50/User_icon-cp.svg/1656px-User_icon-cp.svg.png;" parent="1" vertex="1"><mxGeometry x="40" y="389" width="40.25" height="50" as="geometry"/></mxCell><mxCell id="Jz4uIw9JEW2cGko05HNJ-8" style="edgeStyle=orthogonalEdgeStyle;rounded=0;orthogonalLoop=1;jettySize=auto;html=1;entryX=0;entryY=0.5;entryDx=0;entryDy=0;" parent="1" source="Jz4uIw9JEW2cGko05HNJ-2" target="Jz4uIw9JEW2cGko05HNJ-4" edge="1"><mxGeometry relative="1" as="geometry"/></mxCell><mxCell id="Jz4uIw9JEW2cGko05HNJ-2" value="Register" style="rounded=1;whiteSpace=wrap;html=1;fillColor=#fff2cc;strokeColor=#d6b656;fontStyle=1;fontSize=14;fontColor=#FF3333;" parent="1" vertex="1"><mxGeometry x="150" y="393.5" width="150" height="41" as="geometry"/></mxCell><mxCell id="Jz4uIw9JEW2cGko05HNJ-9" style="edgeStyle=orthogonalEdgeStyle;rounded=0;orthogonalLoop=1;jettySize=auto;html=1;" parent="1" source="Jz4uIw9JEW2cGko05HNJ-4" target="Jz4uIw9JEW2cGko05HNJ-5" edge="1"><mxGeometry relative="1" as="geometry"/></mxCell><mxCell id="Jz4uIw9JEW2cGko05HNJ-4" value="Controller" style="rounded=1;whiteSpace=wrap;html=1;fillColor=#e1d5e7;strokeColor=#9673a6;fontStyle=1;fontSize=14;fontColor=#FF6666;" parent="1" vertex="1"><mxGeometry x="370" y="393.5" width="150" height="41" as="geometry"/></mxCell><mxCell id="Jz4uIw9JEW2cGko05HNJ-10" style="edgeStyle=orthogonalEdgeStyle;rounded=0;orthogonalLoop=1;jettySize=auto;html=1;" parent="1" source="Jz4uIw9JEW2cGko05HNJ-5" target="Jz4uIw9JEW2cGko05HNJ-6" edge="1"><mxGeometry relative="1" as="geometry"/></mxCell><mxCell id="Jz4uIw9JEW2cGko05HNJ-5" value="Service" style="rounded=1;whiteSpace=wrap;html=1;fillColor=#dae8fc;strokeColor=#6c8ebf;fontStyle=1;fontSize=14;fontColor=#FF6666;" parent="1" vertex="1"><mxGeometry x="590" y="393.5" width="150" height="41" as="geometry"/></mxCell><mxCell id="Jz4uIw9JEW2cGko05HNJ-11" style="edgeStyle=orthogonalEdgeStyle;rounded=0;orthogonalLoop=1;jettySize=auto;html=1;entryX=0.5;entryY=1;entryDx=0;entryDy=0;" parent="1" source="Jz4uIw9JEW2cGko05HNJ-6" target="Jz4uIw9JEW2cGko05HNJ-7" edge="1"><mxGeometry relative="1" as="geometry"/></mxCell><mxCell id="Jz4uIw9JEW2cGko05HNJ-6" value="Repository" style="rounded=1;whiteSpace=wrap;html=1;fillColor=#d5e8d4;strokeColor=#82b366;fontStyle=1;fontSize=14;fontColor=#FF6666;" parent="1" vertex="1"><mxGeometry x="810" y="393.5" width="150" height="41" as="geometry"/></mxCell><mxCell id="Jz4uIw9JEW2cGko05HNJ-7" value="" style="image;html=1;image=img/lib/clip_art/computers/Database_128x128.png" parent="1" vertex="1"><mxGeometry x="1010" y="240" width="80" height="80" as="geometry"/></mxCell></root></mxGraphModel></diagram><diagram id="zv4eXuz0TzeAEi7HoHo_" name="2fa-register-flow"><mxGraphModel dx="610" dy="618" grid="0" gridSize="10" guides="1" tooltips="1" connect="0" arrows="0" fold="1" page="0" pageScale="1" pageWidth="1100" pageHeight="850" math="0" shadow="0"><root><mxCell id="0"/><mxCell id="1" parent="0"/><mxCell id="-VnQgaIfTIf3LVvWvXPP-5" style="edgeStyle=orthogonalEdgeStyle;rounded=0;orthogonalLoop=1;jettySize=auto;html=1;" parent="1" source="-VnQgaIfTIf3LVvWvXPP-3" target="-VnQgaIfTIf3LVvWvXPP-4" edge="1"><mxGeometry relative="1" as="geometry"/></mxCell><mxCell id="-VnQgaIfTIf3LVvWvXPP-6" value="Register" style="edgeLabel;html=1;align=center;verticalAlign=middle;resizable=0;points=[];" parent="-VnQgaIfTIf3LVvWvXPP-5" vertex="1" connectable="0"><mxGeometry x="-0.2404" y="1" relative="1" as="geometry"><mxPoint as="offset"/></mxGeometry></mxCell><mxCell id="-VnQgaIfTIf3LVvWvXPP-3" value="" style="shape=image;verticalLabelPosition=bottom;labelBackgroundColor=default;verticalAlign=top;aspect=fixed;imageAspect=0;image=https://upload.wikimedia.org/wikipedia/commons/thumb/5/50/User_icon-cp.svg/1656px-User_icon-cp.svg.png;" parent="1" vertex="1"><mxGeometry x="530" y="15" width="40.25" height="50" as="geometry"/></mxCell><mxCell id="-VnQgaIfTIf3LVvWvXPP-22" style="edgeStyle=orthogonalEdgeStyle;rounded=0;orthogonalLoop=1;jettySize=auto;html=1;" parent="1" source="-VnQgaIfTIf3LVvWvXPP-8" target="-VnQgaIfTIf3LVvWvXPP-21" edge="1"><mxGeometry relative="1" as="geometry"/></mxCell><mxCell id="-VnQgaIfTIf3LVvWvXPP-8" value="" style="shape=image;verticalLabelPosition=bottom;labelBackgroundColor=default;verticalAlign=top;aspect=fixed;imageAspect=0;image=data:image/png,iVBORw0KGgoAAAANSUhEUgAAAloAAAKYCAYAAACre1ZVAAABWWlDQ1BJQ0MgUHJvZmlsZQAAKJF1kD1LQmEUx3+Wkb1RUJBEg1sEFuZVaFWHCgzElF6I6HozC3x5uN6IIlr6Ak2tLdHaEtgUTU01BQXR3gcIXEpu52alFR04nN/z53/OczjQ4tGVyruBQtEyk1NR38Likq/9GQ8ueggS1o2yiiQScbHwVX9G9V68Endjzqz93uszr5Y6WAlMdJSWVemv/0d0rmXLhtQ3yYChTAtcfuHEtqUc3hMeMGUp4UOHc3U+cThT54sPTyoZE74R7jM29DXhJ2F/pknPNXEhv2V87uBs350tpuecOZLDJJgmjg+NEGGiTBD7xx/68McoodjBZJMcG1jSGxFFkScrPEMRg3H8wkECkppz59/3a2i7gzA5JF+tNrT0LJx7oX+8oY2Y8r6Fy2Olm/r3VV1Vd3ldC9a5qwJtR7b9Mg/to1B7sO3Xim3XTqH1Ea6q705XX3K3V53FAAAAVmVYSWZNTQAqAAAACAABh2kABAAAAAEAAAAaAAAAAAADkoYABwAAABIAAABEoAIABAAAAAEAAAJaoAMABAAAAAEAAAKYAAAAAEFTQ0lJAAAAU2NyZWVuc2hvdH4f3XoAAAHWaVRYdFhNTDpjb20uYWRvYmUueG1wAAAAAAA8eDp4bXBtZXRhIHhtbG5zOng9ImFkb2JlOm5zOm1ldGEvIiB4OnhtcHRrPSJYTVAgQ29yZSA2LjAuMCI+CiAgIDxyZGY6UkRGIHhtbG5zOnJkZj0iaHR0cDovL3d3dy53My5vcmcvMTk5OS8wMi8yMi1yZGYtc3ludGF4LW5zIyI+CiAgICAgIDxyZGY6RGVzY3JpcHRpb24gcmRmOmFib3V0PSIiCiAgICAgICAgICAgIHhtbG5zOmV4aWY9Imh0dHA6Ly9ucy5hZG9iZS5jb20vZXhpZi8xLjAvIj4KICAgICAgICAgPGV4aWY6UGl4ZWxZRGltZW5zaW9uPjY2NDwvZXhpZjpQaXhlbFlEaW1lbnNpb24+CiAgICAgICAgIDxleGlmOlBpeGVsWERpbWVuc2lvbj42MDI8L2V4aWY6UGl4ZWxYRGltZW5zaW9uPgogICAgICAgICA8ZXhpZjpVc2VyQ29tbWVudD5TY3JlZW5zaG90PC9leGlmOlVzZXJDb21tZW50PgogICAgICA8L3JkZjpEZXNjcmlwdGlvbj4KICAgPC9yZGY6UkRGPgo8L3g6eG1wbWV0YT4KV5ZYAAAAQABJREFUeAHsnQu4FVd5v9chIRgIXvAWTBQFq0ZAvBxFgkFt0da2VElvpFKpFk2C0YpiS/17j7bY8BTrJZBKL1g0tNqgpdWqqBUaInq8IGC0Coq5YKLiJUAkGPjv3y5zOmftb62zZ87s2TN7v9/znLP3rFmXb73fmplvr1mXgSNHjpx2KTl9esShSx+nv6eSjPjaTpwRCTiAAAQgAAEIQAACFSEwMDAwqibpOOnvSugfn53OLe0kJd/1mXxX3PT3dFq+QwACEIAABCAAgboTGM3PkSOVxEk7Vcl3nUu+i8Wwo5UkSn/qu/7uc5/7uAkTJrjx48e7cePG1Z0h+kMAAhCAAAQgAIFcBE6dOuVOnjzpTpw44X7+8583naq0Y6Xv8p2SsAG9OlSAJP2p73KszjvvPHf22cP+WC6lSAQBCEAAAhCAAAR6jcAvfvELd/To0abjJcdq2Lk68/pRx+PSzpUA6Fjemnqw7n//++Nk9VqroD4QgAAEIAABCBRCQB1R8pXkM8l3snyqEe8BEydLPVn3ve99C1GCTCAAAQhAAAIQgEAvE5DPJN8p7Wwl9W06WnKw0n+TJ09OzvMJAQhAAAIQgAAEIDAKAflOaV9K3yXDPVrJSQ18Z0zWKDQ5DQEIQAACEIAABFIE5DvJh0r8qeRUc4xWEqhPvWdEIAABCEAAAhCAAASyEZAPlfap9H341aGy0rtFvWNEIAABCEAAAhCAAASyEUjGaSmVnCzJiFeHCjjrrLP0gUAAAhCAAAQgAAEIZCCQ+FCJk6WkI5Z3SJ/IkC9RIQABCEAAAhCAAAQaBORLJf6UPke8OkxOQAoCEIAABCAAAQhAIDuBxJdKPodfHWbPihQQgAAEIAABCEAAAjECw45W4nnFInMOAhCAAAQgAAEIQCBOIO1TDTta8SSchQAEIAABCEAAAhDISmCEo5X2wLJmRHwIQAACEIAABCDQ7wR8X2p41mG/g6H+EIAABCAAAQhAoEgCcrpG9GgVmTl5QQACEIAABCAAgX4ngKPV7y2A+kMAAhCAAAQg0DECOFodQ0vGEIAABCAAAQj0OwEcrX5vAdQfAhCAAAQgAIGOEcDR6hhaMoYABCAAAQhAoN8J4Gj1ewug/hCAAAQgAAEIdIwAjlbH0JIxBCAAAQhAAAL9TgBHq99bAPWHAAQgAAEIQKBjBHC0OoaWjCEAAQhAAAIQ6HcCOFr93gKoPwQgAAEIQAACHSOAo9UxtGQMAQhAAAIQgEC/E8DR6vcWQP0hAAEIQAACEOgYARytjqElYwhAAAIQgAAE+p0Ajla/twDqDwEIQAACEIBAxwjgaHUMLRlDAAIQgAAEINDvBHC0+r0FUH8IQAACEIAABDpGAEerY2jJGAIQgAAEIACBfieAo9XvLYD6QwACEIAABCDQMQI4Wh1DS8YQgAAEIAABCPQ7ARytfm8B1B8CEIAABCAAgY4RwNHqGFoyhgAEIAABCECg3wngaPV7C6D+EIAABCAAAQh0jACOVsfQkjEEIAABCEAAAv1OAEer31sA9YcABCAAAQhAoGMEcLQ6hpaMIQABCEAAAhDodwI4Wv3eAqg/BCAAAQhAAAIdI4Cj1TG0ZAwBCEAAAhCAQL8TwNHq9xZA/SEAAQhAAAIQ6BgBHK2OoSVjCEAAAhCAAAT6nQCOVr+3AOoPAQhAAAIQgEDHCOBodQwtGUMAAhCAAAQg0O8EcLT6vQVQfwhAAAIQgAAEOkbg7I7lTMajEjh69Kj77ne/67797W+7O++80933vvd106dPdzNmzHAPfOADR03fjQgHDx50v/jFL4aLlq5nnXXW8HH6yy233OLuvvvu4aDzzz+/WcfhgA59EdN77rknV+4PetCD3JQpU3Kl7WYin3U7ulxwwQVu0qRJ7UQljkdA1+7tt98+IjR2LYyI2OGDw4cPu7vuumu4lEc/+tFu3Lje+E2t+4naeiLnnXeee9jDHpYcVvbzBz/4gfvxj388rN8jH/lId8455wwf86W3CQw0HvCnG+Luvffe5t+FF17Y2zWuQO3+53/+x73uda9z+gzJr/3ar7lXvvKVrlP22L9/v/vUpz7lXvWqV4VUaAk/deqUe+ITnzgi/NOf/rR78IMfPCIsObj88svdTTfdlBy6tWvXuuc+97nDx5368ju/8ztRtrFyX/Oa17hly5bFolTy3Lx589yxY8cy6bZhwwZ38cUXZ0rTici6/6gtynm59NJLO1FE4Xm+853vdH//938/It93v/vd7pnPfOaIsE4dnDhxwv3TP/2Te9rTnuae8IQnjChm+fLl7gtf+MJw2H/8x3+4hz/84cPHdfgix+S6665zr371q93EiROHVf7KV74y4vpctGiRe/vb3z58vptfYu34iiuucLt27RpW79/+7d+cnC2kNwnceuutzQ4IdUIMDAy43viZUyNb/fu//7trxxH4z//8T/frv/7rTj1IRcoPf/hD9+Y3v9lddtll7nOf+1yRWZNXFwlkdbK6qOqIor/xjW+4F7/4xW7VqlXNnt0RJyt6cPLkSffP//zPLdp96EMfagnrRIB+3Pzmb/6me9e73uXkkPiiB35a/OP0uap9lwP5j//4j+5XfuVX3L/8y7+4n//851VT0dRntHZcJxuYFSRwTAR4dTgmfNkSf+9732v2ZGVJpR6W66+/3t3nPvfJksyMqx6DX/7lXzbPEQiBsgl88YtfdH/8x39cdrFjLm/nzp1m7+GOHTuarxM7+Srrb//2b9173vOeMdehqhmsWLHCqV3USerajuvEuO664miVaMGtW7eOKE2vBV/ykpe4wcFB94hHPMJ9//vfd+vXr3cf/ehHh+MdOHDAffnLXy7kFU96bNVwAT345S/+4i/ckSNHRtRM47YUnojGJq1bty45HP6s2yuWYcW9L29961udxsTF5HGPe1zsdMfPyfGvo9xwww1BtfVKSK+JOiU//elPO5V1JfL1r1tfKb1u07CLRDQurtvSTjv+/d//fffsZz97WNWHPvShw9/50vsEcLRKtLEGvaflZS97mXvBC14wHKRfwnqtp7FbN99883D43r17o46WXh/IkdBYKTkKocHpwxlW/IsGvKr+GpguZzTrQN7HPOYxLTWcPHnyiDANon36058+IqysA73m04BlPVQe8pCHdMRmT37yk5vOe5466WGuNiX9xo8f35zAoLZ57rnntpXdz372s2Z71LhPPVBUx7PPLuZWo9d2YqfJI7KhHrxZe3s11lDXmK4TDRTXGIp2RT+G1HMVki1btriXvvSllbwGVW/dJ2Rf1du/JkJ1KuL+oh95Yi4dVHZWmyW6PeABD3BLlixJDkf91KvIQ4cOuZ/85CfNdqgfH6OVLV3VvjTMQvcicbr//e8/pkH3Wd4k6DWj2tkdd9zRrN+jHvUod7/73W/UuloRdK8Rd0200rVS92eDVcc6hBVz96tDTSugo39j01gLDQ5PD/bUhaDXKRo4qXDdFHRj8kU3rM2bNzd7wPzxOQsWLHD/7//9Pzd16tThZBpUun379uFjfVFvWTKQtuyB0ZqBkx44rJ49jUlTr5N68BJRz5MG1b/oRS/K7HAlebT7+axnPWu4J0wzDz/zmc+MKPMVr3jFiHFt/uBnxU9PLvjDP/xD99rXvna4eD3kxPljH/vYcFjy5alPfar7sz/7M2c5iUmcTn9+7Wtfc9dee+2IQbvpMjXw+PWvf73pcOnh8K//+q/N11p+r4RsKPsuXbp0OK01eF/tWX+Sz3/+8yOuC7Vxsfvwhz/c8tpu2rRp7k/+5E/cwoUL0+o2v0tf9TIlorFVV1555Qg768eNbN+OaIxlWhYvXuw++clPDuukuv/3f//3iLadjq+JFhrQnYicNj3EExHHOXPmJIfNGbD/9V//5b761a82r4HhE2e+rFy5svlN13HCzo8jh1fjuTQEIX2vuOiii9xf/uVfNmc6+2my3l+UXjN91TufiMaivvzlL3fqXf3sZz+bBDc/de2LezK7WhMLNMHAl8QuugcoL59DaDD8l770pWbd5GT48nu/93vN9ui/4pVT9g//8A9u06ZNIzgl6fWjT/fV+fPnJ0Gu3XYsO+l+n4g1GF62V/t8//vf7zSYOi26H2lcra4j/fhJiyY+aAJEIu94xzuaP950L923b18S3PxUenH08xgRiYPCCYwrPEcyDBKYPXv2iHMajK5Bn7owdHM+fvx487ycL92E/vRP/7Q581Bx0qJ4GsugWXzpG2cSRzdvzd5SnokkeSfH/mfZrxX98nSz0EMo7WRJR9Xvr//6r51uVLr5d1IuueSS4ez1wEzfpNWT4k8e8MeSaOxOWuTwJqLxeX/0R39kOlmKo7z0YNq4cWOSpNRPcZcjlJ4Z5Suwbdu25o+A9NIBiiMb6XWZHqi+k5Wcl1MqJ1QPsySs+SXwL90+1Kugh0PoAageC/2QkFNrXQ/pItJOlsKlb7uvcdT+/EHw6pGW3dISGxQ/mn7pfPQ94eWH+8dqnyHRZAO1K79s9RpL/+985zsjkua5v4zI4MyBZjar98l3snRa19Jv//Zvtz3YPVmuRc7IaCKHTXVOX7/pNBpk/wd/8AcjlueQM6r7rX5o+JyStHJ+1H7SznYobpImacej3X8VX0MZ5Bz5TpbOqZ2+973vbTpb+sEWE80yVf18J0tp5NCmX73G8uFccQRwtIpjOWpO+sXtr1ukC/UDH/hA03HSqyz9ctMvU2s2UVKAfnX5D0T92krnrXzbefAkeXb7UzeF2E1LN2s96Dspfvd+mrEeGr7ceOONw0F6CKcfKLLFU57ylOZ5rfujHjnLCRnO4MwX9Tyoh2SsohuqeoBCf+kHs3R/05ve1FKkxr/4a4rJTuphScvf/d3fjVjGI30u/V1LfShuFtGsM/Uk+g64lccnPvGJZs+NdS4J822g3jD17LQj+jGQvM5RfDlo6n3SDMC0JIPi02Fj/Z719Xm6vKTOapPpe0QS54Mf/GDytflZ1P1FjlzCy29HKkh6Jb27WV7fjlDWO9A16S+74UVpHqrsP//zPx8+pd6m9PWrE2Jl9TD/zd/8zXC6or7outdsy9FEzqNm6KavXz9N+tW2xV3XyWjOmp8nx2MjgKM1Nn6ZUmsMlTUAO52JHkZ/9Vd/1ezpuuaaa5prm6XP69eO1pdJi2Yi6YalHhV1iycixyX5Ba5XKH5viZwzve7Rn8b0dFt0U9DNZs+ePc2H+TOe8YwRKoldJ6d7z507d0R56R6soaGhEed0oFevySKE3/zmN0c4UuqVTMYlqTcuedgpnbjrYaBerI985CPN1w8KT0ROj8aUjEU0YFu/zkN/yS9tlfH1r3+9OY4lKU/Oh3pDNXlDr0Of//znJ6ean6p3Iuqp89vVG9/4xubrMT301POaFq39JBuqzWmduLTo1XHSHjX+SiL902tCKezqq69u/tDQw9Ff80yvx/TaKCbqIVbPgXpUXvjCF8aijjgnW6VF6eUAPfaxj215IKdfV6bT5P0+a9asJhu/d1s/psRM94qYqFdY9tCfP9Mz7Tjnvb+Eypazoh4klaGy/cHrum4kum+pHr5jIMdc4eptHU3kfPhraqlnX6+h5airVzUteoWr8a8S315qw/qhpVfV/jk5j0mvrnRrpx2ny/W/6z7jX0PqkVP7lg7qKU6LnK3RnDINRVB6cVcdfPnWt77lB3HcQQI4Wh2Ea2WtXit1Pfs3TCuuHkoat5N0mytO+nWgjrXgZDKoWw/29Lt6ndf7foke7v6vswkTJrhf+qVfav4lD7Zm5C790+tSOXz6dasbrhzO9C9wOSv+hIIiVdWYuLRddCNOZnmlF15Nl5n0tOghkpakd0xOjP8KQ46yxrKIv3YC0HR92ScROci6SZYleojv3r3baSC3HlT6xa7BsxI5Ev6ipulZVuleP8WXs6RXaRprqDGJGhgux01/Gk+jHls5eWp3/kNXNk/ao8rVazP/NZxes8vxU3vVDxctf6JxUmnx06TPqQyNS1IvlBzadgdWy/FNel+S/LSocCL+QqtiqddRRYl4iI0/rkjHCtes5ZBoXI5605WH/vx7RNLrpPR57y+hsmWvZHar2oNeAacl+QGi61z10GD3tKiNKDy0KHI6rl6Bpl+7ydZ6TabrWvdGjQuTndQTqRmAeg2YjJuVE6aeHjn2ugbkRCe9bGLst9Wk9126+ef8dpzW0fruO0K6fvTjTHVWO9frXd+BHK3Xbs2aNcPMdN/Xq8S0JD8Q02F87xyBszuXNTmHCOimqN4Z3RjUzasu6+SB7afRayRdyLopSDQeJS16IKa7inVON63kRqAbmX7pFTH4UTdpX9oZM5GksdIn5/SZHhyvY91k9DDTr8ZEdCOVY9ApkaOVdnLUm6LBr/54rKR89XQpjXp+0pL0jiW/mJNzcjb8JSRkG/2CVU9NIskvTvUY+a+mkjj61GvmZEJDOjzrd80ofPzjH998jaY2ph8D0l31T/dgKd/0uCG/PT7rWc8aUbQcrryvfJV30o6VqR5gv/qrvzoifx3otWx66RTrNW+SSI7VaLPOkrjpz49//OPpw2Yb1CyuRNSDqYdbIrru5LT4bTo5X+ZnevC2yk3/ePH18O051vtLch0k5aQn6Cgs6RlKzo/lU9dKWuRc+tvc6MecJXKqpJv+9ENC17vavyaI+K8UlT7949fKL0uY31uu9uzLb/zGbzR7YZPrQZ+aFamZ2b7ox6rvmGq7rbQk+aTD+N45AjhanWM7as6atqs/vf7QgF/1oGggo/9gUm9J4mj5A1e1grz+YvKjH/1o1DWVYulj59KvoPx46Qeyzvk3vXR89XgkvyDT4f4NIv2LNR2vqO/+60qx9x9Mmv2jV1QSPUzVa5MeeCpnIHmYi31aQj0P6Ye24mulacloEwBC5+UohcpqZuz9Uz56HaF6pXs4vGjNw7TD7LdH68Zv5dFOWNLbkcTVD4502Um477jKWVDbU4+hL+meQ/9c7Fivv9KiemtyQ0zUszaao+Xbr8hesEQ3v5dI4ekfY0k8ffr2HMv9RWX4NvCP02WP9bvvaPnOxmj568eNepctx8pPa7VDP047x3qN7js9fntWPipPr6jTP8hlK+t6s+rtc8/yA7mdehAnTgBHK86nsLPqFdBNS4PctUaLLhpNSU9EPQp6RaO/5zznOSPe++tXlS5G3bjyjFHSL5/RFq9M9Bjt079Bx2bTpF8xKd9kzJJVRugB498QYnlY+WYN01R77R+XjAvS64T09Ht1w+vXZeJo6aHuj92R/RKxnMfkXPrTr6d6gsoS9XjqFYvq6oucGzm76V7T9EPG19t3rv38shznZacyQmmTV6JZ9FDPht+rp+sx/dCz8hMzbTztv+5Lx/XbfWyQczpdlu+xHzh+PkXeX/yHu8rqZLseS1vUuL6rrrqqxenR/U6v+dUG0o5/+hrwGWY5DrXTdvII6ZD8yEvn0en7ZrosvrcSwNFqZdKREI3xSA9iV++VpsRbNyO/V0UK3Xbbbc0xVvq1k77Bq3dF4wlCogvZH0OQxI31RiVx/E85bOmHjrq9rXW+1EMnndNi/bJOzqunyuqF8HtX8vZIJOW086nXQImjpQdqejyEbKNXbGnx1/9Jj2nyf3H6v7qTfPxZQMm4ltEekkU8uDT+LO1k6eGi8UtaI0gLJWqcWdrRSpepHtn0+DXfXqqfxn/JIdV4NMVP1k5K6p58+g9Kn53anXqA/AeMZnWmRe09xC0Unk7vf0/v1OCfG+1YaZPeaCuu/wpKi71mEZ9ZlrRW3CLvL0UMV8hSP/WKp0VOri9qK3rNrzaitqhXhWpPGg+a7lnSK36tg6cfVjrvr6Hnt8F0OVl01v3f//EqHf0ebrX7ZOJAUpauJ0vS16d1nrDyCeBolcTcX0NLF7XGaa1evbpFA70+9CXpkfK7lfXwSQ9yl7OiqcLqPtaFqAs2+dWUfCZ5+7+mk/DYp25QaUdLs7c0Rsnvrn7f+9434salPJM6hPLXK9P0mkRy1nwWZTha6fWvfF3V26Vfh/5YriSeXhWlJxYkDlNyXnXUgzddD/Vi6LVdWjTIVqLeEPVodlLkCKVFA5bTA71DzqHS+A8EORb+wHANMNYPi0SShV79h5Xv+ItR+iGkHgU5hM973vOSrJqfmjSSFt8RTp/L+ste16n/2lBtIBlEnc5b3/WQTE9+0Kxf7QCRPPz83gb1bqdfj2vGbUx8Zv6rx1jads6N5f7STv6jxUk4JfGy1M/XXZMXtIRDelV1vVLXNmeJ6PWvxkemd+JQm9Osw+RHsHTwfwgl6fXp28Rvx+m41vcnPelJIyYhaAKTyk+L7oNpR1DjFWM/XNNp+d59AjhaJdlAv6TVU5JeI0nr1+g9u3qktE2Jfs1qfEB68LfU02Dn5JWHXkulN5VVz4vGEWnAq24I6n1JP3h0QX7qU59qDob3b2LqRdKDQa//FM93liw0fh0U57d+67eag5Q1pVgPQ+njz0ZTT9BoNwZNY1Zvh5wVDZJ9y1veMuLmotlCoV9xlq55w+QQasB9etxVktcTn/jE5lf19qQHzSfnxSctykcOQ3psmR68Gviuc/rVrUHU6fOyhRy5siSZWZmUl36oqIcqPchbcdKvB5MZr0laOVRaakBLCMhR1jiltJOlh1iSxm+Petip51eOvNq8HnR6TZt2dDQLVw8yzRpT/mrr6YHw0iM2k9B/KCZ6hz793RSkvxzHUM+YdE/PgtT1oGVXnnVmkoDfm6d1zvTDSHVVe7PWM0vr5juKeqWlV1tyhpO2mY6f9ftY7i9Zy7Li+1zleMpx1j3K6jlP56F7g3+taSHbN7zhDc17j+6taSdLaXW9+gPy5dDIburt0j1VS0z4kwTSPZGjtePRevZ0/0zP9tQsRN3vtfSIhpToPqM6pEUzSZH6EMDRKtFWekjICUn/MtFrl/SrF0ud9FpE6u7WYOv0qx71kKhXS2OxdINIi9ImF3p6q58kjh5kEj34/fWSkjjpT83k8Xu1VB+t2xTbbFfORTuSHrfmx9dUfv9G7Mcp6lgPHN/R0myehKGcSkvSq8vrvHoRtYZZeqNhOVX6FR0SOZihHpNQmrGEa8HO9FpBcmy01YmcAqttqhcmEfVoyalKL0Qq5yft7Cdx9amHR9JTkB77pnPquUt6E5PB/Go3/q95bYMSEk0s8XuPQ3HbCfeXitA1EmuDujbkJKZ7IfXgTBwttaH0YGvxVVuSc+1fu5Z+/o8VrZavP6XXmkljlbHcX8ZattKrHmmRoyQR9/Ss3HSc5LvucxprmL5favagHBlLZCf92LF6zXSP1Y8d/Uiw7KKwZLJJO+3YKj8J071G7SI9JEQ/mNNDFpK4+pTOWdZ/S6fle3cIjOtOsf1ZqnqMtEaRfhW3I4qnV3DpMT9Kp183yQMpyUevK/wbgm5O6fFb+jVvTY9XHumHZ5Kn9ak8VId2V9NWHrpZtvNrO8ZF6zP5vUWWfkWFWbPF0mPn9EDyHwrq5fJvutJH9pOz1Y5oAUqr7HbS5o2jduJvQ6P2ZDlZKkPh6UkQWpdJdR9NxC89XkltyGeY5KEfDRL19KoHKRQvia9PPVD9dZrS57N+V+9U2mFSerXD0SR9zSluMihe33XOunaSa1fn/LFGSpeIfy9IwpU+z1CAJH36M+/9JZ1H3u/+fS3JRxuJtyNqY+309qg9JYtH655mbUujnqTELv69KRnDKZ3aaccx3dUjpl5gOVCjieJoPJnfizZaOs53lwCOVsn8Nb5DvVF6OPkXb1oV9Ryph8hfh0Zx1K2s1w365ZYe65Ok10NTD3b1jPgXpBbCsy5oP16Sl/WpX3LqsRitDvqVph4BjYMYTXSzUk+Kr5sYaRybFpnM+tonVmbSyxeKo9cQ/gMvvWGu0j3rzOugJA/ZLCRa+Vo9G6EHtdqFXoFpAG7ZojFl6pGyHuIK0xpS/oKH6QeNbKRXMuppshwihWmsjB5s6Xam73po+GmUX3qci8awaGan1heyrhn1Iul6eNvb3ja8rEbC0LdzljaUfs2v/HSttdNbph4KX5K8xFqTYtJOu+KqXhrbpu1v/HFv6bz0+kw9477omvdn+fpx2j3Oe3/JwjbRxU8jZ1mOvy96hSbx7ekfK4721NRK62oXlqgd6VpMD5XQ9Slny29fOla7Tvf4Ks/EnvrebjtW3ER8vaWLxmZpv0X/vqM0ukbU26/7rn/P9/NKyoh9+txjcTk3dgIDjZ6MxiSJ081fQ/pF5Btx7EWQQ4yAVujVrzX9gtdFrYGbcmRiryf8/HSDPXjwYNOGuuHqL/1A8+PL3hp7o3Ed6jFQeXkvPHW761WYxpfpT+XqRq0BvvoMiZa5SI9DkqOVbBekcTpaAV66aYCrP4g/lGddwtUbpBmZ+rWc8I/Zq8x6qR3KnhoLpIe6P3i7HV1kv2Sclwbza/ZgrH3pvqO2qDYhJ0NMQiIHTOPa1H51vcghzqNjKP8ywzXWTTPJ9Dpa9Ygx8vXSMgy65jVWSGlj15qfNutx1vtL1vyt+Bo3qPrJwVLvcfK62YobCxMntUWNw9LYS/3FHBPZRNemrgM9CzVOq937T5Z2HNNZ5/RMUBvXvVr1t3rKR8uD890joHuo7un6U/vB0eqeLfq65Jij1ddgqDwEIAABCNSagO9o8eqw1uZEeQhAAAIQgAAEqkwAR6vK1kE3CEAAAhCAAARqTQBHq9bm6x3lqzJGqXeIUhMIQAACEKgCAdbRqoIV+lAHzaJJr1HEYM8+bARUGQIQgEAfEMDR6gMjV7GK6sHSxtoIBCAAAQhAoJcJ8Oqwl61L3SAAAQhAAAIQ6CoBHK2u4qdwCEAAAhCAAAR6mQCOVi9bl7pBAAIQgAAEINBVAjhaXcVP4RCAAAQgAAEI9DIBHK1eti51gwAEIAABCECgqwRwtLqKn8IhAAEIQAACEOhlAjhavWxd6gYBCEAAAhCAQFcJ4Gh1FT+FQwACEIAABCDQywRwtHrZutQNAhCAAAQgAIGuEsDR6ip+CocABCAAAQhAoJcJ4Gj1snWpGwQgAAEIQAACXSWAo9VV/BQOAQhAAAIQgEAvE8DR6mXrUjcIQAACEIAABLpKAEerq/gpHAIQgAAEIACBXiaAo9XL1qVuEIAABCAAAQh0lQCOVlfxUzgEIAABCEAAAr1MAEerl61L3SAAAQhAAAIQ6CoBHK2u4qdwCEAAAhCAAAR6mQCOVi9bl7pBAAIQgAAEINBVAjhaXcVP4RCAAAQgAAEI9DIBHK1eti51gwAEIAABCECgqwRwtLqKn8IhAAEIQAACEOhlAmf3cuV6sW4DAwO9WC3qBAEIQAACGQicPn06Q2yidpMAjlY36ecsmwssJziSQQACEOgBAvzgrpcReXVYL3uhLQQgAAEIQAACNSKAo1UjY6EqBCAAAQhAAAL1IoCjVS97oS0EIAABCEAAAjUigKNVI2OhKgQgAAEIQAAC9SKAo1Uve6EtBCAAAQhAAAI1IoCjVSNjoSoEIAABCEAAAvUigKNVL3uhLQQgAAEIQAACNSKAo1UjY6EqBCAAAQhAAAL1IoCjVS97oS0EIAABCEAAAjUigKNVI2OhKgQgAAEIQAAC9SKAo1Uve6EtBCAAAQhAAAI1IoCjVSNjoSoEIAABCEAAAvUigKNVL3uhLQQgAAEIQAACNSKAo1UjY6EqBCAAAQhAAAL1IoCjVS97oS0EIAABCEAAAjUigKNVI2OhKgQgAAEIQAAC9SKAo1Uve6EtBCAAAQhAAAI1IoCjVSNjoSoEIAABCEAAAvUigKNVL3uhLQQgAAEIQAACNSKAo1UjY6EqBCAAAQhAAAL1IoCjVS97oS0EIAABCEAAAjUigKNVI2OhKgQgAAEIQAAC9SKAo1Uve6EtBCAAAQhAAAI1IoCjVSNjoSoEIAABCEAAAvUigKNVL3uhLQQgAAEIQAACNSKAo1UjY6EqBCAAAQhAAAL1IoCjVS97oS0EIAABCEAAAjUigKNVI2OhKgQgAAEIQAAC9SKAo1Uve6EtBCAAAQhAAAI1IoCjVSNjoSoEIAABCEAAAvUigKNVL3uhLQQgAAEIQAACNSKAo1UjY6EqBCAAAQhAAAL1IoCjVS97oS0EIAABCEAAAjUigKNVI2OhKgQgAAEIQAAC9SKAo1Uve6EtBCAAAQhAAAI1IoCjVSNjoSoEIAABCEAAAvUigKNVL3uhLQQgAAEIQAACNSKAo1UjY6EqBCAAAQhAAAL1IoCjVS97oS0EIAABCEAAAjUigKNVI2OhKgQgAAEIQAAC9SKAo1Uve6EtBCAAAQhAAAI1IoCjVSNjoSoEIAABCEAAAvUicHa91EXbuhE4ffq0O378uNNn3eTcc891Z511Via1T5w44U6ePNmSZmBgwE2cONHp0xfFVzpLQjrce++97u6777aSBMNiOgQTNU6oHJXni9hIvyyStz3k4TBhwgQ3fvz4LOo1bVekLUI69BuHTEYoOXLe66JkNSmuxgRwtGpsvDqoLidrxowZ7tixY3VQd4SO27dvd3Pnzh0RNtrB6tWr3caNG1uiTZo0yR04cMDp05dNmza5lStX+sHN45AOQ0NDbuHChWaaUGBMh1AahS9atMjt3r27JYrYSL8skrc95OGwbt06t3z58izquaJtEdKh3zhkMkLJkfNeFyWrSXE1JoCjVWPj1UF1/XKXk3X06NE6qDtCR6sXZ0QE40C9IaG6hnr11KMVShPSQeGhNIZaw0EhHYYjGF/Uo2WVlbVHTVnnbQ95OFg9i0b1RgQVbYuQDv3GYQTkCh7kuS4qWA1UqigBxmhV1DCoBQEIQAACEIBA/QngaNXfhtQAAhCAAAQgAIGKEsDRqqhhUAsCEIAABCAAgfoTwNGqvw2pAQQgAAEIQAACFSXAYPiKGqYf1Jo5c6ZbsGBBV6u6f/9+t2PHjo7roEHRmo2o6f6+HDlyxF155ZV+cPP4/PPPN8NjgWIqtr6ElhpQvBiH73//+35WtTjeuXNnZj1jabZu3er27NnTkqdmEIbsZ9lBGWjZCc2ItJaSiNmiSB3UJjXL0hqwX1abbIHZwQBd52KLQKB0AnfeeefpO+644/Ttt99++pZbbmlMvkCqTKDRQKqsXotud9111+nzzjtPi2i1/DUeTi3xyw649tprW/RKdL3xxhszq6M6Jenb/czDQbqF8ledskqMQ6iciy++OGsxp2PtIVSOwkO2iHGI5VfkuTwcYuCqYIsqtMkYozznQtem7k9ql3UStV+kugTkS8mnkm8lH4tXh40Wi0AAAhCAAAQgAIFOEMDR6gRV8oQABCAAAQhAAAINAjhaNAMIQAACEIAABCDQIQI4Wh0CS7YQgAAEIAABCEAAR4s2AAEIQAACEIAABDpEgOUdOgSWbMdG4PLLL3f79u0bWyZnUp977rlu27ZtTp+dllWrVrmlS5dmKuamm25y8+fPz5Rm2rRprjHjzkwzffp0Mzxv4HXXXedmzZrVkvzQoUNBvcVh8eLFLWlkA20QHdq7sCXBmYDZs2eHTpUWnodDHuXmzZsXtO0VV1zh9u7d25KtwkJtKGSLlky6EKD9MrVpeZ59My111U5lJwQCVSKAo1Ula6DLMAE5Wbt27Ro+HsuXxvTtzA/2vOXJycnq6Ghtpjx1bSwrkFfNTOn08AqVFdI7tPbWWWed5ebOnZup/KpEzsMhj+5z5swJ8p48ebKZZWN5gmAbCtnCzKjkQDncu3fvNjctL1kVioNAxwjw6rBjaMkYAhCAAAQgAIF+J4Cj1e8tgPpDAAIQgAAEINAxAjhaHUNLxhCAAAQgAAEI9DsBHK1+bwHUHwIQgAAEIACBjhFgMHzH0JJxrxLQwGNr5lfe+h48eDCYVLPtrAHQ1izAJBPlZw2A1kD0wcFBp88sEpr9GQqP5a3Bz0NDQ5knJ4Q4xMqq8rmYLSZOnBgc2K62V4ao/YQmOvSaLcrgSRn9TQBHq7/tT+1zEIhNpc+RXTTJhg0bgjPQQgnXrl3r1q9f33Jasy8PHz7s9JlFtNRGUaJp/AsXLsw8y0xLWYRmPhalW5n5JMtcWLaQ7UJLNZSl49atW53+LOk1W1h1JAwCRRLg1WGRNMkLAhCAAAQgAAEIpAjgaKVg8BUCEIAABCAAAQgUSQBHq0ia5AUBCEAAAhCAAARSBHC0UjD4CgEIQAACEIAABIokgKNVJE3yggAEIAABCEAAAikCzDpMweArBMZK4LLLLnOXXHLJWLMZTh/aN1FLOGh2oSU7duywgqNhCxYscNdee60ZR+XElqCwEm3ZssVcAuPkyZPuxIkTVpJomHQ4//zzW+JYy1i0RMoQIA5LliwxU4RsofAQOzOjRuCpU6fc6tWrm59+nClTpgTzC9lCOmjzaEtuu+02t2LFipZTeW3RkhEBEIBAlACOVhQPJyGQjYCcrCuvvDJbohyx5WBYSzjkyKqZZObMmU5/lmzevDmzoyVnL4/DZ5WvsNBSA6H4ecPFIKv95ABmTXP06FE3depUc5kL5fW2t73NrELIFjEd5GQV2VZMxQiEAASCBHh1GETDCQhAAAIQgAAEIDA2AjhaY+NHaghAAAIQgAAEIBAkgKMVRMMJCEAAAhCAAAQgMDYCOFpj40dqCEAAAhCAAAQgECTAYPggGk50k4D2grP2gcuj06RJk9zAwECepGYabQgc0m38+PFmmtOnT7vjx487ffqiNBMmTPCDm8faG1AbMftyzz33BHXw4ybH4nDs2LHkcMRnTIcibZGXwwhl2zzQ7EbNrCtKQraI5S+7Wm1C7VH2sGTcuHHmIHnFtdqClUc6TDqE2ms6Xrvfs25KHss3xiGWLnRObRWBQNUI4GhVzSLo0ySwbdu2XA8VC59u5hMnTrRO5QobHBxsbs5sJQ45THKyZsyYYTo6y5cvd+vWrbOyc4sWLXK7d+9uORfToSXymQA5WXPmzMmsQ5G2kA4hDsuWLQtyCNUpFr5y5Uq3cePGWJRM50K2iGUiu8q+vqg9HjhwwHS8N23a1JyR6KfRsZy9rLJmzRp39dVXZ00WjF+kMxPjEFQgcqJIJzBSDKcgkIkAjlYmXEQui0CRN/OidY71aIXKUk+OnAxN6/cltq6UHqxWmjw9Wio3jw5F2yLUu6ienyJ7XqyeJJ99luOQLWJ5hHrUYj05sR6tWFmhc3L+Qz8AQmnKCo9xKEsHyoFApwkwRqvThMkfAhCAAAQgAIG+JYCj1bemp+IQgAAEIAABCHSaAI5WpwmTPwQgAAEIQAACfUsAR6tvTU/FIQABCEAAAhDoNAEGw3eaMPkHCezfv7/re7Dt3LkzqF/ohPYZDO29p02JQ3sGhvIrOlx7DIqtL9rIWDP79OmLNjIO7Ye3ePHi4IbOZXFQOdYG0trjT/plEQ2SFwdrsHyMw7x585qzNv2yYu3Bj5sca5C8Zhdag+WPHDkS3DsxxCHJ1/oMtYcYB7Wf0F6VofZglZ2E5bnOkrRFfVrXRFF5kw8EogTuvPPO03fcccfp22+//fQtt9zSmByFVJlAw5hVVq9Ft7vuuut0YyaZFo+q3d+NN97YUh8FKDxUn2uvvdZME+PQ2ETYTKPAiy++2CxL4SFRfpZ+soP0sER6W2kUBof/bbtwyM8h1LaqEB67LqxrpQph4oZUl4B8KflU8q3kY/HqsNFiEQhAAAIQgAAEINAJAjhanaBKnhCAAAQgAAEIQKBBAEeLZgABCEAAAhCAAAQ6RABHq0NgyRYCEIAABCAAAQjgaNEGIAABCEAAAhCAQIcIsLxDh8CS7f8S0D5527dvL2yD6DK5zp492yxO4Y0ZaOa56dOnm+GxQE3Z37Nnjxnlqquuctdcc03LuUOHDrn58+e3hCvg0ksvNfXT/ojaGFmfvmjpglCd3vOe97jXvva1fhLXmMHYEtapgA0bNpjlTZ48uVNFtp1vrD3ccMMNpp3uvffeXBtEt61UKuKqVavc0qVLUyH/+zVve8hzXbQUXqEA7V1a9H6eFaoeqlSAAI5WBYzQyyroJjZ37tyeqqIe7o3lFQqrk9ZhstaIUgFyskJl7dq1y9RBD1UrjTanHhoaMjepnjNnjplGBcjJCpVlKtCBwNDDvQNFZc4y1h42b97cdXZy/q0fAHnbQwhQjEMoDeEQ6AcCvDrsBytTRwhAAAIQgAAEukIAR6sr2CkUAhCAAAQgAIF+IICj1Q9Wpo4QgAAEIAABCHSFAI5WV7BTKAQgAAEIQAAC/UCAwfD9YOUu1lGzqzQAW59ZRIOfi5pRlleHkL7SKzQ4++DBg+bA9rvvvjvIQBsjW4OVVb5mF1qicGvAu+IqP0uSiQnSxZdQ+X68Th5rQkCRg+5DEwxidRC7ENei2qPKly0GBwebn74+EydODHKYNm2aH715rPCs7DTrUDpYs1DLag95r80i7w8mUAIhUCQBNpWu7saUlmYN21vBlQ2LbaasuoT+Qhv45qloXh1CujUexEE1Qhs6h/JSeNGbSgeVy3lC9Y3pb53Ls7m2lU8nwsrcRDjUHmI6FL3Bd4hhTIecTSVzsrzXZpH3h8xKVyCBbIpUlwCbSjdaKAIBCEAAAhCAAATKIMAYrTIoUwYEIAABCEAAAn1JAEerL81OpSEAAQhAAAIQKIMAjlYZlCkDAhCAAAQgAIG+JICj1Zdmp9IQgAAEIAABCJRBYECzDhvSnHquqbYXXnhhGeVSRk4CAwMDmm6SM3X5ybSf2tSpU8399RYsWOCWLFliKnXgwAF3/PjxlnOadq5Nci25/vrr3c6dO1tOnTx50m3atMnp05eYDn7c5FhLACxevDg5HPG5YsUKt379+hFhOpgwYYJbs2ZN89M/eeTIEXfbbbf5wc3jGTNmOE3390VsxCiLxHTYsWOH27Jli5ldSAcz8plAcZ05c2ZLlLztYe3atU5LZ/gSaw9+3OT41KlT7uabb3b6zCJqd9ayB9JL+llywQUXuClTprSciumwf/9+J3tYonZnLd+hpSy0OXkWGT9+vFu2bJnTZ6dF17nahC+x9uDHTR+HOORpD+l86/K9bs+BunAtSs9bb721uXSLlnGRrRzLO1R3iqilWaMhWMGVDYtN3y56WYPQVHoxC/3FdMgDNaRDbCp9Fabz59EhD58y20NIv5gOoXai8NCSAgoPpavyMhchnTsRXhaH2NIrofZQx3DZCKkuAZZ3aLRQBAIQgAAEIAABCJRBgDFaZVCmDAhAAAIQgAAE+pIAjlZfmp1KQwACEIAABCBQBgEcrTIoUwYEIAABCEAAAn1JgE2l+9Ls5VVaMy4mTZpkFqhZcCE599xzXWMAectphRcpmomomU9ZRDNJitYjVL42gLb0szaGTvIQV2smmezQnAGTREx9Kr7FW1G06bClQyp521+PHTtW6KxZzZTOqpt0CLVJtYcTJ06Y9QnZQnxC7Cw7KPPYdWEWfiZQOqjO3RS1fV0DvkivWLv04+s4xiFmi5AO55xzTrA9hK4LSy/CIFAkARytImmSVwsBLU2gZQga80NazoUeQoq4bds284Fi3eBbMs4QoGUfQssahLKZO3eu2759e+h0oeGLFi0KPtRCBWkZieXLl7ec1kPNWipCETXNP7TUhnQYGhpqyS9PgNqBtWxHnryURnpp+ZAsIidrz549prO1ceNGt3LlSjO7kC0GBwfd4cOHzTShHxOx68LM6EzgwoUL3e7du2NROn5O16auAV+kl/TLIjEOMVuEdIi1h3Xr1pnXRRZ9iQuBPARwtPJQI03bBGK/WGOZlNVjpF/N+ssiWX+1Z8nbj5unLD3cQz0sfv7JsZzekONbZI9WUl5Rn3l6tFS2nC2LUcgxUpqQLWI9WkpnSd7rougfGpZuo4Xp2rTY5blmYxxitgjpEOvRynqdj8aB8xBolwBjtNolRTwIQAACEIAABCCQkQCOVkZgRIcABCAAAQhAAALtEsDRapcU8SAAAQhAAAIQgEBGAjhaGYERHQIQgAAEIAABCLRLgMHw7ZIiXi4CGoAa2tBZmw5bG83GCoptnqvNext7DbYkL1oHzZSyNo5WwSEdNLA3NNhcHCy9WyqSCohxSEUr5Ks28J0zZ06mvLQpsjZH9kUMQhsZi12I67x580wdYhxCG1sXbYtYe/Dr385xnusittF5HlvE9LQ2tVZ8hYfasTZOD9k2VJa1QXwSVxtoa+aoL5rRGtLB2uTcT88xBDpCgE2lq7sxpaVZoxFYwZUNi23g27ghZta76A18y9Ihc0VHSZCHwyhZFnpaXNVW/b/GbLXTahOW5NnYugocYjr49W/nONYmtWmylUdsM+U8trDsM5awkA5WXcYSFuMwFv2rllaMkOoSYFPpRgtFIAABCEAAAhCAQBkEGKNVBmXKgAAEIAABCECgLwngaPWl2ak0BCAAAQhAAAJlEMDRKoMyZUAAAhCAAAQg0JcEcLT60uxUGgIQgAAEIACBMgiwvEMZlCnDJBCaoq3IGzZscLNnzzbTZQ3UvmjaBFr74vly0003ufnz5/vBzeOQDtKrMdPMTDN9+nQzPBYoDmvXrjWjhHQwI58JVF6bN2+ORcl0LqTD3r173RVXXGHmdemll5qMtC+gNmfWpy9awiHENdQWYra44YYbTNuqPWhT4jx78/k65z2O6RBaPiFvWaF02rtRm0Bb+ydqSY9Vq1aFkmYOV15Lly5tSScd1B5C+0i2JBglQG0ydD2HksZsEUpDOASyEMDRykKLuIUS0BpI+rOksQSAFZwrTA+SuXPnmmm1Fs+uXbvMcyEdJk+e7BrTyM00eQLFIKsOsXIOHjzo9FeUhDgoPKS3HqoWo6NHj7qhoSGnT1+0VpeVxo+XPo7ZQs6mpZ82RLac7nS+nf6etElrc+ZOl53kLwa7d+9ODkd8Zl03bURi40A/QKwfIWoHlqNnZNFWUKxNhjKoQnsI6UZ4bxDg1WFv2JFaQAACEIAABCBQQQI4WhU0CipBAAIQgAAEINAbBHC0esOO1AICEIAABCAAgQoSwNGqoFFQCQIQgAAEIACB3iDAYPjesGNla5EM+s06q+jQoUNmnRQeGjCdZ7aW0oTyC+lgKnYmUAN+LT008FiDwK1B2NoIN6SDBnuXIdLZGqysskMc9u3bF1RNg/GtgeiabTg4OGjOOtTmzFYaFaLZhVlZqD4W13POOadpC336EuPgx02OYwPyxcGa8JEMRM8683HatGlJsSM+FR5iJ64Wh1ibjE3QGFFw6kAcQrNDQxxi7SGVdctXzS4MTdJoiUwABLpNgE2lq7sxpaVZo71YwT0X1ngwZN48t2gIIR1kg9CfNka2pPFQOK0Nla10sU2ErbwUVoWNjK26jBYmBmJhSZ5Npa18Rgsr2hax8oreTFl2tyTWHvK0ydHsaJ3X9RKSEIdYewjlpfA816als8Ly6hDTr9PnpDdSXQJsKt1ooQgEIAABCEAAAhAogwBjtMqgTBkQgAAEIAABCPQlARytvjQ7lYYABCAAAQhAoAwCOFplUKYMCEAAAhCAAAT6kgCOVl+anUpDAAIQgAAEIFAGAZZ3KIMyZZgEduzY4bZs2WKe06bE1ia0WgphxYoVZppQ4IQJE9yaNWucPn3Jo4Omqoc2gfbzH+uxylF5vlhLBvhx/OMYh5kzZ/rRRz3W8gmhjYdlV7HttOSxxbhx45rtQZ++xDiEbOHnkT6+4IILXGPWXzpoTN+1Uba1YXisPcgWWg7Bl5MnT7oTJ074wbmPZYvQtRlqCyp/5cqVbvz48ZnKta4JZRBrk6ECVLZ1bwjFJxwCmQmwvEN1p4hamjUMbAXXMizPdP7YNHaxsf5i07eL1iHPVPrY8g5VmMYe0qHo6fxF28JqCwqLtYfYhRTiECpH4aH2ECsndi6PDjH9eu1crE3GuNbtnOyGVJcAyzs0WigCAQhAAAIQgAAEyiDQ2ndeRqmUAQEIQAACEIAABPqAAI5WHxiZKkIAAhCAAAQg0B0COFrd4U6pEIAABCAAAQj0AQFmHfaBkbtZxcZwRaeZgvr0Jc+MJ21S3RjM7GcVPZ40aZIbGBgw42jGUSg/lVWUqHzpYYlmvx09etQ65bTxcUg/M0EkMMYhNgPN2gg7Ukz0lNrBsWPHzDix9qBNyS1Gsc3KNZPMms1WNAe1k9Dm0KdOnTL1NgGcCYzNglM5VnuQjUIsQhxiOsTaQyhdjINsqzx90XWhTa+t6zOPDn7+HEOgCgRwtKpghR7WQU7WjBkzzIerdeMdDcXg4KA7fPjwaNFGnE9u5iMCzxwsW7bMLVmyxDoVfHiakUcJ1MPkwIEDpsO5adMmN3XqVDOHbdu2OdW5CIlxkA6aZm9J6AFuxR0tLGkPoQdrKP2iRYuc5fjGnEAt6bF8+fKWLIvmIPts3769pRwFrF69OmhbM0EjUDqvW7fOPK32YNV59+7dbuHChWaaEAcz8pnAjRs3BttDKF2Mg9qW8vQluS6sHyF5dPDz5xgCVSCAo1UFK/SwDkkPhtUbkafaethav+jz5KU06j2wej3y5hdKp4e79TBR/LJ6tEK6KVxOb1E2ipWTtIdYHOtcHmdPPTlZ20oeDrE2madHK9azF+o5C4WLZR4OSpNVYhxC11hyXVh2yqNDVp2JD4EyCDBGqwzKlAEBCEAAAhCAQF8SwNHqS7NTaQhAAAIQgAAEyiCAo1UGZcqAAAQgAAEIQKAvCeBo9aXZqTQEIAABCEAAAmUQYDB8GZQpIzOBrVu3uj179rSkO//8893ixYtbwmMBGuCsWXVZZzmqHJWXRXbu3JklejPukSNHXGO/QzPdTTfdZHIwI48hMKaDbGFtWqyw9evXm6VOmTLFrFPMFtrQecGCBWZ+IR1i7UF1CulnFtIIzMMhlFfe8P379wf1DrVJcQi1oRAHDVDXrFtroLpsEcovZIs87UED3q3yR2MX4qBNpUOija3F1pcYBz8uxxDIRYBNpRvzoGokDSPXSNvTp++6667mJr7Su4i/PJvG5tVBG1hbkmdj61jdy9pUukwdQpspx2yRh0OsPSi/WJ2tc1XQwdIrCQu1SaudJmEhDo2Zfs3rM4nX7meeja1D7SFWZp5NxmP5Fc0hVlanz6k9INUlwKbSjRaKQAACEIAABCAAgTIIMEarDMqUAQEIQAACEIBAXxLA0epLs1NpCEAAAhCAAATKIICjVQZlyoAABCAAAQhAoC8J4Gj1pdmpNAQgAAEIQAACZRBgeYcyKFOGSUBTtFetWmWeu+KKK9zevXtbzils/vz5LeGxAG3CG9orL6bD7NmzY9ma51Qf5ZlFtIRDqE5XXXWVu+aaa7JkF4wrBtqc2WIRWk5DmeXRITTNXnvyaQNma2Pk2FIaGzZscI0Ziy11mzx5cktYEiBbLF26NDkc/oxxGI5kfAnpcOjQoaD9Lr30UteYKdiSW0yHPG1S14WuGUtCOtxzzz3N9qDPLGJdl0qv60WMLLnhhhuCjKz4CrOWFEniqq4x2yfx0p8HDx5MH/IdAqURwNEqDTUF+QT0YG1MFfeDm8ehm6getrt27TLT5AmM6ZAnPzkYoTqF8tN6YaE6ycnKml+oHG0arY1/LdFDLfRgK1IHlT937lxLhWhYHqdXtrAcvhiHmBIxHUL2k6Nn2S+mQ542GbsuYjoMDQ0Vtpm4rlmrrmK6efPmYBuPMQ+dCzl7ofiEQ6CbBHh12E36lA0BCEAAAhCAQE8TwNHqafNSOQhAAAIQgAAEukkAR6ub9CkbAhCAAAQgAIGeJoCj1dPmpXIQgAAEIAABCHSTAIPhu0m/D8pOBj9bM90mTpwYHCBrzTATLg24DQ1K1qyi0IDuEGrFDw1kVjnWoPzYoN/jx4+b+YnD4OCgORg9NvhZM9osycNBNrBm+yl/6WANHNc5i4HCZaOsg5JjHGSL0MywkC2kR0hC7SHGIWmT70QAAEAASURBVJSXwlVXq13u27cvlsw8F7suQnaI6aB2EhqILtsWKSFbzJo1K1iM6hTSL5gociJkizzXRaQYTkGgGAJsKl3djSktzRpWt4JrGRbbNFb1tP4aN+tgXUObxlr5tBNW5Q18i+YQ20w5BDzP5tqxjYxj7aFIW8RsH+Mg5rG01rk8mymHeCs8pEOsPYTyaziNuTZ8z2OLkA55w/NwCN0fYm0yr36dTqe2hlSXAJtKN1ooAgEIQAACEIAABMogwBitMihTBgQgAAEIQAACfUkAR6svzU6lIQABCEAAAhAogwCOVhmUKQMCEIAABCAAgb4kgKPVl2an0hCAAAQgAAEIlEGA5R3KoEwZmQloQ2BrmruWT1ixYoWZ344dO8zwWOCCBQvckiVLzChW+WbEVKDyspafOHXqlFu9erXTZxbRhsDWxsixKfshHU6cONHUQZ++iF2Ia8gW4tOYVedn1TzesmWLy2MPM7NIoJZwWLt2rRkjVP6ECRPcmjVrnD59OXLkSJBDyBYxHfz8k+OYLS655BJ32WWXJVG78ln0dRGqRIxDKI3CQ8uAxNKErovx48ebbSGWF+cgkIkAyztUd4qopVnDuFZwLcPyTOfPs6SAmIX+YtP5i4Rahan0ZeqQZyp9We0hNp2/aB2UnyUxW8TaZJ5lDazyFZZXh1B+ecJjOoSu2Vh4nmUu8ujd7TRigFSXAMs7NFooAgEIQAACEIAABMogwBitMihTBgQgAAEIQAACfUkAR6svzU6lIQABCEAAAhAogwCOVhmUKQMCEIAABCAAgb4kwKzDvjR7eZVuDFd0mimoT180A68xMNkPbh7fc8897ujRoy3nFB5KoxlMJ0+ebEkTC1B8q5xYmjznjh07ZjIYLS9tgJxVP82m00yqLBKbeRWyRSz/cePGmXaaNGmSEwtLrNmQSbwQB4UXKeIQal/aCNoShYfSqI1b9ou1h1ibPOecc8yyFG6VY+mbhEkH2cMS2S9rflY+o4XFOMTaZGhjcG2aHtI7z3Uxmv6ch0A7BAY061APQTVQ/V144YXtpCNOlwgMDAzkemB3Sd3mQ3XGjBnmw3XZsmXNafaWbosWLXJDQ0MtpwYHB922bdtawhWwcuVKt3HjRvNcKDB2Mw+lyRMeczhj+Z177rku9IAPpVu3bp1bvnx5y2k9gKZOnWo+iBRf6SwJ2cKKm4Rp+QTZ1xc9WOfMmWO2BzkYIWcrxEH3rKzOlpyiw4cPmw5L0TpoSY9Nmzb5GJrXcOgHSKxNqu3rGvBF14rslEXkZO3Zs8d0tqSzdO+0xK6LWJtcuHCh2717d4t6ulbUViwJXRdW3KqH1e05UHWeRet36623Nu/bao+yFT1aRRMmvxEEdCPVw9X6lVl0j5YeUFlFD1b9VVWyOhGqR576iF2oV6bIHi3pF2oPOheSPBxCecXCxSFrO8rToxXTIdYmi+zRkg5ytiy7l9WjFeMQa5OhHx+xHq0810VMP85BoF0CjNFqlxTxIAABCEAAAhCAQEYCOFoZgREdAhCAAAQgAAEItEsAR6tdUsSDAAQgAAEIQAACGQngaGUERnQIQAACEIAABCDQLgEGw7dLiniFE9i/f79bv369me+8efOas9P8k3k2etagWs2AyzrI2S87Of7+97/vtm7dmhyO+NRmvDNnzhwRpgMNxNVMLmtAruIrnSUqR+VlkZ07d5rRY8tfxGyRtXyz8DYCYxzaSN4SRZtKq16+yAaanWptKu3HTR8vXrzYWZt5x9qDVX46T+t7jMNNN93UnCnop8uzybKfR7vHIQ7tpk/Hi10Xedqk7CP9LNGG4db9puj7g1U2YX1OgE2lG/PiaiSN5lojbeMb16ouoT9tHp1V8mxknLUMxY9tbF3WJsIhblUJL5pDHjuF2kNeRqE2GWsPecrKs6l0nnIasw2bG0tbbPNsrm3lM1pYmZtKh9pDjMNo+nfrvOyNVJcAm0o3WigCAQhAAAIQgAAEyiDAGK0yKFMGBCAAAQhAAAJ9SQBHqy/NTqUhAAEIQAACECiDAI5WGZQpAwIQgAAEIACBviSAo9WXZqfSEIAABCAAAQiUQYDlHcqgTBkmAU3DXrVqlXlu9uzZZvjevXvdFVdcYZ7LM8VdyyesXbvWzG/Dhg0upIeZoMRA6SX9ipIYh6LKGEs+l19+udu3b19LFrNmzXLXXXddS3gsQJsOa3Pm0ObDobShtqDwxszDULLM4VrCYf78+Wa6q666yl1zzTUt58RGjLKI9o/U5szWvoF5lvSIXZu6zkPLLmTRebS40iHE7tJLLzXtpPpnbQuj6cF5CKQJ4GilafC9VAJa8+biiy/OVGZjOrjbtWtXpjSxyHqghPJTWVWVyZMnZ2YXq8uePXtip7t+To5EyE5ZldODde7cueZmylnzUvxO2CJUVzlZWa+ZUJ20AfPu3btDpzOHx67NPI5bZgUaCWI6LF26tDB2eXQjTf8S4NVh/9qemkMAAhCAAAQg0GECOFodBkz2EIAABCAAAQj0LwEcrf61PTWHAAQgAAEIQKDDBHC0OgyY7CEAAQhAAAIQ6F8CDIbvX9tXuuaaPWQNRj906FBwQKtmHWYddBsbkK9BzllFOlgDme+55x43ODjo9OlLbKNszaqzZNq0aWY5iqv8rM2PNfh5aGjI6dOX2IxNzaqzWMg+slMZEuIQCo/plAwCL2OmWR5bHD9+PNjG1f4tsWZkJvFCOiTnrU9dR7E2YaWJTQqw2qOVRyfDQtemJkfo2rRmX3ZSH/LuIwJsKl3djSktzRpN0wqubFjjYXxam7ZKb/8vz+a5jRlXwbqWtWlsnk2Ei964NqZDng2dfdukj1WWJUXrEGsPVvmjhYXaQ7punf6exxYxDmr/WXUO6RDjV9dNpbOyUfyir80Y16LOSW+kugTYVLrRQhEIQAACEIAABCBQBgHGaJVBmTIgAAEIQAACEOhLAjhafWl2Kg0BCEAAAhCAQBkEcLTKoEwZEIAABCAAAQj0JQEcrb40O5WGAAQgAAEIQKAMAizvUAZlyshMQJvQWks15JkmfuLECbdy5Uo3fvz4zHpYCSy9rHjthu3YscNt2bKl3ejNeDEdlJe17MK4cePcmjVrnD592blzp7v++uv94OaxNt22uMd0MDMaJVAcVqxYMUqs9k8rP0smTJjQ5KBPX2Ic/LjtHOexxcyZM9vJekQcLeEQ2qD9tttuM7nGOIzI3DsItQcvWluHJ0+edLo+LVmwYIFbsmSJdSoYpiUcQpvEBxNxAgIdJoCj1WHAZJ+PwOLFi/MlNFLpZr5x40bjTDWC9u/f79avX1+YMnIwLCejMY3dHT58OLiZcsjR2rp1a2G6xTISB/11WuRwL1++PDOHPHrltUXWsuQIN5aFMJPJebXal9rD1Vdf7SyH08zoTGBZ7UEOZ6hOIf20hh2OVogO4d0i0PrTtluaUC4EIAABCEAAAhDoMQI4Wj1mUKoDAQhAAAIQgEB1COBoVccWaAIBCEAAAhCAQI8RwNHqMYNSHQhAAAIQgAAEqkOAwfDVsUXfaaJB6kePHi2s3srPkoGBATdx4kSnz27JpEmTcpWvjY+tzW61MfLdd99tVkeDm60ZljEdFF+Doy1ROdZG1NIrtDGzVb6VdzpMaUIDs/PokM47/V0cjh07lg4a/n7q1KlCOQxn7H2J6eBFHXFo2WFEBONATC3bFt0ejKJHDYpdm6G2oExD7SF0TYyqCBEg0EECA9pUuiHNG6ku4gsvvLCDxZH1WAnoxiR71UXkSE2dOtV0qGIP1jz10zRxy9nSA+XAgQNOn92S2ANFM8JCyxps377dzZ07t0Xt3bt3u4ULF7aEK2DdunXNWXX+yZgO4haaZq9yVJ4v0kv6WRJy9mLtQTMBpbsleXSw8lGYnKw5c+aYztayZcuaSz9YacvSwSo7CQs5GI3Npl1jk+8k2ojP0HVRdHsYUWibB7FrM3Z/CNki9gMkpNJos3FD6boZXrfnQDdZdaPsW2+9tfkDWT9GZSt6tLphBcpsEtDD3XKMisajhq4buvWrvuiyis5PPUaW3qGeJJUf6sGI6aaHmv4ssXrUFE/hlm5WHu2EqfxQfkXrIGfL6k2N9WiVpUM7rLLEUXuI9Q5ZeeVpD1Y+o4XlvTblcFr2G608zkOgGwQYo9UN6pQJAQhAAAIQgEBfEMDR6gszU0kIQAACEIAABLpBAEerG9QpEwIQgAAEIACBviCAo9UXZqaSEIAABCAAAQh0gwCD4btBnTKbBLSXmTaOtUT7qRW1abEG3Guvw6wDgi29FKZ95bLuxSgdNm3aZA7+P3LkSHBPN2sz50SH0D5weTYlDtU1Fi77WHvoKY3smlWP2J6P8+bNa84U9PXRsh3d1kEbOodEex1a+zdq0L1mOOrTF8W39qr046WPY7ZIxyvie+i6jF0XIQ6xazN2f9D1p5mjvki30F6MoTap+0JoIoifP8cQyEVAyzvccccdp2+//fbTt9xyi5Z6QCpMoGHkCmvXqtpdd911ujGTTOtRtPw1HIXWBGdCGtPVW+JbeXQjTLpllbwcspbTifh5bHHttdeaqsQ4xGzZWLrAzE/hoXRl6WAqdiZQbdzST9eEWFgiva00VQ+LXRchDrE6xe4PFjeF5WkPobyqHC5uSHUJyJeSTyXfSj4Wrw4bLRaBAAQgAAEIQAACnSCAo9UJquQJAQhAAAIQgAAEGgRwtGgGEIAABCAAAQhAoEMEcLQ6BJZsIQABCEAAAhCAAI4WbQACEIAABCAAAQh0iADLO3QILNn+LwHtyaeNh7XZqy+hpQsUb8OGDa4xK8tP4vbt2+cuv/zylvBYgHTYtm2bi+0PGEvvnzt06JCbP3++Hxw9Puecc5o66NOXm266KZifOMyePdtPEj1eu3atOcU9xkFT4pXOkr1791rBTb2knyWhJQ9i7SGmg1XGaGGqz+bNm1uixWwR0+GKK65wkydPbslv1qxZ7rrrrmsJzxsQWrogll/suli1apW5HIn2C1y0aJHTpy/SQeksEYdQm7Di5w2TLfbs2ZMpuXXPyJQBkSHQAQI4Wh2ASpb/R0Ab8c6dO/f/Atr8ltW5iGWb6BDasDiWNnRu165doVNmuMoeHBw0N03WwySUX54Hx8GDB838pIPl8EphrT8U0sGsUCNQTkdjSn/otBme2MI6mfWhauWRDhMH/fkymi38+MlxGc6FytIPkNiPkESfdj/l9Fp20qbMoY2yVb6VRmVazma7umSJpzYZWrMrSz7EhUC3CfDqsNsWoHwIQAACEIAABHqWAI5Wz5qWikEAAhCAAAQg0G0COFrdtgDlQwACEIAABCDQswRwtHrWtFQMAhCAAAQgAIFuE2AwfLct0OPla/D10NBQcBB21uprdlVINOjXGkSsmW6hQb8abGsNmFYZGpCfdeBvSAfNdBMHa9bh8ePHgwOPNcPREukVmjAQGvycVwcNArcG5Sss6wB6qy5JWMgOyfmsn0XbIlS+Zh2GJI8tQnkpPNQmYxMT1L4sO91zzz3NCRr69EV695qofVkcdG/QRJXQPaLXOFCfLhBgU+nqbkxpadZoIlZwZcMaD+PgptKqS5F/oU2EY3BiG/iWtZFxbPNcbdRrMVJ4VonZIo8Oll6dCquCLbLyjsWP2SLGMMQhVlZoQ+fG7Mvgxtax/PK0yZAOsbqWdS4vhxijTp8TG6S6BNhUutFCEQhAAAIQgAAEIFAGAcZolUGZMiAAAQhAAAIQ6EsCOFp9aXYqDQEIQAACEIBAGQRwtMqgTBkQgAAEIAABCPQlARytvjQ7lYYABCAAAQhAoAwCLO9QBuU+LmPChAlu3bp17uTJk4VQ0BTt0ObHW7ZsMTe7lQ5r1qxx+vRlwYIFrjHz0A9uHt9www3mpsSx/ddCOqj+J06cMMvZsWOHW7FihXkutOSBwkNpzIwagTEdQmkUrs2FrTrHbBHLL8852dxausPSa7T8Y21y5syZweTSwbKHlkIIbcB8/fXXu507d7bkmdcWIQ4tBaQCLrjgArONjx8/3rwmlFRtUm3ZkksvvdQtXbq05ZRlnyTSkiVLgsuRJHH8T3ETvywSs0UonxiHUBrCIZCJAMs7VHeKqKVZw7hWcN+EaXq7GGT5yzt9OzSNPUvZdYkbW94h1Ljy2KJMHnmW+wjVVeGh9hBbaqMKyxrk4ZBn2ZMYuzznYjqE2lHMFnl0qGoa1R+pLgGWd2i0UAQCEIAABCAAAQiUQYAxWmVQpgwIQAACEIAABPqSAI5WX5qdSkMAAhCAAAQgUAYBHK0yKFMGBCAAAQhAAAJ9SYBZh31p9vIq3Riu6LSprT59yTPbRxu/Nga3+1k1jzWrL+vsxtjsL22I3W2JbYidVbeYLbLmpfhF2yLWHu6+++7CNibPU9ei0wwMDLiJEyc6fXZaxNWSWHs4depU8DoLbb6s60V2skQzPUN6WPE7ERa6P5Rpi07UizyrTwBHq/o2qrWGcrJmzJjhjh071lKP5cuXN5d+aDkRCRgcHHSHDx82Y6xcudJt3LjRPBcK3LRpk1M6S0IPDStup8K2bdvm5s6dW0j2skHIFnkKKNoWy5YtC7aHhQsXut27d+dRs5Jp5GQdOHDATZo0qeP6WcuaqNDYtSlbhK4zOf+WDA0NOdnJEi3xouu9m7J69Wrz/iAblGWLbtafsrtHAEere+z7omT9atYD/ujRoy31Da0r1RIxFRDrRcnzi1k9WpZuqSK7+lUPtVAPXh7FiuxBKdoWsl+orqFelDwMqpBGdtADPlTfMnSMXZuxHq2QburRCl1LWXuaQ2WMJVz3m5B+YoFAoFMEGKPVKbLkCwEIQAACEIBA3xPA0er7JgAACEAAAhCAAAQ6RQBHq1NkyRcCEIAABCAAgb4ngKPV900AABCAAAQgAAEIdIoAg+E7RZZ8mwQ0wFmzjayB71OmTHHr16/PREob1y5evDhTmlhkbSLc2I8uFiXTOW3Gu3///pY04qCZXNaAfcVXOku2bt3q9uzZ03IqxiGkgwY4Swd9+nLJJZf4QcPH0iHr5s0Wg+EMA1+UJtQe5s2b5+bMmdOSUnpJP0uszZwVL2YLK58kTO3O0kEzCEN6q41b7WvcuHFOM1716YvapDY7tySPLZRXbLNsq5yYLaz4CrM23E7ihmyRnLc+86RRewjZIk+btPQiDAKZCbCpdGO+SY2kYeAaaRtXtehNY0Mb+DZmdp2+66674soUdDaPDlXnENpMWW2xrD9tYG1Jno2ti24PMR1kW0vUHqWHxU9tKCR5bJFHB0uvXg0ruj2EbFdkuGyBVJcAm0o3WigCAQhAAAIQgAAEyiDQ2m9dRqmUAQEIQAACEIAABPqAAI5WHxiZKkIAAhCAAAQg0B0COFrd4U6pEIAABCAAAQj0AQEcrT4wMlWEAAQgAAEIQKA7BFjeoTvc+6ZUbcy8aNEiZ23QnHXJgNGgrVq1yi1durQlmvbJC22Eq+nya9eubUkTC5g1a5a77rrrYlFazqn+2nDX2rMvD4e9e/e6+fPnt5SjgNA0+5gOWrpA/CzZsGGDa8ySazm1b98+d/nll7eEK0B5FbkMx+zZs81yFN6Y9Week11DSz+YCUYJVF1VZ1+mTZsW1GH69Ol+9FGPpbO1pIcSXnXVVe6aa64ZNY90hJAOuia2b9/utEehL3muC9lCbcWSPLaItUmrjLxhsftD3jxJB4E0ARytNA2+F05AN/Hdu3cHN3MtskA9UEIPlVA5cnJ27doVOl1YeMKhqAzl+GTVO6aDtT5UomvIyUnOW5+yQ2MpAutUoWGTJ08OlqO1xooUOVkh5kXWVW0y5HzLySqqLDkYc+fONRGFHD0z8pnAom0h+xVV15jenINApwnw6rDThMkfAhCAAAQgAIG+JYCj1bemp+IQgAAEIAABCHSaAI5WpwmTPwQgAAEIQAACfUsAR6tvTU/FIQABCEAAAhDoNAEGw3eacJ/nnwy4tWYdxtBoVp010y02CFwDsK0B0BoEPjQ0ZM6uOn78eOYBt5p1GJKiB4GHOGjgcWiQumYdhgZTh/SOhYd0OHToUJCdZYdYGTonnUMzJlVX1dkXtQfpZ0mIQTIpIDQT1cpLYVZ7TMJDg+RDbTJURifC87SHkB1i+sWuTW28bQ1sj12bsl+Ia0iP2HURSkM4BDpOgE2lq7sxpaVZo0FYwT0X1rgpmxvuqv6hvzyb58Y28K0C1BAHhYcktLF1iJvCYxzy6BDSLRYe21y7yE2lYxyKPpenTcZ0CHGIcc3THmI65DlXNIeQDrHrIsaobudUf6S6BNhUutFCEQhAAAIQgAAEIFAGAcZolUGZMiAAAQhAAAIQ6EsCOFp9aXYqDQEIQAACEIBAGQRwtMqgTBkQgAAEIAABCPQlARytvjQ7lYYABCAAAQhAoAwCA5p12JDm1HdNtb3wwgvLKJcychIYGBjQdJOcqeuTTJvahqbnh2px2223uSNHjrScHjdunLvoooucPn1RfKXLIpqyH9qAOZTPiRMn3OrVq50+s0iIg5ZPCG3afMEFF7gpU6a0FBPTYebMmW7BggUtaRSQR4clS5aY+cV0kM7S3ZIDBw44LcXhi9qI9LPksssuc5dccol1Khi2c+dOd/311wfPWydi7SFPm7TKSMJk86xLZ6xYscKtX78+yWL4c8KECW7NmjVOn74UzUFtS23Ml6NHj7qpU6eae6EqjdqRJdqk2lqCInZdhNqklX/Vw/rlOVB1O4T0u/XWW52WNtKfbOVY3qG6U0QtzRqGtYIJaxAITWM/77zzTjfW+DEZxZYUEGvrL88UcpUvPaz8ig4rayp9TO88OuRZYiKPDmZDOBNYdHvI0yZj+uU5l0eHojmE9I5dF1VoDyG9ux2udo9UlwDLOzRaKAIBCEAAAhCAAATKIND6LqWMUikDAhCAAAQgAAEI9AEBHK0+MDJVhAAEIAABCECgOwRwtLrDnVIhAAEIQAACEOgDAmwq3QdGrmoVT548mXkWXqwuyi+rjB8/3jUGqZvJtBG2ZuJmEc2qs/Q4duxYcLaodLBmfqncPDpk0beduNp8WbNnfBGbrJuF+3mkj8VNs9AsOeecc4J2suIr7NSpU2Z+mgWkTY6bs4G8xLH24EUdPpRuIb2ttqCEjWG8Tm3CkqLbg2bbWm180qRJJgPpVDQHtW/l6YtsID0skd4hrlmvSyt/wiBQFgEcrbJIU04LgU2bNrmVK1e2hOcNyLp0gspZtmxZcAr5woUL3e7duzOpoyUcNm7c2JJGD1ZreYJEh3Xr1rWkUUAeHcyMxhC4bds2N3fu3JYcxEb6FSVqD1u2bDGzkw6Dg4PmuVCgbKGlA3zRg13LRVgP+Fh78PNJjoeGhsxydD7UJtUWZsyYYTo6y5cvd6H2sGjRosxtUks4HD58OFF3+DNxOIcDUl+K5qD6qF6+yOGVLXR9+KL2YNlP8Yp08P1yOYZA0QRwtIomSn5tE4j1YLSdyRgj6le29Utb2Vq9OKMVpwdr6Fd4KG2s9yCPDqFy8oarR8vqEVF4kaL2EOoBKrJHSzpbD3aFx9qDzlsS69Gy4iss1qMVcs6UTg5G1vYV6tFSfiEpmkPIrnl7tEJ6Ew6BKhJgjFYVrYJOEIAABCAAAQj0BAEcrZ4wI5WAAAQgAAEIQKCKBHC0qmgVdIIABCAAAQhAoCcI4Gj1hBmpBAQgAAEIQAACVSTAYPgqWqWHdNIgWM0esgbDakPnxn5mmWob20Q4U0ZnIu/fv9/t2LHDTJp1U2szkzOBGlysmVz69CXrxsd+ev9YGwJbouUOpIM+fYlx8ON241gbR+/ZsydT0apTVolxyLOhc2gz5ZheedpDbDNlXWfWptIxHfKcszZ5TvIJtcnkvPWZJ02Mg7WptVUuYRAonACbSjfm/9RIGg2gRtqebm7mHNpMObZpbKiSN954Y+aNmVV+WZtK59nAN1RXhWsDa9m8iL+8HMTckpgt8mwqXUQd28mjChwsnu2EhdpDbKPzUJtsh1Xd4sQ4tMO3LnFkF6S6BNhUutFCEQhAAAIQgAAEIFAGAcZolUGZMiAAAQhAAAIQ6EsCOFp9aXYqDQEIQAACEIBAGQRwtMqgTBkQgAAEIAABCPQlARytvjQ7lYYABCAAAQhAoAwCLO9QBuU+LkP74W3fvt3de++9LRQ0FTurzJ492zVmu2VKpv0CQ/vyacr+nDlzMuV36NAhN3/+fDPNpZdeauoX00FLF6xdu9bMb+/evWZ4nkDtk6dNoK39E+fNm2fqrXLEvAyRLVatWlVYUWIqtlkk1h7ycJAOmzdvzqJCNG6e9iCmS5cubclX7UGbVGfdoPm6665zs2bNaskvT0BMhzztIXZthvTTvUGblofuEaF0hEOgXQI4Wu2SIl4uAnqoz507N1daK9HkyZNdYwq3dSpXmJy9PA7frl27zPL0QMuqn9brCuVnFpIzUM7u7t27zdRyNrPqbWY0hkDZoUgd8tg1b3sIVVtrS8XWlwqlKzJ8+vTpTn++aHNqy+n24/nHcrKKslNMh7ztIeu11Fjuw/wh6NebYwjkJcCrw7zkSAcBCEAAAhCAAARGIYCjNQogTkMAAhCAAAQgAIG8BHC08pIjHQQgAAEIQAACEBiFAI7WKIA4DQEIQAACEIAABPISYDB8XnKka4uABmAPDQ3VcrCpZplp8H0W0cDnrINxY4Ol8+iQRd8k7sSJE4N659EhxEGzzKwZqIkeoU/NtmvsV9lyWvbJMxuwJaMzAZqYELOHlU4z3YoaHG7l307YtGnTgvYLpc9ri1B+sk9oVqQG4+eZnBAqK9Qe8thCsw3zTAoI6UY4BFoIsKl0dTemtDRrGNAKrmyYNnPWJr7Su25/eTZTLrqOIR2KNrg2gQ7pHtJB4aE0ecJjm4w3HBmzLIWHJLSZct5NpUN1iukQ0q3o8KJtEaqrwvO0hzybjBfdHopm3s38ZAekugTYVLrRQhEIQAACEIAABCBQBgHGaJVBmTIgAAEIQAACEOhLAjhafWl2Kg0BCEAAAhCAQBkEcLTKoEwZEIAABCAAAQj0JQEcrb40O5WGAAQgAAEIQKAMAizvUAZlyjAJLFiwwC1ZssQ8V1bgzp073fXXX9/x4iZMmODWrFnj9JlFrD3qlF5LEIQ2og7ln1cHlWNNzdeSEI3ZZKHizPATJ0641atXO31mEW2MrKUXfLH08uP4xyp75cqVbvz48f4pN2XKlMx1On78uFuxYkVLXgpQ+1Y79yXG4ZJLLnGXXXaZn6R5LFtYy0/EbLFlyxa3Y8cOM78iA9VWQ+3BYlBk2eQFgSoTwNGqsnV6XLeZM2e6xhTurteyDEdLD/Xly5c7bWBbhMjpWL9+faasVPbVV1+d2dnbunWrWY7Wjsrq7GkT4Te84Q2ZHa3FixebOuQJPHnypNu4caOZVO3xbW97m3kuFKh10+QIWqI1viwnI9FBPCwJOVqyhbVOW8wWWnOqDEdLTm8VrmeLJ2EQ6CYBXh12kz5lQwACEIAABCDQ0wRwtHravFQOAhCAAAQgAIFuEsDR6iZ9yoYABCAAAQhAoKcJ4Gj1tHmpHAQgAAEIQAAC3STAYPhu0qfsIIEiN7wdGBhwmpWlzyJEG9BmHdQ+adIkd+zYMbN4DZQPzUYMcbjnnnsK1eHUqVOZ8zvnnHNcaDC36mPN6jMBnAnUAPFQfrF0oXPKz5JYewjZwconCYu1hxAD6aA2Ycm4ceOCHMTcansxW4Q4WGW3E6Y2WZSddE00dqwzi421hzwczEIagbH2EEpDOASyEMDRykKLuKURWLRokdu9e3ch5emBduDAgeCDLWshg4OD7vDhw5mS6YEyZ84c09nSbMR169aZ+YU4FK3DsmXLMtdpaGjITZ061dRb9VG9ssimTZucliIoSkJLSMjpDrWHkGMU0ylmi5DjluhgORniEOK6bds2p/J8idkixMHPo91jtUk5l0WI6q/lMSyJtYc8HKwyFFb0/SFUDuH9SwBHq39tX+maF/mrWRW1Hmh5AcR6MGJ5ytmyegJiD8IQhzw9WtItpEPRPVp5elGUJk+6GHPrXNKbZPUMWfFHC8vTHhIdrLyL7tGyyhhLmNpkGRJrD0X2aKkuRd4fymBDGfUiwBitetkLbSEAAQhAAAIQqBEBHK0aGQtVIQABCEAAAhCoFwEcrXrZC20hAAEIQAACEKgRARytGhkLVSEAAQhAAAIQqBcBBsPXy15oW3EC2lNu//79LVpqwHtooLfih/YtnDdvXnO2op+hZq2F0mhvPe0j6Ytm1GkmoDX4XhsZh0T761kbOmu2WGhvO6v8UP5JuNJY+wIm561P6RXai9GKrzDZQXsdWjMCy9IhpJvCjxw5EuQa2kQ7zz6D4qCZfVa7zMMhVqfQuZgOoTSx8Dwc8ixFEtOBcxBoIXDnnXeevuOOO07ffvvtp2+55ZbG5AukygQaBqyyei263XXXXacbs7u0UE7LX+Mh3RI/CWhsktsS38qjnTCVLz0sufbaa4Pl3HjjjVaSaJjq1I5O7cYJ6aDwUB6qU5ESsoXCs0re9hAqJ8YhxCcWHmuTVdYhpFssvGhbxMoKnYvpELNT6LoIldNr4WKDVJeAfCn5VPKt5GPx6rDRYhEIQAACEIAABCDQCQI4Wp2gSp4QgAAEIAABCECgQQBHi2YAAQhAAAIQgAAEOkQAR6tDYMkWAhCAAAQgAAEI4GjRBiAAAQhAAAIQgECHCLC8Q4fAki0E0gTOPfdcp41w9emLlidYu3atH5z7WHlt3rw5d3o/4d69e/2g5rHC58+fb55btWqVW7x4sXmuyMDZs2e7xgw0M0txyLr0g5lRyYHSec+ePZlKnTVrlrvuuusypVFb3L59u7v33ntb0t10001B27ZEHkOAys6zd+IVV1zhJk+enKnkstpkJqWI3BcEcLT6wsxUstsEtPHw3LlznbWRcdaH6mh1OXjwoNNfp6UxNd/t2rXLLMZad8uMOMZAPWwby0yYuYTWnDIjVyhQ7Mrgl7RJq+pqkyHbWvHLDgs5/zE9ymAaK59z/UuAV4f9a3tqDgEIQAACEIBAhwngaHUYMNlDAAIQgAAEINC/BHC0+tf21BwCEIAABCAAgQ4TwNHqMGCyhwAEIAABCECgfwkwGL5/bV/pmmsWVVGi2VUa+FuUaBB4aDCuNnu2BmcXrUOeuojB4OBgZhaqq+rsiwaia9afJdpw2hpMrRlm1iw35aHBylYanVM5WWeZTZ8+3bSFyh8aGgrqofIsCXHYt2+fFT0altcWoUynTZsWZBdKEwuPTabIY4tQWTFbaDKDbGhJyBaxNlnXyRFW/QmrGQE2la7uxpSWZo3mZQVXNiy2aWyeDXyLrmieTaVjGxnn2dC5aB3URqy/2ObaMa55NpUua3PtmN6hc3nbZIiDxXq0sLy2CNUp1iZH0yXr+SI3dC7aFrJRP4hshlSXAJtKN1ooAgEIQAACEIAABMogwBitMihTBgQgAAEIQAACfUkAR6svzU6lIQABCEAAAhAogwCOVhmUKQMCEIAABCAAgb4kgKPVl2an0hCAAAQgAAEIlEFgQLMOG9Kc6qypthdeeGEZ5VJGTgIDAwOabpIzdfnJjh496qZOner06cvMmTPdggUL/OBSj/fv3+927NhhlqnNiq2lGrQEQWgzZdVH9fJlwoQJbs2aNU6fvsR0OHDggNNSCb5oKYTQhsmXXXaZu+SSS/wk7tSpU+7mm29ufvonFV/pLFFdrWUXNF0+tHH0BRdc4KZMmWJlFwzbuXOnu/76683zIVtoGYKsG3KPGzfOXXTRRU6fvhw5csTddtttfnDzeMaMGU7Ld2SRLVu2mO1Le14ePnzY3PtS7VHpLNHGyNaSB7H2YOWjsBMnTrjVq1c3P0NxrPAibXHy5Em3adMmp09fYveHkC10reiasWTJkiVdv99YeuUJq9tzIE8d65zm1ltvbS6jo2VcZCvH8g7VnSJqadZofFZwZcNi07dVlyr/haaxKzyr3nmn8+dZUiC0xETMFrGlNorUIdZQq7DMRR4dYnUKLXMRaw9F6xDSL9YeYu27yOsiVk7sXB4dQtdFiE+Vw8UGqS4BlndotFAEAhCAAAQgAAEIlEGgte+8jFIpAwIQgAAEIAABCPQBARytPjAyVYQABCAAAQhAoDsEcLS6w51SIQABCEAAAhDoAwJsKt0HRu5mFTXjYtKkSd1UIXfZoY2oFa5ZY1lEDJqzT7IkasTVZtRZyxo/frxZSswW1mzIJJMidUjytD6ld6iuZdkijw5WXZIwcbXqFGsPReuQ6OJ/xtqDHzd9XKQt0vlm+Z5Hh9B1kaVc4kIgDwGWd8hDrYtpdHNszLXoogbZipaumnJdJ52TGsrBsG7oWgbl7rvvTqK19Sm7aWkAfWYRlaPysoge7tZDJWYLxQ85W0XqEKuHpvhryQFLyrJFHh0sfZMw1cdauiDWHorWIdHF/4y1Bz9u+rhIW6TzzfI9jw6h6yJLuVWJW7fnQFW4laWHv7wDjlZZ5AsqhwusIJBkAwEIQKCmBHgOVNtwvqPFGK1q2wvtIAABCEAAAhCoMQEcrRobD9UhAAEIQAACEKg2ARytatsH7SAAAQhAAAIQqDEBHK0aGw/VIQABCEAAAhCoNgEcrWrbB+0gAAEIQAACEKgxARytGhsP1SEAAQhAAAIQqDYBHK1q2wftIAABCEAAAhCoMQEcrRobD9UhAAEIQAACEKg2ARytatsH7SAAAQhAAAIQqDEBHK0aGw/VIQABCEAAAhCoNgEcrWrbB+0gAAEIQAACEKgxARytGhsP1SEAAQhAAAIQqDYBHK1q2wftIAABCEAAAhCoMQEcrRobD9UhAAEIQAACEKg2ARytatsH7SAAAQhAAAIQqDEBHK0aGw/VIQABCEAAAhCoNgEcrWrbB+0gAAEIQAACEKgxARytGhsP1SEAAQhAAAIQqDYBHK1q2wftIAABCEAAAhCoMQEcrRobD9UhAAEIQAACEKg2ARytatsH7SAAAQhAAAIQqDEBHK0aGw/VIQABCEAAAhCoNgEcrWrbB+0gAAEIQAACEKgxARytGhsP1SEAAQhAAAIQqDYBHK1q2wftIAABCEAAAhCoMQEcrRobD9UhAAEIQAACEKg2ARytatsH7SAAAQhAAAIQqDEBHK0aGw/VIQABCEAAAhCoNgEcrWrbB+0gAAEIQAACEKgxARytGhsP1SEAAQhAAAIQqDYBHK1q2wftIAABCEAAAhCoMQEcrRobD9UhAAEIQAACEKg2ARytatsH7SAAAQhAAAIQqDEBHK0aGw/VIQABCEAAAhCoNgEcrWrbB+0gAAEIQAACEKgxARytGhsP1SEAAQhAAAIQqDYBHK1q2wftIAABCEAAAhCoMQEcrRobD9UhAAEIQAACEKg2ARytatsH7SAAAQhAAAIQqDEBHK0aGw/VIQABCEAAAhCoNgEcrWrbB+0gAAEIQAACEKgxARytGhsP1SEAAQhAAAIQqDaBs6utHtpZBAYGBqxgwiAAAQhAAAIQqBgBHK2KGWQ0dU6fPj1aFM5DAAIQgAAEIFARArw6rIghUAMCEIAABCAAgd4jgKPVezalRhCAAAQgAAEIVIQAjlZFDIEaEIAABCAAAQj0HgEcrd6zKTWCAAQgAAEIQKAiBHC0KmII1IAABCAAAQhAoPcI4Gj1nk2pEQQgAAEIQAACFSGAo1URQ6AGBCAAAQhAAAK9RwBHq/dsSo0gAAEIQAACEKgIARytihgCNSAAAQhAAAIQ6D0COFq9Z1NqBAEIQAACEIBARQjgaFXEEKgBAQhAAAIQgEDvEcDR6j2bUiMIQAACEIAABCpCAEerIoZADQhAAAIQgAAEeo8Ajlbv2ZQaQQACEIAABCBQEQI4WhUxBGpAAAIQgAAEINB7BHC0es+m1AgCEIAABCAAgYoQwNGqiCFQAwIQgAAEIACB3iOAo9V7NqVGEIAABCAAAQhUhACOVkUMgRoQgAAEIAABCPQeARyt3rMpNYIABCAAAQhAoCIEcLQqYgjUgAAEIAABCECg9wjgaPWeTakRBCAAAQhAAAIVIYCjVRFDoEb/EDh9+nRtK1tn3WsLHcUhAIFaEzi7TO3f+973ui9/+cvRIp/5zGe6F73oRdE4/sm77rrLffvb33ZPetKT/FOFHv/85z93H/jAB9zevXvdT3/6Uzd9+vSmrtOmTctczhe/+EW3YcMG99KXvtQ9/elPd5/+9KfdBz/4QfeKV7zCPfGJT2w7P8V/4AMf6N785jcPp/nCF77gnvCEJ7j73Oc+w2FZvnzuc59z73//+938+fPdS17ykmDS173ude6OO+5w11xzjZsyZUownk4cPHjQvf3tb3eLFi1yL3jBC9ytt97q3vSmN7nnPOc5bsmSJcG0PqdgROPE9773PXfq1Cn3yEc+snnWYmUk60iQmH7pS19yX/3qV92RI0fcpEmT3FOe8hS3bNky99CHPrSQMn/yk5+417zmNe4Zz3iGe/GLX1xInsrkK1/5SlP3PXv2uO985zvunHPOcY961KPcJZdc4p7//Oe7gYGBwsrqVkZ+WxmLHu202U996lNuy5Yt7lWvepWbPXv2WIoLpvXvAyrrAQ94QPO6CybiBAQgUDiBUnu0dJPWg/nHP/5x01GRs+L/3XPPPZkq+aMf/aj5sPrsZz+bKV3WyNLzZS97mdu6dav74Q9/6E6ePOl2797tXvnKV7q77747a3bNh61YKF+JHpI6ltOYRfSA+O53vzuc5H3ve59761vf6uQU5pWZM2c2dfnoRz/qfvGLX5jZHDhwwH3ta19z48ePH9XJUgbSR/W78847m/mdOHGieaywmMgpSXOKxU2f+/znP+9WrFgxgo3PKh2/k9/f/e53N53Rz3zmM071fvSjH+2OHTvmduzY4a688srMNg/pmjD9/ve/H4qSKVxO6jve8Q73hje8wX3kIx9ptvtZs2a5hzzkIe6b3/ym27hxo3v1q189praWSaEORbbayliKaqfNJnHUDjoh1n1A99/0vaIT5ZInBCDQSqDUHq2k+He+853uEY94RHI4pk/dqLI6Z3kK/NCHPtR0jp73vOe5l7/85U6vUD784Q+7TZs2uRtuuMG98IUvzJPtcJrnPve5zR65888/fzisnS96iI8b93/+8m233dZOsmicBz3oQe5xj3uc+8Y3vuH0q/jiiy9uif+xj32sGaYejTyiXsB3vetd7n73u1+e5KOmSRy6dESfVfpcp77rgfeJT3yi2WulXseHP/zhzaLkeF577bVOzpeuBzkzVRP1sO7cudNNnjzZvf71r3dywBPRj403vvGN7lvf+pbbtm2b+93f/d3kVO0+rbZSu0p4ChdxH/Cy5BACEMhJoCuOVju6Hj16tPm64jGPeUzz9Y9eOepX4GMf+1g3d+7c5usKHcsRkOjGotczcgrUyyI5fPhw81WlekT0YH/qU5/q7nvf+zbP6d++ffuav8b1aumTn/yke9jDHtZ8jee/ctNDUQ8TOSCXX355M71elyxevNjdfvvtzddAw5kGvqjnSrpKlzlz5rTE+tnPfuZuueWWZu/QxIkTm+flzOlBplcRckhU7x/84AdOvXh6bSNRmvPOO89deOGFzVc8SW/GjTfe2HSWZsyY0XQK1ft08803N3tUxEKvrfQADYkcKDlaH//4x1scrXvvvdepB/Gss85yz372s5tZSH+9WlKvkXr4pI901CsyS9T7It2Vh159JjIapySedNPrYtlYZeh16+Mf//jmab2m1HnJ/v37m3wGBwdHsGqebPxTj92uXbuar8TE/aKLLnLqtUmknXaYxPU/1XOrXkHVUb2MF1xwwXAUtTH1uKlXVH9f//rXh/VXJLGUvdRzKhs+7WlPc2efPfJy1Q8MvYpUWvWSqR1bol7SoaGhZm+G2rBescs+MREXvdqSqFfL/2GkfN7ylrc0X1HqB4fvaEkn/R0/frypm6+/2qdeN4uJdDt06FCzjHnz5rmk/Sf6jaa/XkOrh/XJT35ys12qJ05tL2lXedqKylY717WndjZhwoSmfdLOZqJfu202iZ/+lK4qQ+30wQ9+cPMepR5DieqkuqlNJmFJWjGT/a0fQXrVa90HkrTiqV485a12I27+dToa8yQv/1Pt5v+3d26xlmTzH6/uad3mgtbt1ho9jXEdcXsXQUIQDwghJJPw4EEiEtd4kRBEXCIhQuKSkAiJFyHx4GEeJN6QGMEg04PRbkMzZnqmx0zrz/r77v/aa/Y+p845u6v2qf35JefU3rVXrVrrU6vW+q7f+tXetEmuJ/0U7YRreuLEiVlS6soEmSVT2j5eNvpE3tdtnDYCE5Y7SUcfQx9OmaewXD0D4ovJE5jvudeougygxP4grFimqA1vyyc+8Ynu5ptv7r761a+Wj0hDejwI3NR0/vksxxJbgucgsVx8jpBBcLB0h73nPe/pXvCCF+SQskXE0enSeXODMwAimK677rruHe94x1zaRW/o1D784Q/PPmIAazs20nzlK1/p3vve95bz0GGxLIlwiVE3BiE6wQitj3/846Ujoi7EfGUm+/nPf74IM+pLGjwTtcHiYx/7WIeQXWR0jqSh02awrAc/Oj06+Re+8IUlDgyhwmAMo9pYWsKLVHey+Rx+XC9itMKwDye4vO9975sJqeSH9+VVr3pVWd5FNLMshyEUEYW0h5oVn8EW3vCsjfbxgQ98oNStTzusj61fIzQwvJW1yEoaxBZ8rrzyypnoRdS///3vL+0y6dgyYNGGIpDwwrztbW+b8+YuEs4Meoi81utLbFgrjurzIVYxWLQiK+kYBGlDdYwi14e28KMf/SjJypY4tI9+9KMzwcC1QGjBnjrHaDOf/exnZyKpT/l/+MMfdl//+tcL47R/Bu+3v/3tu24r8KUNcP1rQzASmxhB0KfN1se3rz/zmc8U0ZH93LfpAxBC3CP0R/RLMYQd3lGuyyKhtawf4Hgmp8Tv1cy5DniXjx49Wk7Rh3nKUm9h9e53v3vWl+azL3/5y6VNE/OJfe1rXyuTXNoPE0eM+5P7geufctBG2EdZ07dwn9P/w0WxVdD5bx8Q+P81pwELS7wHYmPRXxuzgIBiQP/0pz/dfepTnyoChRkqM368FNyMGMKDm5ClNwY4hAdi5p3vfGe5iVn64Gb90Ic+NBdTxT68BgxaBGkjMFpLZ8Ag8sY3vrF0Jgg9vFts0wm0x/GezocBBtHC9tvf/nY5rq1neywDMEKAun/zm9/svvSlL5WOtRUF9XF02gTBY3TYdHrkgcjC2/GFL3yh+9a3vtW96U1vKgMvy57LjIHkxS9+cfkYT2FtWTZ85StfWbxllBUGBGKTP+VghkoH+Z3vfKc+dOnrvpxYauP6I3JZeqMNvetd7yr5ci68aTfccEOpIztZ5kXAtsa1ZOkLngTjszRMm8Fjgbhs2WzVDtu88x6PKYZHapnhqagFEiID8Y/A4YEEeL7mNa8p8VEILbycsEaMIZ6I8WLpmgcN8BLWhkCOyOIBEx7kIH9EG/WL168+Jq9TdiY6Wxnev7r8lBeRRZ0pEwPom9/85jIxyb2a/LivEOE8FMEkAo8k1yNtZqflR2TRtlnG517eS1tBLNImuf8QLgg5+hu80tQJ69tmU99FW/oBJhr0ibRHvJ/0KXBAmPAezw59VIx6Ya94xSuya267qB9IAtoObY7+lHRcX8TX97///ZJkp8yTL1vaKxNW+gXaF/cdXv98Vl5U/zgXAo/VAvpf+ot2CR0+PHhB3047hwntdtE9XWXtSwmsFYFRhBYeBzquRX+4h2tj1sNAysCK9+W1r31t+ZjZHmKAZTOM5UKWBZnlMKBgzNwQC8yKeLKP+CoGpx/84Afl8/xjsKJzeOtb3zpbdsxnbIlHwegQOA/5MjiT74033lgG6ZJgwT+8PXRuHINrnCUInrxjZrzMGEzJlwGMYGMEIx4Blmq2MsqDoMM4lvfhyXlZfsQz9frXv74IkNe97nVbZVeYkCCdMK8ZAJjxcl2YWTK7hi08WEYkfwZZBjws7MqbLf715cTAwxIqbYIZPdefwTCCgI6eescDV3uL6tPTWVM2BCFlJV2Ww2DItWZZJ7ZVO0yadkvwMdb3qULEH9ed8jMxwNNAPWg7sKbNs+zCsgweQZZRGGwpL/VonxDFm0d7Z/LAteb6I7hZssQQqcssXuTElCUd3lwEVPvHYI0xKcDwOlIm6kJ7Q1DBnOXi2hCP1IPPeQIXo57YTsv/ohe9qLTDN7zhDaWeu20rePOoP/cdkwe8iHhZmLhgiEmsb5stiZf847ri1aUvo0+gf6O/4Clk9lEn3uM5i2Wiw2eLDOZtP1Cn+8hHPlL6U+5TJo4YbQrbKfNy0P/+IeCY8NKPsmzLPYPnlOuQFYM6PR5Hntymz6b/ZZLDPdPGzCG+6NupE/0hW+IeNQnsFwKjLB3iZVq0nAQ0Brva2qUtbl6snb3Xx6TTwJOTGC4+z7JCPs8xrPn3NTwCcW0zw2XA50nEZV9RQHwHluXKnAdxUpct+9lSTjpX4o7qQHcGXrgxk+5rdOSUl4GDMjI7ZFbIVwBkGWpZXiwJkYZYEUQJ14YBAGOZDiNvZuQM/HR+eNDgG29JPRMvByz515cTwhlBh9eJmT7n49gMzoiVPhaPTevBZJCKV6vmvJt2iEjhPImX2a5cWa7DK4kwro3rBdMzZ87MBlHi7GpDgOJ9iUXocQyerViuSXsf5HO2uT9bYQSTdlmQ9Ag5BkzaLYaHqrYIfvKLeEPI1A9D5N7OstZOy99eo922lZoLHvDWEK94Y/q22fb4+n2W07KPa4pYTd1f/vKXd3wVBJMdRAztnWuAKGNysFOjfaf/4lj6ByxCOefdTZthQoAHivbB8XAkvIM2kTZXTva/f+1kk1gxJhJ4dBOTxpJ7Yu04jPuCSTfpiJ/MRLvO19cSWDcCowgtbpRlcR8toPZGYna0neF1wdpBgn2IlTaPVtyRrrbc9HhN2k6KwYLOhcGBTqy1LDvGw5LP63yyL9t4gdrBls85306MWTFLbCyLEbdER8of3kSEVzxPy/LE+8YyJF5A0n/ve98rSV/ykpfMDmFJEg9QDMYsKRGw29f6ckJQ4WWAOca1pD1xzgwWfc6Zjr9tXxybfRnw633Ju21D2V9vGcTwEERA1Z/lNd5BvpeNQZQBHMv5k6bex9Jo2nc70NYPenBM0iFyIgqSJ7wWnSef441iiQwPVm14DxF0MWK0EL0Ywf+x9ny0Zf5SR9K190TLdKflb+/j3baVtCPaSFsPuGGUrW+bLQcs+deKw9zfad+0bQQooRIIi3iXly0bLjnNbHe9zMvONs5pp8xnGV96wcS2DqWgP2TSwPfHLbK2f0t7qNvRojaadHjTF32+6Fzuk8CYBEYRWpe7wnSGdILMRttAXTqrrUTOorJlpt1+xtISnTEDRNtpJC3esixTpZPmM57IWWbxJtQelaRdtC+fLdvi5SGeLMH1dIjf+MY3ytIRsSxbdVZ4Bb74xS+WWTWz78ym02HjsUFk8Z6AXeJsYMF+hBbLoH2sLyc6cgYhnopkuSGs+DJGBsi+58tyXrtMQVnDmMnAmUsz891aBlGCtW+44YYHiGRm+tSHZRX4xbuBd7C1lAlOEYkZ6JM2AiHvIzxYSuM610ZanuZaZjzphnEd8aJkYoSHNWKAz/OEL6/DlKUdhH3tjcUDxKDeikOOW2Z7KT957rat5CtW8Gy2Hi0GdwZ66t23zS6rH/vJr7Zc+/rhCbxaxDzhweXBDgQM3p/LYbtlTpskrg3ji4Hx2OOtpI/E+92KaNJxH9dtKXWHa6xt0+wnHfnxlLgmgf1A4OB+KORWZUxnnsGHtHGH402ojSdV8OAQeLoTu/ZSXAvhIS2yAAAYUUlEQVQiieU3Bp0Ys0xm6Mw625lh0qQs7TkTZ5F09RYPGufDPV57QwiCzUy3Tl+/TjnC47vf/W759nqe9MEYMAkWzsC5KHaizo9OnSeb6NwISMXq785KLA+eDpZHIzizxNh3Ka8vpyxtEGAdkYUIyf4sXYVD7UGp65WYLgKv6zJmKZIBpxYR9bF9X7NExvIIXgICvlsRiMcI/gwaPJnIOREpXPcIK87FteQ6YgxCEXC0odSXz9r2HrEULyRpMJZ4CY4n+HqZcd0JZCZ/RGy9nJZjEJB8bUiMQRPBCPN6WZz3fNkvTznW7TnHLdvupfzkmTax07aSgR5PXTw85Efb4N5BuFKnvm2WY5dZe83ST9RfMULbwBCvlOdlL3vZ0v4m50n7Tz+Q/dttd8s8qwcIxJe+9KWzJWHEIVa305Shrjs8WSLF6odHmEywlBhj4sN14N5KHfOZWwmsK4FRPFqf/OQnl85smQXxRFVfizeGrxzgKRqE1Fve8pbixmZwwpvEz/qw5aZncE58Ud9zcEPjkeCpRwJieQqMmVY6CjryZUZsDTFcLNsx0BLXhQjJILDoOM5HwDKBwsSzsayER6AevBYdx754mphd4o2iU0Zk0YHTSeNxYqmKzgoxt12cFnmyfIgXjD/yZ1kplk6RwRvPH3kyACd4N7E5Sb9s25cTHSydLU9wsnzJ95jxNFI68pwvHBCHiIQEWuf8eDrxINEmeDLx1a9+dVmayYMUBPSuwnhUn2tJ+6PdEIOD5yexKJyD9p7lEDyPPMWJV4BBHQ8QT6oisFkuSr3wUHFNEUG0Z5a4WkHF9cdziWhDWPEwCHwQaIi7fK3GsnpyH9FmOQ+MuL6IC5YvEdgRIQSzxwNDOpYTabvEvzFw44VBUDIAE/zc1/Za/r20FcQND+0QzM1r+qU8Dck9iSDu22a3qi9ijodcmMzQFhGu3FMwjXFu7jkmdhj39HaWdpJ+gGvfx3bLPN4l4kv5igauO8vOEY7cn/zVni2EIx49PIiwpY0veiCJe4h7gWN5shHDO69JYL8QGEVoEVy9zJhJb2XxYGXLMiBCBBHAjIiBjA4Q0UWHzwDEHzcp3oUbLgmmHJvz9JkZ8YQP6RgEc7NzbgbGWngkz2yJkWLQ4SmtiBXKwqBZD4xtmXC9f/CDH+z4DpobLz2JRsdJwDGdP6JrmSGKEDoM7CxP0sEykPM4NAIvniY6c7wsfQxxhoBCXJJ/bQTsI24ZvCkrhmeDzpH3CEpinVrGbX37cmJ5kpgw4j4S+8GAzjUgEBwxymsGKgQNnji+NBQvRGs8yMDyGYKc64rhVUJg0Ia2spQ/22Vp8fAx2BEnR9nqQHLECSKsbj+IEYw68pUeGDwRaQQbxygjD4RwPWnrGB4oRH0M5kxqeJQfVhGRePPwLmWZKOkXbRn4KCdtioGTNozRhvHkUo7a+wI3JiPwpK780XZ5sq4Vu+350kbCdKflz3HJdy9thetCuRG58SYySUOQZ4m3b5tNeeptyopIph/gS0sxvMLcO63RXyC0mBj1nRy1/UCb56L3O2WePOi3eVKW2E/EFX+0EeI6WZ7HG4+oZKIZ475Ne+V40rZL3Oyn/eXrHGizfBVEvLrJy60E1pnAgUs3waVJ6/99Nw8zjj438TpWiNk15W/jrxAl3OgslaVz22v5cWfTIfUZqOpzITgoSx+3Nx4iyhxXPvmwDMDj3wwAdGjLjLgIRBEz4Xr5i9kjgfZc4yzxLctjN/vxnNAxbhX70yffPpxIg4iiE2bAW2ZwoEzxGC1KBy9m4vBqA8oXpd/tPq4f/FkmYXl4u3gl2hllS+zTovNy77Jsg1cAL8syY3mUOpIXPHZrMKft5wGRrfKBPd4vrtFebS/l30tbgS9PjW7Xrvu02WUMuMZcw63aBP0B4hWRQWxiH1vWD/Q5ljS7ZY73kutOm6SttMZXfxD7x9OViDHaOX1ia4QoMMFDZBEgT3mWxcu2x/peAmMS4EEc2jZ/3AOTEVpjQr0c58ZLRIfFciWzN7wXBKXT4eJd4/tkNAlIYNoEmEDyAA9eQl4jTvYilNeBVi206mD4tmy10Go/870E1plAK7SWuwLWuRYbUDZiEj73uc8VQUXHyowZwxvFF6xqEpDA9AmwdJsHYHi930XW9K+YNZTAAwkotB7IZC32EFtFnBFB/sTX4EInFobYLTvbtbhEFkICl50AMUs8eEA8U+L3LvtJL/MJeLiAOMGtlropAr8oQJiEJoH9TsClw/1+BS2/BCQgAQlIQAJrQ6BdOjy4NiWzIBKQgAQkIAEJSGBiBBRaE7ugVkcCEpCABCQggfUhoNBan2thSSQgAQlIQAISmBgBhdbELqjVkYAEJCABCUhgfQgotNbnWlgSCUhAAhKQgAQmRkChNbELanUkIAEJSEACElgfAoN+jxY/CcEP/PIbfPwMiSYBCUhAAhKQgAR2QoDvYDt+/Hh36tSplf203k7Ov9O0gwktRBa/b8UX0PHFm37p5k4vleklIAEJSEACEuCXUvhtXTQFemJVv2N8ucgOtnSIJwuRdfr0aUXW5bqa5isBCUhAAhKYOAEcNWgJNAXaYt1tMKHFcuGJEyfWnYflk4AEJCABCUhgHxBAU6At1t0GE1rEZLlcuO7NwfJJQAISkIAE9gcBNMV+iPceTGjtj8tmKSUgAQlIQAISkMDqCCi0VsfSnCQgAQlIQAISkMAcAYXWHA7fSEACEpCABCQggdURUGitjqU5SUACEpCABCQggTkCCq05HL6RgAQkIAEJSEACqyOg0FodS3OSgAQkIAEJSEACcwQUWnM4fCMBCUhAAhKQgARWR0ChtTqW5iQBCUhAAhKQgATmCCi05nD4RgISkIAEJCABCayOgEJrdSzNSQISkIAEJCABCcwRUGjN4fCNBCQgAQlIQAISWB0BhdbqWJqTBCQgAQlIQAISmCOg0JrD4RsJSEACEpCABCSwOgIKrdWxNCcJSEACEpCABCQwR0ChNYfDNxKQgAQkIAEJSGB1BBRaq2NpThKQgAQkIAEJSGCOgEJrDodvJCABCUhAAhKQwOoIKLRWx9KcJCABCUhAAhKQwBwBhdYcDt9IQAISkIAEJCCB1RFQaK2OpTlJQAISkIAEJCCBOQIKrTkcvpGABCQgAQlIQAKrI6DQWh1Lc5KABCQgAQlIQAJzBBRaczh8IwEJSEACEpCABFZHQKG1OpbmJAEJSEACEpCABOYIKLTmcPhGAhKQgAQkIAEJrI6AQmt1LM1JAhKQgAQkIAEJzBFQaM3h8I0EJCABCUhAAhJYHQGF1upYmpMEJCABCUhAAhKYI6DQmsPhGwlIQAISkIAEJLA6Agqt1bE0JwlIQAISkIAEJDBHQKE1h8M3EpCABCQgAQlIYHUEFFqrY2lOEpCABCQgAQlIYI6AQmsOh28kIAEJSEACEpDA6ggotFbH0pwkIAEJSEACEpDAHAGF1hwO30hAAhKQgAQkIIHVEVBorY6lOUlAAhKQgAQkIIE5AoMJrcOHD3d333333Ml9IwEJSEACEpCABHZDAE2Btlh3G0xoHT9+vDt79uy687B8EpCABCQgAQnsAwJoCrTFuttgQuvUqVPdHXfc0d1yyy16tta9VVg+CUhAAhKQwJoSwJOFlkBToC3W3Q4NVcCDBw92119/fXfrrbd2N910U3fhwoWhTu15JCABCUhAAhKYCAGWC/FkoSnQFutugwktQADk9OnT5W/dwVg+CUhAAhKQgAQksFcC6y8F91pDj5eABCQgAQlIQAIjEVBojQTe00pAAhKQgAQkMH0CCq3pX2NrKAEJSEACEpDASAQUWiOB97QSkIAEJCABCUyfgEJr+tfYGkpAAhKQgAQkMBIBhdZI4D2tBCQgAQlIQALTJ6DQmv41toYSkIAEJCABCYxEQKE1EnhPKwEJSEACEpDA9AkotKZ/ja2hBCQgAQlIQAIjEVBojQTe00pAAhKQgAQkMH0CCq3pX2NrKAEJSEACEpDASAQUWiOB97QSkIAEJCABCUyfgEJr+tfYGkpAAhKQgAQkMBIBhdZI4D2tBCQgAQlIQALTJ6DQmv41toYSkIAEJCABCYxE4NCQ57148WL397//vfv3v//d/ec//xny1J5LAhKQgAQkIIENJnDo0KHummuu6Y4dO9YdOHBgMBKDCS1E1m233dbdc889g1XOE0lAAhKQgAQkIAEI4OA5d+5cd/78+e7kyZODia3Blg7xZCmybOwSkIAEJCABCYxJAC2CJhnKBhNaLBdqEpCABCQgAQlIYGwCQ2qSwYSWMVljNyvPLwEJSEACEpAABIbUJIMJLS+tBCQgAQlIQAIS2DQCCq1Nu+LWVwISkIAEJCCBwQgotAZD7YkkIAEJSEACEtg0AgqtTbvi1lcCEpCABCQggcEIKLQGQ+2JJCABCUhAAhLYNAIKrU274tZXAhKQgAQkIIHBCCi0BkPtiSQgAQlIQAIS2DQCCq1Nu+LWVwISkIAEJCCBwQgotAZD7YkkIAEJSEACEtg0AoP9qPSmgbW+EtgvBPjNrz/84Q/dwx/+8O7xj3/80mL/6le/Kr9X+vSnP7170IMetDTdVh/cfffd3c0339w94hGP6B772MeWpPfee2/361//urvzzjvL+6c85Sndwx72sK2yGeUzyvmLX/xiW06jFM6TSkACa0tAj9baXhoLJoFhCFxzzTVFQP3pT3/qLl68uPCkd911V/evf/2r/Nr9bkUWGd9///3lXPUPzJ85c6aILPJ96EMf2l155ZULyzD2TthQ7rrsY5fJ80tAAutPQI/W+l8jSyiBy0rg8OHDHWKLH1k9d+5c8di0J/zLX/5Sdj3mMY9pP9rRe0TUM5/5zDmPGF4u7FnPelZ3xRVX7Cg/E0tAAhJYdwIKrXW/QpZPAgMQePSjH12EFoKKJcTWbr/99rLr+PHjs48QZnfccUfxUl111VXd0aNHi8crCViSfPCDH1y8ZAi4hzzkIR3pEFYHDhzoDh482P3zn//sWJLDeH3o0KHyY698Rn61kY7zkQf5LrPz588X7xves2PHjnVHjhx5QFK8c5QfL9WisnMAxycdafhbZPw4LWXH64doZdlzq/ItysN9EpDAdAkotKZ7ba2ZBHoTQFwhbhAW991335xn6R//+EcRHYgW0iBOfvvb33bsrw1B87SnPa2IDfaTBuFx4cKFWbKnPvWpZT8xWog70sR4nWVMRNWzn/3sWV6kue2227q//vWvHXksEzLkgcCLEXt29dVXd894xjPKLsTTL3/5y1k8WNJRzjpfyvyzn/2s1DtpEIGtwYv4MvKt7XGPe1x34sSJepevJSCBDSVgjNaGXnirLYGaAB6meKtqoUKaLBsijLCzZ88WkYWHB3Hy/Oc/vzt58mSJXaqFE2kRLCwXXnvttR3ioxYrHP/c5z53tozIawLhH/WoR3Fo97e//a1s8w+vGkuLxHEtMoQYZcdz9pznPKf84V0iyD55JR6MPEjzvOc9r2M5lHIimGKIMcTTqVOnSv2oZyumEKQRWdSf8l9//fVFHCLw8JhpEpCABBRatgEJSKAQiJCKsGIny2J4bRLHxT4EDfbkJz+5iB68XDxBiJcJcZGYq5Lo0j9EyiMf+ciFHh6EV5YReY2QIi2G9yoWr1o+y/56m/TXXXddEW8E1z/xiU8sHi0C2PHEIdYob9JwPp60xJNGuVmaZAmQ9Ig0RB/pEWbtE5mcD/GFN5D6U35EJeIM++Mf/1gXz9cSkMCGEnigL3xDQVhtCWw6AUQCYgmhgYcHcZXYrIiwxFPB6ne/+90csnxGjFSW9hApO31KkfR4pRA95EW5IqKWCS0ED+dnmbAOqEf8ZNkwXx+BaKJctSGWEImcD+GHtV8xQczYrbfeOjsMThjH1N6weL7Yr0lAAhKY723kIQEJbDSBCKostcW7FYETMQUkhEv9F1EVoUEaxNpuLMuHCCyW6Ag2jxBclB/CEKtFVpsu5VqUBkGGca7UsU2XNMkXbx9G+poDAgux2B6f49xKQAKbRUCP1mZdb2srgS0JEKSO1wahRfA7y2l4ciIa8gQfoooYp9oQKVjS1p/t9HWC8ylHnvaL+FqUV8oVwVWnIaaM8pIntuh7sLIPj1gEWZtXBFjyjogkPisCNZ+RdqeevBzrVgISmBYBPVrTup7WRgJ7IoAgQWAhPBKLVYsIRBSeHcRI/dQh73lK78c//nFZetxTIS4dnOB8xNvvf//7kl2C9RflTXqED8KwjhFjOZDAdDxifE792BdhRV7Ebv35z38u2SLqEFtYvHnlzYL3xHVhbTq8cD/96U87vklfk4AEJKBHyzYgAQnMEUBY8fQef4iq9ik/gr15uvA3v/lN8RIhOPA84cVhiTEeqLlMd/EGDxaihSW62qu2LKsnPOEJpUw///nPyxOOiLQIKD7D2PLk4U033VSelEQ48o34pOV8WR7kSUT2k47XLA22ggrvHwHvCDuEFcdT1pzz9OnTy4rqfglIYIMIKLQ26GJbVQn0IYBwYtkL4VR7s3IsHi/slltuKV4tPFsIFIRHBE3SttsEmrf7F71HsOGFYglvq2XDHMvSIOKGpc86UJ8yJTg/sWZ8Hk8ZYgsxVT9VyGvEFw8DUE8s4ivnY8vvPvI5HrN4APGI8R1aWVqs0/taAhLYPAIHLs3SLnnOL5ZOhY6F77q5HNZ+v87lOId5SkACwxJAjNFvRMis+uw/+clPytIe33e1E0OcsZy5VblIQ9+X+K5l+RPcThqWHZcZ+eDZ2i7dsuPdLwEJDE/gSU960mU5KeEKTOD4Y3KpR+uyYDZTCWwGATxfqw76RiAhXFiqYymO76jaqfXxJvVJw3l52nE7ozPtk267fPxcAhKYHgGF1vSuqTWSwL4mwHIdcVQYS5Is2WkSkIAE9isBhdZ+vXKWWwITJUCMGF8WiseJWCfc75oEJCCB/UpAobVfr5zllsBECbAEx28eahKQgASmQGB5dOcUamcdJCABCUhAAhKQwIgEFFojwvfUEpCABCQgAQlMm4BCa9rX19pJQAISkIAEJDAiAYXWiPA9tQQkIAEJSEAC0yag0Jr29bV2EpCABCQgAQmMSEChNSJ8Ty0BCUhAAhKQwLQJKLSmfX2tnQQkIAEJSEACIxIYTGjxDc+aBCQgAQlIQAISGJvAkJpkMKHFtz1rEpCABCQgAQlIYGwCQ2qSwYTWsWPHyi/bjw3X80tAAhKQgAQksLkEjhw50qFJhrLBhBa/bn/y5Mnu6NGj5Ydih6qg55GABCQgAQlIQAIsF6JB0CJokqFs0MApKnb8+PHyN1QFPY8EJCABCUhAAhIYi8BgHq2xKuh5JSABCUhAAhKQwFgEFFpjkfe8EpCABCQgAQlMnoBCa/KX2ApKQAISkIAEJDAWAYXWWOQ9rwQkIAEJSEACkyeg0Jr8JbaCEpCABCQgAQmMRUChNRZ5zysBCUhAAhKQwOQJKLQmf4mtoAQkIAEJSEACYxFQaI1F3vNKQAISkIAEJDB5AgqtyV9iKygBCUhAAhKQwFgEFFpjkfe8EpCABCQgAQlMnsDBIX/vZ/I0raAEJCABCUhAAhL4HwE01pxHS9Fl25CABCQgAQlIQAK7J9BqqTmhtftsPVICEpCABCQgAQlIoCUwE1pRYPfdd1+bxvcSkIAEJCABCUhAAtsQiIaKpiL5TGjl2AsXLuSlWwlIQAISkIAEJCCBngQWaagitKK82J4/f75ndiaTgAQkIAEJSEACEggBNFStqdg/e+qQD/i76667unvvvTfHuJWABCQgAQlIQAIS2IYA2gkNFT1Fcl7Plg55k53nzp0rr/0nAQlIQAISkIAEJLA9AbRTraVyxNzS4cGDB0uie+65p7v99tuTxq0EJCABCUhAAhKQwBICaCa0U/FgXdJSWETXobzIFrF18eLF4v4iev7o0aPd4cOHl2TtbglIQAISkIAEJLCZBAh+x5OFyEI/xWGFpsrfoaCJ0GJLQowDz54921199dXdVVdd1R05cqS74oorcohbCUhAAhKQgAQksFEEcEKhj4jHuvPOO2cCqxVZgVKEVkQWO2uhlfdE0ZMZni4s2/LGfxKQgAQkIAEJSGADCEQvRSvhfMrrVmgl7cyjBZ8kvv/++2fuL14jrPgsAitbjqlf816TgAQkIAEJSEACUyEQwUR98ppt/mqBldd13UuMVi2kOJCE7Mt+xBaWfXUG7NMkIAEJSEACEpDAFAlEXKVuEVi8j7DKvqStt7Olw4iqbJMhW1xjrchSYNWEfC0BCUhAAhKQwJQJRDxRxwir+nU+b7f/BdxpmQbQpwrHAAAAAElFTkSuQmCC;" parent="1" vertex="1"><mxGeometry x="696.47" y="437" width="116.05" height="128" as="geometry"/></mxCell><mxCell id="-VnQgaIfTIf3LVvWvXPP-9" value="" style="group;fontStyle=1;fontSize=13;" parent="1" vertex="1" connectable="0"><mxGeometry x="500" y="115" width="100" height="100" as="geometry"/></mxCell><mxCell id="-VnQgaIfTIf3LVvWvXPP-4" value="&lt;b&gt;&lt;font style=&quot;font-size: 15px;&quot;&gt;2FA&lt;/font&gt;&lt;/b&gt;" style="strokeWidth=2;html=1;shape=mxgraph.flowchart.decision;whiteSpace=wrap;" parent="-VnQgaIfTIf3LVvWvXPP-9" vertex="1"><mxGeometry width="100" height="100" as="geometry"/></mxCell><mxCell id="-VnQgaIfTIf3LVvWvXPP-7" value="" style="shape=image;verticalLabelPosition=bottom;labelBackgroundColor=default;verticalAlign=top;aspect=fixed;imageAspect=0;image=https://cdn-icons-png.flaticon.com/512/5720/5720464.png;clipPath=inset(25.33% 3.67% 25.67% 3.67%);" parent="-VnQgaIfTIf3LVvWvXPP-9" vertex="1"><mxGeometry x="33" y="20" width="34.04" height="18" as="geometry"/></mxCell><mxCell id="-VnQgaIfTIf3LVvWvXPP-14" style="edgeStyle=orthogonalEdgeStyle;rounded=0;orthogonalLoop=1;jettySize=auto;html=1;entryX=0.5;entryY=0;entryDx=0;entryDy=0;" parent="1" source="-VnQgaIfTIf3LVvWvXPP-10" target="-VnQgaIfTIf3LVvWvXPP-11" edge="1"><mxGeometry relative="1" as="geometry"/></mxCell><mxCell id="-VnQgaIfTIf3LVvWvXPP-10" value="Save User" style="rounded=1;whiteSpace=wrap;html=1;" parent="1" vertex="1"><mxGeometry x="668" y="230" width="173" height="40" as="geometry"/></mxCell><mxCell id="-VnQgaIfTIf3LVvWvXPP-15" style="edgeStyle=orthogonalEdgeStyle;rounded=0;orthogonalLoop=1;jettySize=auto;html=1;entryX=0.5;entryY=0;entryDx=0;entryDy=0;" parent="1" source="-VnQgaIfTIf3LVvWvXPP-11" target="-VnQgaIfTIf3LVvWvXPP-12" edge="1"><mxGeometry relative="1" as="geometry"/></mxCell><mxCell id="-VnQgaIfTIf3LVvWvXPP-11" value="Generate Secret" style="rounded=1;whiteSpace=wrap;html=1;" parent="1" vertex="1"><mxGeometry x="668" y="299" width="173" height="40" as="geometry"/></mxCell><mxCell id="-VnQgaIfTIf3LVvWvXPP-19" style="edgeStyle=orthogonalEdgeStyle;rounded=0;orthogonalLoop=1;jettySize=auto;html=1;" parent="1" source="-VnQgaIfTIf3LVvWvXPP-12" target="-VnQgaIfTIf3LVvWvXPP-8" edge="1"><mxGeometry relative="1" as="geometry"/></mxCell><mxCell id="-VnQgaIfTIf3LVvWvXPP-12" value="Generate QR Code" style="rounded=1;whiteSpace=wrap;html=1;" parent="1" vertex="1"><mxGeometry x="668" y="368" width="173" height="40" as="geometry"/></mxCell><mxCell id="-VnQgaIfTIf3LVvWvXPP-13" style="edgeStyle=orthogonalEdgeStyle;rounded=0;orthogonalLoop=1;jettySize=auto;html=1;entryX=0.5;entryY=0;entryDx=0;entryDy=0;" parent="1" source="-VnQgaIfTIf3LVvWvXPP-4" target="-VnQgaIfTIf3LVvWvXPP-10" edge="1"><mxGeometry relative="1" as="geometry"/></mxCell><mxCell id="-VnQgaIfTIf3LVvWvXPP-30" value="Enable 2FA" style="edgeLabel;html=1;align=center;verticalAlign=middle;resizable=0;points=[];fontStyle=1;fontSize=14;" parent="-VnQgaIfTIf3LVvWvXPP-13" vertex="1" connectable="0"><mxGeometry x="-0.3687" y="1" relative="1" as="geometry"><mxPoint as="offset"/></mxGeometry></mxCell><mxCell id="-VnQgaIfTIf3LVvWvXPP-16" value="" style="image;html=1;image=img/lib/clip_art/computers/Database_128x128.png" parent="1" vertex="1"><mxGeometry x="824" y="252" width="26" height="26" as="geometry"/></mxCell><mxCell id="-VnQgaIfTIf3LVvWvXPP-17" value="" style="shape=image;verticalLabelPosition=bottom;labelBackgroundColor=default;verticalAlign=top;aspect=fixed;imageAspect=0;image=https://upload.wikimedia.org/wikipedia/commons/thumb/3/31/QR_icon.svg/1024px-QR_icon.svg.png;" parent="1" vertex="1"><mxGeometry x="822.5" y="393" width="29" height="29" as="geometry"/></mxCell><mxCell id="-VnQgaIfTIf3LVvWvXPP-18" value="" style="shape=image;verticalLabelPosition=bottom;labelBackgroundColor=default;verticalAlign=top;aspect=fixed;imageAspect=0;image=https://static.thenounproject.com/png/2677340-200.png;" parent="1" vertex="1"><mxGeometry x="822.5" y="324" width="29" height="29" as="geometry"/></mxCell><mxCell id="-VnQgaIfTIf3LVvWvXPP-25" style="edgeStyle=orthogonalEdgeStyle;rounded=0;orthogonalLoop=1;jettySize=auto;html=1;" parent="1" source="-VnQgaIfTIf3LVvWvXPP-21" target="-VnQgaIfTIf3LVvWvXPP-23" edge="1"><mxGeometry relative="1" as="geometry"/></mxCell><mxCell id="-VnQgaIfTIf3LVvWvXPP-21" value="Scan QR Code" style="rounded=1;whiteSpace=wrap;html=1;" parent="1" vertex="1"><mxGeometry x="668" y="596" width="173" height="40" as="geometry"/></mxCell><mxCell id="-VnQgaIfTIf3LVvWvXPP-20" value="" style="shape=image;verticalLabelPosition=bottom;labelBackgroundColor=default;verticalAlign=top;aspect=fixed;imageAspect=0;image=https://logowik.com/content/uploads/images/google-authenticator-new-202365744.logowik.com.webp;clipPath=inset(13.56% 21% 15.33% 20.33%);" parent="1" vertex="1"><mxGeometry x="824" y="622" width="29.7" height="27" as="geometry"/></mxCell><mxCell id="-VnQgaIfTIf3LVvWvXPP-26" style="edgeStyle=orthogonalEdgeStyle;rounded=0;orthogonalLoop=1;jettySize=auto;html=1;" parent="1" source="-VnQgaIfTIf3LVvWvXPP-23" target="-VnQgaIfTIf3LVvWvXPP-24" edge="1"><mxGeometry relative="1" as="geometry"/></mxCell><mxCell id="-VnQgaIfTIf3LVvWvXPP-23" value="Type Generated code" style="rounded=1;whiteSpace=wrap;html=1;" parent="1" vertex="1"><mxGeometry x="668" y="680" width="173" height="40" as="geometry"/></mxCell><mxCell id="-VnQgaIfTIf3LVvWvXPP-36" style="edgeStyle=orthogonalEdgeStyle;rounded=0;orthogonalLoop=1;jettySize=auto;html=1;" parent="1" source="-VnQgaIfTIf3LVvWvXPP-24" target="-VnQgaIfTIf3LVvWvXPP-34" edge="1"><mxGeometry relative="1" as="geometry"/></mxCell><mxCell id="-VnQgaIfTIf3LVvWvXPP-24" value="Validate Account" style="rounded=1;whiteSpace=wrap;html=1;" parent="1" vertex="1"><mxGeometry x="668" y="751" width="173" height="40" as="geometry"/></mxCell><mxCell id="-VnQgaIfTIf3LVvWvXPP-27" value="" style="shape=image;verticalLabelPosition=bottom;labelBackgroundColor=default;verticalAlign=top;aspect=fixed;imageAspect=0;image=https://upload.wikimedia.org/wikipedia/commons/thumb/5/50/Yes_Check_Circle.svg/768px-Yes_Check_Circle.svg.png;" parent="1" vertex="1"><mxGeometry x="824" y="775" width="29" height="29" as="geometry"/></mxCell><mxCell id="-VnQgaIfTIf3LVvWvXPP-29" value="" style="shape=image;verticalLabelPosition=bottom;labelBackgroundColor=default;verticalAlign=top;aspect=fixed;imageAspect=0;image=https://upload.wikimedia.org/wikipedia/commons/thumb/e/e4/Keyboard-icon_Wikipedians.svg/1280px-Keyboard-icon_Wikipedians.svg.png;clipPath=inset(22% 11% 19.5% 9.67%);" parent="1" vertex="1"><mxGeometry x="812.52" y="703" width="58.99" height="29" as="geometry"/></mxCell><mxCell id="-VnQgaIfTIf3LVvWvXPP-38" style="edgeStyle=orthogonalEdgeStyle;rounded=0;orthogonalLoop=1;jettySize=auto;html=1;entryX=0.5;entryY=0;entryDx=0;entryDy=0;" parent="1" source="-VnQgaIfTIf3LVvWvXPP-31" target="-VnQgaIfTIf3LVvWvXPP-37" edge="1"><mxGeometry relative="1" as="geometry"/></mxCell><mxCell id="-VnQgaIfTIf3LVvWvXPP-31" value="Save User" style="rounded=1;whiteSpace=wrap;html=1;" parent="1" vertex="1"><mxGeometry x="263" y="230" width="173" height="40" as="geometry"/></mxCell><mxCell id="-VnQgaIfTIf3LVvWvXPP-32" value="" style="image;html=1;image=img/lib/clip_art/computers/Database_128x128.png" parent="1" vertex="1"><mxGeometry x="252" y="252" width="26" height="26" as="geometry"/></mxCell><mxCell id="-VnQgaIfTIf3LVvWvXPP-33" style="edgeStyle=orthogonalEdgeStyle;rounded=0;orthogonalLoop=1;jettySize=auto;html=1;entryX=0.5;entryY=0;entryDx=0;entryDy=0;" parent="1" source="-VnQgaIfTIf3LVvWvXPP-4" target="-VnQgaIfTIf3LVvWvXPP-31" edge="1"><mxGeometry relative="1" as="geometry"/></mxCell><mxCell id="-VnQgaIfTIf3LVvWvXPP-40" value="Do Not Enable 2FA" style="edgeLabel;html=1;align=center;verticalAlign=middle;resizable=0;points=[];fontStyle=1;fontSize=14;" parent="-VnQgaIfTIf3LVvWvXPP-33" vertex="1" connectable="0"><mxGeometry x="-0.2111" relative="1" as="geometry"><mxPoint x="17" y="-1" as="offset"/></mxGeometry></mxCell><mxCell id="-VnQgaIfTIf3LVvWvXPP-34" value="" style="shape=image;verticalLabelPosition=bottom;labelBackgroundColor=default;verticalAlign=top;aspect=fixed;imageAspect=0;image=https://play-lh.googleusercontent.com/3C-hB-KWoyWzZjUnRsXUPu-bqB3HUHARMLjUe9OmPoHa6dQdtJNW30VrvwQ1m7Pln3A;" parent="1" vertex="1"><mxGeometry x="495" y="595.37" width="113.63" height="113.63" as="geometry"/></mxCell><mxCell id="-VnQgaIfTIf3LVvWvXPP-39" style="edgeStyle=orthogonalEdgeStyle;rounded=0;orthogonalLoop=1;jettySize=auto;html=1;entryX=0;entryY=0.5;entryDx=0;entryDy=0;exitX=0.5;exitY=1;exitDx=0;exitDy=0;" parent="1" source="-VnQgaIfTIf3LVvWvXPP-37" target="-VnQgaIfTIf3LVvWvXPP-34" edge="1"><mxGeometry relative="1" as="geometry"/></mxCell><mxCell id="-VnQgaIfTIf3LVvWvXPP-37" value="" style="shape=image;verticalLabelPosition=bottom;labelBackgroundColor=default;verticalAlign=top;aspect=fixed;imageAspect=0;image=data:image/png,iVBORw0KGgoAAAANSUhEUgAAAYAAAAFuCAYAAACIic9NAAABWWlDQ1BJQ0MgUHJvZmlsZQAAKJF1kD1LQmEUx3+Wkb1RUJBEg1sEFuZVaFWHCgzElF6I6HozC3x5uN6IIlr6Ak2tLdHaEtgUTU01BQXR3gcIXEpu52alFR04nN/z53/OczjQ4tGVyruBQtEyk1NR38Likq/9GQ8ueggS1o2yiiQScbHwVX9G9V68Endjzqz93uszr5Y6WAlMdJSWVemv/0d0rmXLhtQ3yYChTAtcfuHEtqUc3hMeMGUp4UOHc3U+cThT54sPTyoZE74R7jM29DXhJ2F/pknPNXEhv2V87uBs350tpuecOZLDJJgmjg+NEGGiTBD7xx/68McoodjBZJMcG1jSGxFFkScrPEMRg3H8wkECkppz59/3a2i7gzA5JF+tNrT0LJx7oX+8oY2Y8r6Fy2Olm/r3VV1Vd3ldC9a5qwJtR7b9Mg/to1B7sO3Xim3XTqH1Ea6q705XX3K3V53FAAAAVmVYSWZNTQAqAAAACAABh2kABAAAAAEAAAAaAAAAAAADkoYABwAAABIAAABEoAIABAAAAAEAAAGAoAMABAAAAAEAAAFuAAAAAEFTQ0lJAAAAU2NyZWVuc2hvdJXJLzsAAAHWaVRYdFhNTDpjb20uYWRvYmUueG1wAAAAAAA8eDp4bXBtZXRhIHhtbG5zOng9ImFkb2JlOm5zOm1ldGEvIiB4OnhtcHRrPSJYTVAgQ29yZSA2LjAuMCI+CiAgIDxyZGY6UkRGIHhtbG5zOnJkZj0iaHR0cDovL3d3dy53My5vcmcvMTk5OS8wMi8yMi1yZGYtc3ludGF4LW5zIyI+CiAgICAgIDxyZGY6RGVzY3JpcHRpb24gcmRmOmFib3V0PSIiCiAgICAgICAgICAgIHhtbG5zOmV4aWY9Imh0dHA6Ly9ucy5hZG9iZS5jb20vZXhpZi8xLjAvIj4KICAgICAgICAgPGV4aWY6UGl4ZWxZRGltZW5zaW9uPjM2NjwvZXhpZjpQaXhlbFlEaW1lbnNpb24+CiAgICAgICAgIDxleGlmOlBpeGVsWERpbWVuc2lvbj4zODQ8L2V4aWY6UGl4ZWxYRGltZW5zaW9uPgogICAgICAgICA8ZXhpZjpVc2VyQ29tbWVudD5TY3JlZW5zaG90PC9leGlmOlVzZXJDb21tZW50PgogICAgICA8L3JkZjpEZXNjcmlwdGlvbj4KICAgPC9yZGY6UkRGPgo8L3g6eG1wbWV0YT4KgADsxwAAL9xJREFUeAHtnQmcFMXZ/589uEGQRZBwC3iBeF94Hwl4RIyiRqO+Xq9o8FXwRKP/EDUxHngg8TYxqHi8xigmHvgX7wMQUFzixS2wotznArs77/xq7XFmdndmhd3u3p5vfT6z3V1V3VX1rdnn1/VUdU/e8uXLY5YlxGJZs2S5AskQgAAEIOAngby8vKzFFWbKUZ3hry4u0zVIgwAEIAABfwgkG33PVifHpdeiWgHwTvQyJx8n73vp6dva5Ek/h2MIQAACEKiZQCZDXt1ZXn7PHnvHyXmrCICXWZm8fW29/eT45AuxDwEIQAAC9Ucg2QZXV4oMvJcn2dh7+0rz9r3zUwTAOzl5q319mjZtak2aNLFGjRpZfn6+dz5bCEAAAhAIAYGKigrbvHmzbdy40UpLS52xTzb42pctT4nzJoGTjb7a4hl+GfyWLVtaYWGKVoSguVQBAhCAAASqI1BWVmZr1651giCD7xn99K27la/O+EtNdMffpk0bjH91hImDAAQgEFICumGX7ZYNly2vzsar6lV8OcqoE3Tnv80224S0eVQLAhCAAASyEZANly1PFoHkc/KTlUH73qdVq1bJ+diHAAQgAIEGSEC23LPr3lbN0H7KCMBL1IQvPv8G2NNUGQIQgEAaAdly2XTPvicnJ+YAvERt5TciQAACEIBANAjIpifbeO0rJEYAXoTn/49Gs2kFBCAAAQh48wAi4dl67ScEIDmhoKBAhwQIQAACEIgAAc+mJxt/NatQEV5k8n4E2kwTIAABCEDgBwLJ9t2z+YkRgBfhbaEGAQhAAALRIeDZdm+rliUEIDrNpCUQgAAEIFAbAikCkKwMtTmZPBCAAAQg0HAIpNv4FAFoOM2gphCAAAQgsLUEqghAukJsbQGcDwEIQAACwROozrY7AaguIfjqUgMIQAACEKgPAp7NrzICqI/CuCYEIAABCISPAAIQvj6hRhCAAAR8IYAA+IKZQiAAAQiEjwACEL4+oUYQgAAEfCGAAPiCmUIgAAEIhI8AAhC+PqFGEIAABHwhgAD4gplCIAABCISPAAIQvj6hRhCAAAR8IYAA+IKZQiAAAQiEjwACEL4+oUYQgAAEfCGAAPiCmUIgAAEIhI8AAhC+PqFGEIAABHwhgAD4gplCIAABCISPAAIQvj6hRhCAAAR8IYAA+IKZQiAAAQiEjwACEL4+oUYQgAAEfCGAAPiCmUIgAAEIhI8AAhC+PqFGEIAABHwhgAD4gplCIAABCISPAAIQvj6hRhCAAAR8IYAA+IKZQiAAAQiEjwACEL4+oUYQgAAEfCGAAPiCmUIgAAEIhI8AAhC+PqFGEIAABHwhgAD4gplCIAABCISPAAIQvj6hRhCAAAR8IYAA+IKZQiAAAQiEjwACEL4+oUYQgAAEfCGAAPiCmUIgAAEIhI8AAhC+PqFGEIAABHwhgAD4gplCIAABCISPAAIQvj6hRhCAAAR8IVDoSykUAoE0Ahs3brRYLJaIbdq0aWK/Iex8//33tmLFikRVu3fvbo0bN04cswOBhkAAAWgIvRSxOi5btsyOOOKIlFbNmDEj5TjsBzfccIN98MEHiWqOHz/eJAIECDQkAriAGlJvRaSumzdvbvAtSR69NPjG0ICcJYAA5GzX03AIQCDXCeACyvVvAO3fIgKnnXZaihurQ4cOW3QdToJAkAQQgCDpU3adEVi+fLl9++23tnbtWuvatavJIOfl5dXq+ps2bbI5c+aYXFM77bRTrSZzjzzyyFpdOz2TJo/nzZtnnTp1so4dO9a6junX4RgCdUEAAagLilwjMAKaiH3ooYds2rRpKXVo0aKFyUhfeeWVtu2226akeQerV6+2m2++2V599VUvym2POuoo+8Mf/mAXXXSRFRcXu7gdd9zRnnvuuUS+4cOH2xtvvJE4Tp4EfuCBB+y+++5LpL322ms2adIkV8+FCxcm4lXH66+/3o477rhEHDsQ8JMAAuAnbcqqUwITJ060YcOGVXvNdevW2UsvvWTKc+utt9qhhx6akm/BggV2/vnn25IlS1LidSDDrrv02bNnJ9LKy8sT+9pZv359ynGmg1GjRtmECROqZFEdr732WtP21FNPrZJOBATqmwCTwPVNmOvXC4F33nmnRuOfXKCM6yWXXGLJd95Kl1FON/5t27Y1fRSSjb+L2Io/ycbfu37y5TRaSBeY5HT2IVBfBBCA+iLLdeuNgJ4jkFFPDv3797cXX3zRpkyZYo888oibA0hOHzlyZOLBs+nTp9ubb76ZnGxKf+utt9xn9OjRKWl1cXDOOefYhx9+6K5/0003pVxS8xf6ECDgNwEEwG/ilLfVBF555ZWUa3Tr1s3GjBljPXr0sCZNmth+++1njz76aEqeyZMn29y5c13c1KlTU9IGDBhgJ510UiLu8MMPtyFDhiSOt3anX79+dtlll5l8/gqDBg0y1Tk5rFq1KvmQfQj4QgAB8AUzhdQlgU8++STlcueee64VFqZOZ2klkAx7ctBKH4V0d1B6PuX5xS9+oU2dhIMPPtgKCgpSrpX+1PBPmVNIuRAHENgKAgjAVsDj1GAIaCllcpCxry707NkzJXrWrFnuWBO8yaFNmzbJh25/u+22qxK3pRFFRUVVTk1/91FFRUWVPERAoL4JIAD1TZjrh4ZAfn7l1z19tKDnANJDaWlpetQWH6cbe10ofUSwxRfnRAhsBQEEYCvgcWowBNq3b59S8DfffJNy7B2kr+Tp1auXS+rcubOXxW29uYHkyK+++ir5cKv2a/tA2lYVwskQ2AICCMAWQOOUYAn06dMnpQJ//etfqyyj1Dp/PYCVHDwBSPe/P/bYY5Z8x68RgR7mIkAg6gRSZ86i3lraF1oCMsLZwj777GN9+/a1gQMH2p133pnIPn/+fBs6dKiNGDHCvV5Br5a+7rrrEuna0YNg3lyBnrxNPl/PA5x55pl2wQUXuHPGjh2beAI45SIcQCBiBBCAiHVoQ21OskGuqQ1XXXWVE4Dtt9/eLrzwQvdqBS+vXglxwgkneIdVtnp/vxc0wSuD/8QTT3hRJpfP1VdfnThmBwK5QAAXUC70cgTbePHFF7v19Nmapidv9a6g9Ld1XnHFFTZ48OAaT09/0IxJ2xpRkdCACTACaMCdl2tVb9SoUaLJMsh6olYvbnv88cfdE8CJxPiOHrrSWv7LL7/cWrdunZzk9nW+RgV6SOv999+39957zz1EpjX7xx9/vPXu3ds9XOadWN1KHi9N2+S6pa8ySs5X0z4CUxMZ4uuTQN7SpUtjWoOsXzjS+0j0SV8lUZ8V4NoQqAsCK1eutMWLF7vXQXfp0sXkJqpp9Y2eI5g5c6bLo5GBngNIz6tnBpKfDpYwJL/hsy7qzDUg4CcBPQCpGw199H3XsmhGAH72AGXVGwEZ8eoe6KquQPn7L7300pQkvT9Ir5DwQvoKovSHyrx8bCHQkAkgAA2596j7FhHYeeedq5ynd/XoLr958+amVUTpzxBs6Q/AVCmICAiEiAACEKLOoCr+ENCrGc466yw3d+CVqNdGp9/1e2nHHnus7bnnnt4hWwhEhgACEJmupCE/hYB+0UuTw+PGjcv4KubTTz/dPWPwU65NXgg0FAJMAjeUnqKe9UKgrKzM9KrokpISW7FihelYv9Wrj/z+1b3IrV4qwkUhUM8EmASuZ8BcvuER0JJN/ZgMAQK5SIAHwXKx12kzBCAAgTgBBICvAQQgAIEcJYAA5GjH02wIQAACCADfAQhAAAI5SgAByNGOp9kQgAAEEAC+AxCAAARylAACkKMdT7MhAAEIIAB8ByAAAQjkKAEEIEc7nmZDAAIQQAD4DkAAAhDIUQIIQI52PM2GAAQggADwHYAABCCQowQQgBzteJoNAQhAAAHgOwABCEAgRwkgADna8TQbAhCAAALAdwACEIBAjhJAAHK042k2BCAAAQSA7wAEIACBHCWAAORox9NsCEAAAggA3wEIQAACOUoAAcjRjqfZEIAABBAAvgMQgAAEcpQAApCjHU+zIQABCCAAfAcgAAEI5CiBQr/b/Ze//MWmTZuWsdjDDjvMzj777Ix56irRq8+YMWOsWbNmNmTIEOvevbtde+21dVUE14EABCAQSgK+C8DcuXNtyZIl1rhxY8vPr34AsmnTJt9gLV682NWnrKzMlblo0SLLy8vzrXwKggAEIBAUAd8FwGvo3XffbV27dvUOA9sOHz7cVq9ebS1atAisDhQMAQhAIAgCgQlAbRq7du1amzp1qvXp08dKS0vt448/No0O9t57b+vZs6eLmzJlimlUceCBB1rv3r2rXPaLL76wWbNmWUlJiTPye+yxh+26666JfN99950tW7bMevTokYhjBwIQgEAuEAi1AMho33777c7Yz549O9EfY8eOtaFDh9pzzz3n3DdKePbZZ50RHz16tHPhyKUzYsQIkwAkh3HjxtkJJ5xgF154oYt+8skn7dNPPzUJQ6tWrZKzsg8BCEAg0gQCE4AXXnjB2rdvXy3cX/7ylykuGRn/AQMG2ODBg23SpEn2yCOPmCZv27VrZ9dff7117tzZbrjhBjcSmDlzpvXt29cmTpzojL9GBXLztG3b1o0g7rjjDhs/frydddZZbtK32goQCQEIQCAHCAQmABMmTKgRr1YBJfvkZegvueQSd2d/4oknmkYAcgXJiB9wwAHuOsccc4yL16hBAlBQUGD777+/nXfeedapUyeX5/DDD7eXXnrJvvzyS1u5ciUCUGMPkAABCOQCgcAEQHflHTt2rJaxDH5y0LLM5JU5GjksXLjQGXgvX+vWrd1ueXm52x511FF2xBFH2PTp0+3999+3BQsWuLkAnafgrfpxB/yBAAQgkIMEAhMAuWZquwpI7pvk4C0fbdmyZSI6WSAUKUN/xRVX2Lp161wejQhUpq61fPnyxHnsQAACEMhVAoEJwE8Bnm7ca3OufP0y/oMGDbLjjz8+MdoYNmyYE4BYLFaby5AHAhCAQGQJNAgB2BL6WhqqoHmCpk2bun3ND3jxnqvIJfAHAhCAQA4SCEwARo0aVeMkrPz5W/sqhi5duti8efPslltusaOPPtr0xO/zzz9vnuHXw18ECEAAArlMIDABSF7Xn94B3h17erx37M0BeMfVba+++mp78MEH3YNkephMQQ+L7b777vbAAw/Y5MmT3f6WuJeqK484CEAAAg2NQN7SpUtjFRUVJp+47o710br6qAQ9Qax3D2kpaGFhYHoXFZy0AwIQaKAEtDBGi2H00Y2vbqQjbxE1mujWrVsD7TKqDQEIQKD+CFT/Os76K48rQwACEIBASAggACHpCKoBAQhAwG8CCIDfxCkPAhCAQEgIIAAh6QiqAQEIQMBvAgiA38QpDwIQgEBICCAAIekIqgEBCEDAbwIIgN/EKQ8CEIBASAggACHpCKoBAQhAwG8CCIDfxCkPAhCAQEgI+P4ksF47MX/+fPdD7PpVLwIEIACBXCfQuHFjKyoqcm8tqM27zuqKl68CIONfXFzsfnxdP9uY7aVvddVIrgMBCEAgzAT0zjK9rl72UbbRLxHw1QWkO/9WrVpZjx49MP5h/jZSNwhAwFcCuhmWXZR9lJ30K/gqAMuWLUv8MpdfDaQcCEAAAg2FgH4nXXbSr+CrAMjnj9vHr66lHAhAoKERkH30c27UVwFoaJ1BfSEAAQhEmQACEOXepW0QgAAEMhBAADLAIQkCEIBAlAkgAFHuXdoGAQhAIAMBBCADHJIgAAEIRJkAAhDl3qVtEIAABDIQQAAywCEJAhCAQJQJIABR7l3aBgEIQCADAQQgAxySIAABCESZAAIQ5d6lbRCAAAQyEEAAMsAhCQIQgECUCSAAUe5d2gYBCEAgAwEEIAMckiAAAQhEmQACEOXepW0QgAAEMhBAADLAIQkCEIBAlAkgAFHuXdoGAQhAIAMBBCADHJIgAAEIRJkAAhDl3qVtEIAABDIQQAAywCEJAhCAQJQJIABR7l3aBgEIQCADAQQgAxySIAABCESZAAIQ5d6lbRCAAAQyEEAAMsAhCQIQgECUCSAAUe5d2gYBCEAgAwEEIAMckiAAAQhEmQACEOXepW0QgAAEMhBAADLAIQkCEIBAlAkgAFHuXdoGAQhAIAMBBCADHJIgAAEIRJkAAhDl3qVtEIAABDIQQAAywCEJAhCAQJQJIABR7l3aBgEIQCADAQQgAxySIAABCESZAAIQ5d6lbRCAAAQyEEAAMsAhCQIQgECUCSAAUe5d2gYBCEAgAwFfBaBx48ZWWlqaoTokQQACEMhdArKPspN+BV8FoKioyEpKSvxqG+VAAAIQaFAEZB9lJ/0KvgpAt27dbM2aNTZ37lxGAn71MOVAAAKhJ6A7f9lF2UfZSb9CoV8FqZz8/Hzr27evzZ8/34qLi23Tpk1+Fk9ZEIAABEJJQG4f3fnLPspO+hV8FQA1So3r0aOH+/jVSMqBAAQgAIGqBPyTmqplEwMBCEAAAgESQAAChE/REIAABIIkgAAESZ+yIQABCARIAAEIED5FQwACEAiSAAIQJH3KhgAEIBAgAQQgQPgUDQEIQCBIAghAkPQpGwIQgECABBCAAOFTNAQgAIEgCSAAQdKnbAhAAAIBEkAAAoRP0RCAAASCJIAABEmfsiEAAQgESAABCBA+RUMAAhAIkgACECR9yoYABCAQIAEEIED4FA0BCEAgSAIIQJD0KRsCEIBAgAQQgADhUzQEIACBIAkgAEHSp2wIQAACARJAAAKET9EQgAAEgiTg+09C3n333fbZZ5+ltLmwsNBatmxpvXv3tmOPPda6du2akp5rB0888YS9+eabdvvtt1vbtm1zrfm0FwIQ8ImA7wKgX75fsmSJ6UeQvR8/rqiosEWLFtmXX35p//rXv+yOO+6wnXfe2ScE4Svmm2++cYzKysrCVzlqBAEIRIaA7wLgkbv//vutQ4cO3qFt2rTJRo8ebW+99ZZplPDAAw8k0tiBAAQgAIG6JxCYAKQ3RSOCSy65xAnAwoULTXe/cg0plJSU2MyZM013xgo77rij9e/f3/Ly8tyx/qxcudI+/PBDW7x4sRUVFbk8u+66ayJdOwsWLLCpU6fa8uXLrVOnTrbbbru5rdKmT59uq1evtoMPPtgKCgoUZUuXLnXldunSxXbYYQcXpz8ff/yxadSy3377uTiVPWnSJFO9JWq777676RwvrFmzxqZNm2Z9+vSxzz//3NVD9e/Ro4fLotHPRx995Pa9a3rnsoUABCBQXwRCIwBq4Nq1a6u0829/+5v94x//qBKveYIxY8Y4N9K8efPssssus/Ly8pR8hxxyiF1zzTUu7rXXXrN77703JV0HQ4cOtWOOOcYmTJhg7777rhOPvn37unwvvvii/fOf/3RzE3fddZeL27Bhg40cOdLFyVi/8847NmrUqCpln3baaXbWWWe5c2Tg5c+X6Ghf4fXXX7fHHnvMHnzwQXvppZdcnP6ovU2bNk0cswMBCECgvgiEZhWQXEAyiAqdO3d2d/+aK5Dxl0G87bbb7LnnnrObbrrJTYx6d/PKr/Nk/IcPH+7ySBg0eSqDPmfOHGVxhlZ39ppfeP75550RV/zDDz/szpVYKEyePNltk/e//vprNyJR3JQpU1z6YYcd5oy56qUwYsQIJxZ33nmntWnTxp555pmUaymPjP+hhx5qQ4YMsQsuuMDVT8Zf7X300Uft6aefdumlpaXKToAABCBQrwQCGwFcccUV1qhRI9e4zZs3OxeO19JLL73U7a5YscJkmA866CDz3Dl77rmnDRw40MaNG+dcNMooF4xCq1atnFh0797dbrjhBudqkTGWO0kCIyHRaiO5m/bZZx+7/vrrXZrcOXvvvbe7hlw55513nhuNyGBLNCQuct3IZfT++++7fHIVvfzyy27/7LPPdq4jHcg99bvf/c6uuuoqV8dkl45ESfGe60r5FLT15kPERW6qdevWuTT+QAACEKgvAoEJwPr16xMCoNVAvXr1sm7dutkZZ5yRMIZaCaSP7sDHjx/vDLpWEc2aNcvx8FbJyIUj986NN97ojLyMrgy07rY9kZGIyHhfdNFF1q5dOzvwwANdHvnlvSDXT3Fxscln/8knn7jo008/3bQsU35/pWsE0LFjR3cN5VU44IAD3Nb7s8suuziR0ZxAclAbPeOveI1OJErJ8wUSnL322suNDpLPZR8CEIBAXRMITADSVwFV17CNGzc614oEwAtyl+gOf/bs2V6UDRgwwFq0aOHcRcorv7w+uuO+9dZbncHWXMCzzz7rfO9yLcn1ok+/fv2cO0ijArl1ZNR1By6Dr3DiiSfaU0895eJk6DWSUD4F7StoVJEemjRpYhK55LDddtslHzqh0QglPbRu3To9imMIQAACdU4gNHMA1bVMfnQZdLl/7rnnHjcK0PJQuW8U5LpRkAtJd92aqNU8wXXXXedEQqt95O9XkF9dD5nJ1z527Fg3+SvRmDFjRsLYa1SgIDeQREB37LpDl0hoonnixIku3Zsv0EhA4bvvvnNb749cRhpFJN/ZKy357l/HOl/5YrGYDhNBq48IEIAABOqbQKgFQA+GKZxyyinWs2dPt+JHd926u1eQoZXxlJtGfnsZUxlsLbE899xzXR4ZU7liTj31VDeaUKRGBnIb/fznP3d5li1b5ra6G9cIQ5PHuta+++7r4j0//iuvvOLmGeSqUpDoKHgi4w7if5RPQU82Zwo6X23whEV5Va430ZzpXNIgAAEIbC2BwFxAtam4jP6nn35qDz30kJvolfH/97//7Z4L0PmrVq1yd9XnnHOOe3DsyiuvdEZdcwPeBK3mAWTUZcS1wkeTwxIIiYKeOlbw7vy1r/yaYFbwJoY14tByTQXP/aN9jSjkVpJgqG6aZ9CIRa4luZQGDx6sbDUGTR6/9957buSi5xfat2/v3E0SBQIEIACB+iYQmAB4r4HI1EBNCMuN88EHHzgXkPJq/f/NN9/sVvDIVaM7fRlizQm8/fbbbkmo8mkyVUstjzjiCB26yV+5iuTy0UNfClo1JHeRJoW9oMljCYDO32mnnVy0XDVyF2lljuf+UYIeVJNrSktBVRd9FPSAl1b7aN1/ckh3AancP//5z+45Arm7FDQ68cQq+Vz2IQABCNQ1gby4iyQmX7pcKbrz1Ed3zGEKqpvW/esOuVmzZjVWTfnmz59vzZs3d3mry6g7deXZfvvtnQBUl2dL4jRhrSeWJRaaAP6pQUtZVTe1kQABCECgrgnI66EbW310M6qb8AYhAHUNgutBAAIQyDUC1QlAqCeBc62DaC8EIAABPwkgAH7SpiwIQAACISKAAISoM6gKBCAAAT8JIAB+0qYsCEAAAiEigACEqDOoCgQgAAE/CSAAftKmLAhAAAIhIoAAhKgzqAoEIAABPwkgAH7SpiwIQAACISKAAISoM6gKBCAAAT8J+P4uIL12Qq9i0Bs49eoDAgQgAIFcJ6CXRxYVFbkfxarNe9LqipevAiDjrx9c0UvY9OtaenUzAQIQgECuE9DvlehdYrKPso1+iYCvLiDd+cv4622ZGP9c/8rTfghAwCMgeyi7KPsoO+lX8FUA5PbxfkXLrwZSDgQgAIGGQkD20fuBKj/q7KsAyOfPnb8f3UoZEIBAQyQg++jn3KivAtAQO4Q6QwACEIgqAQQgqj1LuyAAAQhkIYAAZAFEMgQgAIGoEkAAotqztAsCEIBAFgIIQBZAJEMAAhCIKgEEIKo9S7sgAAEIZCGAAGQBRDIEIACBqBJAAKLas7QLAhCAQBYCCEAWQCRDAAIQiCoBBCCqPUu7IAABCGQhgABkAUQyBCAAgagSQACi2rO0CwIQgEAWAghAFkAkQwACEIgqAQQgqj1LuyAAAQhkIYAAZAFEMgQgAIGoEkAAotqztAsCEIBAFgIIQBZAJEMAAhCIKgEEIKo9S7sgAAEIZCGAAGQBRDIEIACBqBJAAKLas7QLAhCAQBYCCEAWQCRDAAIQiCoBBCCqPUu7IAABCGQhgABkAUQyBCAAgagSQACi2rO0CwIQgEAWAghAFkAkQwACEIgqAQQgqj1LuyAAAQhkIYAAZAFEMgQgAIGoEkAAotqztAsCEIBAFgIIQBZAJEMAAhCIKgEEIKo9S7sgAAEIZCGAAGQBRDIEIACBqBJAAKLas7QLAhCAQBYCCEAWQCRDAAIQiCoBBCCqPUu7IAABCGQhgABkAUQyBCAAgagSQACi2rO0CwIQgEAWAr4KQOPGja20tDRLlUiGAAQgkJsEZB9lJ/0KvgpAUVGRlZSU+NU2yoEABCDQoAjIPspO+hV8FYBu3brZmjVrbO7cuYwE/OphyoEABEJPQHf+souyj7KTfoVCvwpSOfn5+da3b1+bP3++FRcX26ZNm/wsnrIgAAEIhJKA3D6685d9lJ30K/gqAGqUGtejRw/38auRlAMBCEAAAlUJ+Cc1VcsmBgIQgAAEAiSAAAQIn6IhAAEIBEkAAQiSPmVDAAIQCJAAAhAgfIqGAAQgECQBBCBI+pQNAQhAIEACCECA8CkaAhCAQJAEEIAg6VM2BCAAgQAJIAABwqdoCEAAAkESQACCpE/ZEIAABAIkgAAECJ+iIQABCARJAAEIkj5lQwACEAiQAAIQIHyKhgAEIBAkAQQgSPqUDQEIQCBAAghAgPApGgIQgECQBBCAIOlTNgQgAIEACfj+ewAb4r8Bc/eLFfbqtAr7bmWALadoCEAAAiEg0L6N2cC98m3YoHxr5t/PAbuW+yoAMv5n3VluM+fHQoCdKkAAAhAInoBuhMdOrLCps2P2+OUFvoqAry4g3flj/IP/wlEDCEAgfARkG2Uj/Qy+CoDcPgQIQAACEKiegN820lcBwOdffacTCwEIQEAE/LaRvgoAXQwBCEAAAuEhgACEpy+oCQQgAAFfCSAAvuKmMAhAAALhIYAAhKcvqAkEIAABXwkgAL7ipjAIQAAC4SGAAISnL6gJBCAAAV8JIAC+4qYwCEAAAuEhgACEpy+oCQQgAAFfCSAAvuKmMAhAAALhIYAAhKcvqEkWAifsn2dT7y60UecXZMlZd8l796os884L/Cuz7mrPlSCQmQACkJkPqSEi8LO2eda8iVnHtv5VqmVTc2V28rFM/1pHSblOwNfXQec6bNrf8Ah89GXMhvyl3BYta3h1p8YQyEYAAchGiPQGS+Dkg/LtoF3yrEkjs+nxd60/8VaFlcZ/kyI5aERxcv98O7hPnv1nQcy9l13HS1fH7IWPYrZNc7N+3fNsc1nMZpeYdYj/eMcpB+fbOzNjVhgfP8st1aFNnk35OmZ/f6PCynnhbTJe9kNOAAEIeQdRvZ9OQEb75d8XWtE2P557ZL88G3pcvl1wb7lNnVX5g0R9uubZsyMKLD+vMt+hcRE456h8axr/VabvV1lcAMpsly6V582YG7MPvyi3vt0qj087xKxd0vUP363y3ENHlP1YKHsQCDkB5gBC3kFU76cTeGxYgTP+C5fG7Pgby+3ga8rs3fgduwz7/b+tNPgaFejXl2T8n3qnwvYdXmbX/K3cGtXylkjG/4uFMbvkgXK77KFyKys32651fDQRH3UQINBQCPBtbSg9RT1rRUBGXnftcsWc9KfyuNsmZstWm104ptzd1bdqVum2OaxvnjWLu3++WhSzG5+qsLWlZuMnx2zMv2rnw9mw0exXfyy3Nz6N2YTpsfhvXP8wquhSq2qSCQKhIIAAhKIbqERdEZAbR+Gb72O2ZkPqVd/9T6Vx79cjz/rH5wYU3v1P6u9Tj3u7dgKweHnqeSpPoVmTH/xJ7og/EAg3gVoOeMPdCGoHAY+ARgAK6+N36OlhxdrKmJZN82zblpX7upNPDmvTRCM5LXk/XVzKaqcbyZdgHwKBE2AEEHgXUIG6JPDVosqrFW1T9U68R4fKuGnxFUFzvq28Y++5fWo+uY8IEMgVAghArvR0jrRTPv2KuG3Xck25eryg5Z6ee+jt4gq3xFNpR++RZ21/GA3o+KYz+ZcQB0JuEMAFlBv9HKlW9o0v33zzT1W/uvPjfvhz7iq3xydW2H/Fl3OOu7LAxk+qnOA96cB8K4y/zUFLQEuWW/wTs0lfxWz/HfPsrVsK7T/fxKzrdj+6hiIFjMZAoAYCVf+LashINATCQkBLNbfftmptmv8wAfvn5yosL37zf+YR+faruOFX0DJNPbw1JL4ayAsSi9vPK7Cj4s8I7B4fLWg+4On4ktBfH5pvGzdXuogqaunbL//hshWxyvO8MthCIMwE8pYuXRqriH/LY/Evbnn8W6xP586d66XOu1zMQzL1ApaL1khg58557s6/eH6qYdbd/m8Oz7NXpsbskzk/ph2zT57dGX/Z3OfxEYGWkRIg4DeBz++vn/vyhQsXWkFBgfvkxe+Q8vPzDYen371Leb4S0MNa6cZfFdAo4uwj8+3vwwusS7vKuYLO8e3I0yvf+vlW8Y+i4GuFKQwCPhKoH6nxsQEUBYEtIaAHxOYuiZlWBk24qcC5iDRHoDBjXsxGj6+l76fyFP5CoEESQAAaZLdR6bogcOzIcjsk/uDYSfGXv/XtanFBiD8YFp8neDL+0jgCBHKBAAKQC71MG2skIIP/7kx8/TUCIiHSBJgDiHT30jgIQAACNRNAAGpmQwoEIACBSBNAACLdvTQOAhCAQM0EEICa2ZACAQhAINIEEIBIdy+NgwAEIFAzAQSgZjakQAACEIg0AQQg0t1L4yAAAQjUTMBXAWgff0UvAQIQgAAEqifgt430VQAG7uVrcdUTJhYCEIBASAn4bSN9tcjDBuVbn24//khHSPuAakEAAhDwnYBso2ykn8HX0prFf6/18csL3FsY/R7q+AmVsiAAAQjUloBsod5MK9soG+ln8PX3APxsGGVBAAIQgMCPBPg9gB9ZsAcBCEAg5wn46gLKedoAgAAEIBAiArwOOkSdkYtVefuFz+yfD31UpekFBfnWqk0z675LBxv82/7WMr5fH+GDlz+3Z8e8Zxf+YaDtum+XWhexeO5yqyivsM692tX6HDJCIGwEGAGErUdyrD4rl663L6YutFVL18V/qzQ/8VmycKV9NOFLe/qed+yyYx+2Zd+uqRcyq5ZXlr9udWmtr//Ju3PsvAPusYVzltX6HDJCIIwEGAGEsVdysE6/ufJwO/rUPVJarrvsMdf8y6a9Pdve/McMGzz0oJT0ujg49IQ+1mf/rrbdz1rX+nLfL1pV67xkhECYCSAAYe6dHK/bz3q0tVP/52AnANPjd93JAlBeVmEzPphncz9fYk2aFlrv3TvZjnv8rAqxtatKXb7Fc5fF0ztZ734dbcaH861r73bWsXtbU3rJvBW27XYtE+euWbnBpr45y5YsWGnbtm9pO/TZ3nrFz1NY8PX3Nqv4W7f/5bRF1qJlE9utf3d3XJs6TXnja2vfuXXcfRRz7dp57862S/yTHx/9ECDgNwEEwG/ilPeTCHiunxbbNE2cp7g//fezNnPygkScdgacsZf9z23HW2Gjyl93n/7OHLv2lL+n5JHBlcvpt3861k44f39nhO+5YrzdNO5M2/eo3rZw1lL7nwEP2Ya1G1POG3TB/nbxH4+1d14othcfrpyzeOqut+31Z6bbE9OvcC6q2tTphjOecGIya0ZJ4vrPfnGNbbNt88QxOxDwiwAC4BdpyslIYOGsZc4we5lWxucEZheX2OO3vemifn7aj+4huYVk/E8acqD9Mm7EW2zTxB4eOcFeGzfNeu3W0X553n72XXwO4cZzn7Y27VrYyLFnWM/dtrcPXvnCbrnwf70iqt0+c+97zvjf8Ndf2z5H9jK5e/4YF5sXH5lkx52zrxuRtC5qYX+59t824oHBTjR0odrUyStQxn/vI3rZL369h61bvRHj74Fh6zsBBMB35BRYHQFN9uqTHjp229YuvHFgwtDKBfPhq1+Y4v975ADLy698tchv/3iMvf70dHty1FtOACZN+MoZ8svvGmS661c4bFBfmxN33zwz+t30YhLHq5atc/stWje1Js0auVU+19x3smk+onXb5ta4aSNr2ryRy9O0ReO4+DR1bqHa1ClRSHznmvtPxvAnA2E/EAIIQCDYKTSdgNw3ux3YzTZvKrfij+bbG//7qTWL+9dvfvos67RDUSL7otk/rry5O+66SQ8aOWxYt8lmfVbpYul7QLeULHseukNGATjqlN1t8utf2YiTH7N2P9vGDjpuV9vv6B1tv5/vmHAtpVwwflDbOjWLC4aCrovLx6HgT8AEEICAO4DiKwnI+HurgI45c2/rvnN7e/Sm1+3/nfmk3fPKhdYyfkeuIAOvICP/1SeL3L73p8euHdzuuvjErrdSR3fxyUGikilolNA8nuffj01xy1Dl79dH177xyd9Uu1qotnXyBKBDZ96LnqkPSPOPAALgH2tK+gkEtOLns/hIQHfjoy79p/3+76e7s73lmvKhXzXmpJQrro2v3pFbRpPAWkGk5aNLvlnpjLeX8dsFK7zdardlm8vdJO3Ix8+wjRs2W/GkBfaP+95313p57FT7rxFHVjmvtnWqciIREAiYAGvPAu4Aiq+eQF5e/NW4o05wbiD5199+sdhl7LFLe7eVi0hLOL0gH/3gnf5s5+x3d9yNVOYmWZX2/IMfWiwWc9k2bSyLG/MPvFOqbGMVMXf+eQeMdtfW6GHvw3vaGZcf5vIuX1L5MJq3ZHNzaZmLr22dqhRIBAQCJsAIIOAOoPiaCbTt0MouvvkYu3PYC3b35eNtr8N6WlHHbey0Sw9xfvwL+o+24+Mrc7aJT86++Ogkd6FhowZZo8aFdsCAnaxffH2+Joa/j68I2ik+EfxhfBXQgq++r7FATSif97uj7bahz9vIs8fZkYP7WfnmCnv58Y/dObqmgrck9Zl737WFs5fa6cMPq1Wd3Mn8gUCICCAAIeqMXKxK/g+reGpqu5Z//v9nP3EPcz32pzfcOv+zrznSzQlojuCJO95yp/bZr6udfFF/t3RTERpB3PzUmfbYLRNt0utf2if3vOsmcn/x6z3tkRsnuBU+ypde/uG/2s3mffGdTXhquo2+8iVlcaOQ4fHVRAcO3Nkd735Qd7eySM8TaEnnoAsOsNrUyZ0c/+OtXPKO2UIgKAL8HkBQ5Cl3qwnIZfP94lXxZZmN3Sgg+YJaLiq30G7xVUDeHbvSx8dHCvdd97KbU/AMevJ53r7cRlrdo0njou1bedEpWy0Z1bJQb3JXiZnqlHIyBxDwmUB1vwfACMDnTqC4HwkMi7/kTXfRdR1eXfKH+BO9y+zGc54yrSi6OP7Ub+MmhbYo/vK2v8VHEQo771X5bMDADr+v6+J/0vX0HqJR48//SeeQGQJ1RYARQF2R5DqhIlC6fpMNP+4Rm/ufJa5eWnu/dPFqt68VRZnu/kPVECoDgToiUN0IAAGoI7hcJnwE9HK2rz9d7JZwlsxfYTvt2ck9bNZtp8qVROGrMTWCQP0RqE4AcAHVH2+uHDCBgsJ8N1nrvQoi4OpQPARCR4DnAELXJVQIAhCAgD8EEAB/OFMKBCAAgdARQABC1yVUCAIQgIA/BBAAfzhTCgQgAIHQEUAAQtclVAgCEICAPwQQAH84UwoEIACB0BFAAELXJVQIAhCAgD8EEAB/OFMKBCAAgdARQABC1yVUCAIQgIA/BBAAfzhTCgQgAIHQEUAAQtclVAgCEICAPwScAOjHMwgQgAAEIJAbBDybX2UE4CXkBgZaCQEIQCA3CFRn26sIQG6goJUQgAAEIJAiAJ5ClJeXQwYCEIAABCJCwLPpno33mpUiAF7kpk2bvF22EIAABCDQwAnUZNMTAuApg7YbNmxo4M2l+hCAAAQg4BGQTU+28V58viKTE7S/fv1627x5s5eHLQQgAAEINFACsuWy6dXZ+sQIQG1LFoKVK1c20OZSbQhAAAIQ8AjIlifbdi9e24QAeBny8/Nd5o0bN9qyZcuS87IPAQhAAAINiIBsuGy57Ltsu4Jn67XvfhTei/C2yhiLxdywQbPHbdq0scaNGys/AQIQgAAEQk5Ak76685fxlz33buxl472PmuAEwGuLJwDaemqhC5SUlFiLFi2sefPm1qRJEysoKPBOYQsBCEAAAiEgoJt12Wv5+9etW5cw/OnGP7mqhTL2utv3jL8SkwXAO9Yssi6qvAre1h3wBwIQgAAEAiPg2W/Pdusm3dtPF4DkvCkjANXeO6mioiIxbNC+JxKe4fe2Oid5X8cECEAAAhCoXwKeIVcp3r623ifZ8Hv76TVKzAEkG3hdQCcozouXCCh4cckXUhwBAhCAAAT8I+AZfa9Ez/Dr2DP4XpyXN32bGAEowTP23ta7sLYaUqQbfwx/MiH2IQABCPhPwDPqKln73rG3n3zs5fFq+X8Xrz/UNBZItgAAAABJRU5ErkJggg==;" parent="1" vertex="1"><mxGeometry x="291.05" y="445.29" width="116.91" height="111.43" as="geometry"/></mxCell></root></mxGraphModel></diagram><diagram name="2fa-login-flow" id="T9akov5uM-EprfBOfFVI"><mxGraphModel dx="610" dy="618" grid="0" gridSize="10" guides="1" tooltips="1" connect="0" arrows="0" fold="1" page="0" pageScale="1" pageWidth="1100" pageHeight="850" math="0" shadow="0"><root><mxCell id="hTCJnXlIpCB_JW_4JN-e-0"/><mxCell id="hTCJnXlIpCB_JW_4JN-e-1" parent="hTCJnXlIpCB_JW_4JN-e-0"/><mxCell id="szCiNJJ50kzvFfgiILUe-5" style="edgeStyle=orthogonalEdgeStyle;rounded=0;orthogonalLoop=1;jettySize=auto;html=1;" parent="hTCJnXlIpCB_JW_4JN-e-1" source="hTCJnXlIpCB_JW_4JN-e-4" target="hTCJnXlIpCB_JW_4JN-e-37" edge="1"><mxGeometry relative="1" as="geometry"/></mxCell><mxCell id="hTCJnXlIpCB_JW_4JN-e-4" value="" style="shape=image;verticalLabelPosition=bottom;labelBackgroundColor=default;verticalAlign=top;aspect=fixed;imageAspect=0;image=https://upload.wikimedia.org/wikipedia/commons/thumb/5/50/User_icon-cp.svg/1656px-User_icon-cp.svg.png;" parent="hTCJnXlIpCB_JW_4JN-e-1" vertex="1"><mxGeometry x="531.69" y="11" width="40.25" height="50" as="geometry"/></mxCell><mxCell id="hTCJnXlIpCB_JW_4JN-e-7" value="" style="group;fontStyle=1;fontSize=13;" parent="hTCJnXlIpCB_JW_4JN-e-1" vertex="1" connectable="0"><mxGeometry x="501.82" y="278" width="100" height="100" as="geometry"/></mxCell><mxCell id="hTCJnXlIpCB_JW_4JN-e-8" value="&lt;b&gt;&lt;font style=&quot;font-size: 15px;&quot;&gt;2FA&lt;/font&gt;&lt;/b&gt;" style="strokeWidth=2;html=1;shape=mxgraph.flowchart.decision;whiteSpace=wrap;" parent="hTCJnXlIpCB_JW_4JN-e-7" vertex="1"><mxGeometry width="100" height="100" as="geometry"/></mxCell><mxCell id="hTCJnXlIpCB_JW_4JN-e-9" value="" style="shape=image;verticalLabelPosition=bottom;labelBackgroundColor=default;verticalAlign=top;aspect=fixed;imageAspect=0;image=https://cdn-icons-png.flaticon.com/512/5720/5720464.png;clipPath=inset(25.33% 3.67% 25.67% 3.67%);" parent="hTCJnXlIpCB_JW_4JN-e-7" vertex="1"><mxGeometry x="33" y="20" width="34.04" height="18" as="geometry"/></mxCell><mxCell id="hTCJnXlIpCB_JW_4JN-e-16" style="edgeStyle=orthogonalEdgeStyle;rounded=0;orthogonalLoop=1;jettySize=auto;html=1;entryX=0.509;entryY=0.05;entryDx=0;entryDy=0;entryPerimeter=0;" parent="hTCJnXlIpCB_JW_4JN-e-1" source="hTCJnXlIpCB_JW_4JN-e-8" target="hTCJnXlIpCB_JW_4JN-e-22" edge="1"><mxGeometry relative="1" as="geometry"><mxPoint x="754.5000000000002" y="230" as="targetPoint"/></mxGeometry></mxCell><mxCell id="hTCJnXlIpCB_JW_4JN-e-17" value="2FA Enabled" style="edgeLabel;html=1;align=center;verticalAlign=middle;resizable=0;points=[];fontStyle=1;fontSize=14;" parent="hTCJnXlIpCB_JW_4JN-e-16" vertex="1" connectable="0"><mxGeometry x="-0.3687" y="1" relative="1" as="geometry"><mxPoint as="offset"/></mxGeometry></mxCell><mxCell id="hTCJnXlIpCB_JW_4JN-e-21" style="edgeStyle=orthogonalEdgeStyle;rounded=0;orthogonalLoop=1;jettySize=auto;html=1;" parent="hTCJnXlIpCB_JW_4JN-e-1" source="hTCJnXlIpCB_JW_4JN-e-22" target="hTCJnXlIpCB_JW_4JN-e-25" edge="1"><mxGeometry relative="1" as="geometry"/></mxCell><mxCell id="hTCJnXlIpCB_JW_4JN-e-24" style="edgeStyle=orthogonalEdgeStyle;rounded=0;orthogonalLoop=1;jettySize=auto;html=1;" parent="hTCJnXlIpCB_JW_4JN-e-1" source="hTCJnXlIpCB_JW_4JN-e-25" target="hTCJnXlIpCB_JW_4JN-e-27" edge="1"><mxGeometry relative="1" as="geometry"/></mxCell><mxCell id="hTCJnXlIpCB_JW_4JN-e-33" style="edgeStyle=orthogonalEdgeStyle;rounded=0;orthogonalLoop=1;jettySize=auto;html=1;" parent="hTCJnXlIpCB_JW_4JN-e-1" source="hTCJnXlIpCB_JW_4JN-e-8" target="hTCJnXlIpCB_JW_4JN-e-35" edge="1"><mxGeometry relative="1" as="geometry"><mxPoint x="457" y="655" as="targetPoint"/><Array as="points"><mxPoint x="363" y="328"/><mxPoint x="363" y="648"/></Array></mxGeometry></mxCell><mxCell id="hTCJnXlIpCB_JW_4JN-e-34" value="2FA Not Enabled" style="edgeLabel;html=1;align=center;verticalAlign=middle;resizable=0;points=[];fontStyle=1;fontSize=14;" parent="hTCJnXlIpCB_JW_4JN-e-33" vertex="1" connectable="0"><mxGeometry x="-0.2111" relative="1" as="geometry"><mxPoint x="72" y="-94" as="offset"/></mxGeometry></mxCell><mxCell id="hTCJnXlIpCB_JW_4JN-e-35" value="" style="shape=image;verticalLabelPosition=bottom;labelBackgroundColor=default;verticalAlign=top;aspect=fixed;imageAspect=0;image=https://play-lh.googleusercontent.com/3C-hB-KWoyWzZjUnRsXUPu-bqB3HUHARMLjUe9OmPoHa6dQdtJNW30VrvwQ1m7Pln3A;" parent="hTCJnXlIpCB_JW_4JN-e-1" vertex="1"><mxGeometry x="495" y="594.19" width="113.63" height="113.63" as="geometry"/></mxCell><mxCell id="szCiNJJ50kzvFfgiILUe-4" style="edgeStyle=orthogonalEdgeStyle;rounded=0;orthogonalLoop=1;jettySize=auto;html=1;entryX=0.5;entryY=0;entryDx=0;entryDy=0;entryPerimeter=0;" parent="hTCJnXlIpCB_JW_4JN-e-1" source="hTCJnXlIpCB_JW_4JN-e-37" target="hTCJnXlIpCB_JW_4JN-e-8" edge="1"><mxGeometry relative="1" as="geometry"/></mxCell><mxCell id="hTCJnXlIpCB_JW_4JN-e-37" value="" style="shape=image;verticalLabelPosition=bottom;labelBackgroundColor=default;verticalAlign=top;aspect=fixed;imageAspect=0;image=data:image/png,iVBORw0KGgoAAAANSUhEUgAAAYAAAAFuCAYAAACIic9NAAABWWlDQ1BJQ0MgUHJvZmlsZQAAKJF1kD1LQmEUx3+Wkb1RUJBEg1sEFuZVaFWHCgzElF6I6HozC3x5uN6IIlr6Ak2tLdHaEtgUTU01BQXR3gcIXEpu52alFR04nN/z53/OczjQ4tGVyruBQtEyk1NR38Likq/9GQ8ueggS1o2yiiQScbHwVX9G9V68Endjzqz93uszr5Y6WAlMdJSWVemv/0d0rmXLhtQ3yYChTAtcfuHEtqUc3hMeMGUp4UOHc3U+cThT54sPTyoZE74R7jM29DXhJ2F/pknPNXEhv2V87uBs350tpuecOZLDJJgmjg+NEGGiTBD7xx/68McoodjBZJMcG1jSGxFFkScrPEMRg3H8wkECkppz59/3a2i7gzA5JF+tNrT0LJx7oX+8oY2Y8r6Fy2Olm/r3VV1Vd3ldC9a5qwJtR7b9Mg/to1B7sO3Xim3XTqH1Ea6q705XX3K3V53FAAAAVmVYSWZNTQAqAAAACAABh2kABAAAAAEAAAAaAAAAAAADkoYABwAAABIAAABEoAIABAAAAAEAAAGAoAMABAAAAAEAAAFuAAAAAEFTQ0lJAAAAU2NyZWVuc2hvdJXJLzsAAAHWaVRYdFhNTDpjb20uYWRvYmUueG1wAAAAAAA8eDp4bXBtZXRhIHhtbG5zOng9ImFkb2JlOm5zOm1ldGEvIiB4OnhtcHRrPSJYTVAgQ29yZSA2LjAuMCI+CiAgIDxyZGY6UkRGIHhtbG5zOnJkZj0iaHR0cDovL3d3dy53My5vcmcvMTk5OS8wMi8yMi1yZGYtc3ludGF4LW5zIyI+CiAgICAgIDxyZGY6RGVzY3JpcHRpb24gcmRmOmFib3V0PSIiCiAgICAgICAgICAgIHhtbG5zOmV4aWY9Imh0dHA6Ly9ucy5hZG9iZS5jb20vZXhpZi8xLjAvIj4KICAgICAgICAgPGV4aWY6UGl4ZWxZRGltZW5zaW9uPjM2NjwvZXhpZjpQaXhlbFlEaW1lbnNpb24+CiAgICAgICAgIDxleGlmOlBpeGVsWERpbWVuc2lvbj4zODQ8L2V4aWY6UGl4ZWxYRGltZW5zaW9uPgogICAgICAgICA8ZXhpZjpVc2VyQ29tbWVudD5TY3JlZW5zaG90PC9leGlmOlVzZXJDb21tZW50PgogICAgICA8L3JkZjpEZXNjcmlwdGlvbj4KICAgPC9yZGY6UkRGPgo8L3g6eG1wbWV0YT4KgADsxwAAL9xJREFUeAHtnQmcFMXZ/589uEGQRZBwC3iBeF94Hwl4RIyiRqO+Xq9o8FXwRKP/EDUxHngg8TYxqHi8xigmHvgX7wMQUFzixS2wotznArs77/xq7XFmdndmhd3u3p5vfT6z3V1V3VX1rdnn1/VUdU/e8uXLY5YlxGJZs2S5AskQgAAEIOAngby8vKzFFWbKUZ3hry4u0zVIgwAEIAABfwgkG33PVifHpdeiWgHwTvQyJx8n73vp6dva5Ek/h2MIQAACEKiZQCZDXt1ZXn7PHnvHyXmrCICXWZm8fW29/eT45AuxDwEIQAAC9Ucg2QZXV4oMvJcn2dh7+0rz9r3zUwTAOzl5q319mjZtak2aNLFGjRpZfn6+dz5bCEAAAhAIAYGKigrbvHmzbdy40UpLS52xTzb42pctT4nzJoGTjb7a4hl+GfyWLVtaYWGKVoSguVQBAhCAAASqI1BWVmZr1651giCD7xn99K27la/O+EtNdMffpk0bjH91hImDAAQgEFICumGX7ZYNly2vzsar6lV8OcqoE3Tnv80224S0eVQLAhCAAASyEZANly1PFoHkc/KTlUH73qdVq1bJ+diHAAQgAIEGSEC23LPr3lbN0H7KCMBL1IQvPv8G2NNUGQIQgEAaAdly2XTPvicnJ+YAvERt5TciQAACEIBANAjIpifbeO0rJEYAXoTn/49Gs2kFBCAAAQh48wAi4dl67ScEIDmhoKBAhwQIQAACEIgAAc+mJxt/NatQEV5k8n4E2kwTIAABCEDgBwLJ9t2z+YkRgBfhbaEGAQhAAALRIeDZdm+rliUEIDrNpCUQgAAEIFAbAikCkKwMtTmZPBCAAAQg0HAIpNv4FAFoOM2gphCAAAQgsLUEqghAukJsbQGcDwEIQAACwROozrY7AaguIfjqUgMIQAACEKgPAp7NrzICqI/CuCYEIAABCISPAAIQvj6hRhCAAAR8IYAA+IKZQiAAAQiEjwACEL4+oUYQgAAEfCGAAPiCmUIgAAEIhI8AAhC+PqFGEIAABHwhgAD4gplCIAABCISPAAIQvj6hRhCAAAR8IYAA+IKZQiAAAQiEjwACEL4+oUYQgAAEfCGAAPiCmUIgAAEIhI8AAhC+PqFGEIAABHwhgAD4gplCIAABCISPAAIQvj6hRhCAAAR8IYAA+IKZQiAAAQiEjwACEL4+oUYQgAAEfCGAAPiCmUIgAAEIhI8AAhC+PqFGEIAABHwhgAD4gplCIAABCISPAAIQvj6hRhCAAAR8IYAA+IKZQiAAAQiEjwACEL4+oUYQgAAEfCGAAPiCmUIgAAEIhI8AAhC+PqFGEIAABHwhgAD4gplCIAABCISPAAIQvj6hRhCAAAR8IYAA+IKZQiAAAQiEjwACEL4+oUYQgAAEfCGAAPiCmUIgAAEIhI8AAhC+PqFGEIAABHwhgAD4gplCIAABCISPAAIQvj6hRhCAAAR8IVDoSykUAoE0Ahs3brRYLJaIbdq0aWK/Iex8//33tmLFikRVu3fvbo0bN04cswOBhkAAAWgIvRSxOi5btsyOOOKIlFbNmDEj5TjsBzfccIN98MEHiWqOHz/eJAIECDQkAriAGlJvRaSumzdvbvAtSR69NPjG0ICcJYAA5GzX03AIQCDXCeACyvVvAO3fIgKnnXZaihurQ4cOW3QdToJAkAQQgCDpU3adEVi+fLl9++23tnbtWuvatavJIOfl5dXq+ps2bbI5c+aYXFM77bRTrSZzjzzyyFpdOz2TJo/nzZtnnTp1so4dO9a6junX4RgCdUEAAagLilwjMAKaiH3ooYds2rRpKXVo0aKFyUhfeeWVtu2226akeQerV6+2m2++2V599VUvym2POuoo+8Mf/mAXXXSRFRcXu7gdd9zRnnvuuUS+4cOH2xtvvJE4Tp4EfuCBB+y+++5LpL322ms2adIkV8+FCxcm4lXH66+/3o477rhEHDsQ8JMAAuAnbcqqUwITJ060YcOGVXvNdevW2UsvvWTKc+utt9qhhx6akm/BggV2/vnn25IlS1LidSDDrrv02bNnJ9LKy8sT+9pZv359ynGmg1GjRtmECROqZFEdr732WtP21FNPrZJOBATqmwCTwPVNmOvXC4F33nmnRuOfXKCM6yWXXGLJd95Kl1FON/5t27Y1fRSSjb+L2Io/ycbfu37y5TRaSBeY5HT2IVBfBBCA+iLLdeuNgJ4jkFFPDv3797cXX3zRpkyZYo888oibA0hOHzlyZOLBs+nTp9ubb76ZnGxKf+utt9xn9OjRKWl1cXDOOefYhx9+6K5/0003pVxS8xf6ECDgNwEEwG/ilLfVBF555ZWUa3Tr1s3GjBljPXr0sCZNmth+++1njz76aEqeyZMn29y5c13c1KlTU9IGDBhgJ510UiLu8MMPtyFDhiSOt3anX79+dtlll5l8/gqDBg0y1Tk5rFq1KvmQfQj4QgAB8AUzhdQlgU8++STlcueee64VFqZOZ2klkAx7ctBKH4V0d1B6PuX5xS9+oU2dhIMPPtgKCgpSrpX+1PBPmVNIuRAHENgKAgjAVsDj1GAIaCllcpCxry707NkzJXrWrFnuWBO8yaFNmzbJh25/u+22qxK3pRFFRUVVTk1/91FFRUWVPERAoL4JIAD1TZjrh4ZAfn7l1z19tKDnANJDaWlpetQWH6cbe10ofUSwxRfnRAhsBQEEYCvgcWowBNq3b59S8DfffJNy7B2kr+Tp1auXS+rcubOXxW29uYHkyK+++ir5cKv2a/tA2lYVwskQ2AICCMAWQOOUYAn06dMnpQJ//etfqyyj1Dp/PYCVHDwBSPe/P/bYY5Z8x68RgR7mIkAg6gRSZ86i3lraF1oCMsLZwj777GN9+/a1gQMH2p133pnIPn/+fBs6dKiNGDHCvV5Br5a+7rrrEuna0YNg3lyBnrxNPl/PA5x55pl2wQUXuHPGjh2beAI45SIcQCBiBBCAiHVoQ21OskGuqQ1XXXWVE4Dtt9/eLrzwQvdqBS+vXglxwgkneIdVtnp/vxc0wSuD/8QTT3hRJpfP1VdfnThmBwK5QAAXUC70cgTbePHFF7v19Nmapidv9a6g9Ld1XnHFFTZ48OAaT09/0IxJ2xpRkdCACTACaMCdl2tVb9SoUaLJMsh6olYvbnv88cfdE8CJxPiOHrrSWv7LL7/cWrdunZzk9nW+RgV6SOv999+39957zz1EpjX7xx9/vPXu3ds9XOadWN1KHi9N2+S6pa8ySs5X0z4CUxMZ4uuTQN7SpUtjWoOsXzjS+0j0SV8lUZ8V4NoQqAsCK1eutMWLF7vXQXfp0sXkJqpp9Y2eI5g5c6bLo5GBngNIz6tnBpKfDpYwJL/hsy7qzDUg4CcBPQCpGw199H3XsmhGAH72AGXVGwEZ8eoe6KquQPn7L7300pQkvT9Ir5DwQvoKovSHyrx8bCHQkAkgAA2596j7FhHYeeedq5ynd/XoLr958+amVUTpzxBs6Q/AVCmICAiEiAACEKLOoCr+ENCrGc466yw3d+CVqNdGp9/1e2nHHnus7bnnnt4hWwhEhgACEJmupCE/hYB+0UuTw+PGjcv4KubTTz/dPWPwU65NXgg0FAJMAjeUnqKe9UKgrKzM9KrokpISW7FihelYv9Wrj/z+1b3IrV4qwkUhUM8EmASuZ8BcvuER0JJN/ZgMAQK5SIAHwXKx12kzBCAAgTgBBICvAQQgAIEcJYAA5GjH02wIQAACCADfAQhAAAI5SgAByNGOp9kQgAAEEAC+AxCAAARylAACkKMdT7MhAAEIIAB8ByAAAQjkKAEEIEc7nmZDAAIQQAD4DkAAAhDIUQIIQI52PM2GAAQggADwHYAABCCQowQQgBzteJoNAQhAAAHgOwABCEAgRwkgADna8TQbAhCAAALAdwACEIBAjhJAAHK042k2BCAAAQSA7wAEIACBHCWAAORox9NsCEAAAggA3wEIQAACOUoAAcjRjqfZEIAABBAAvgMQgAAEcpQAApCjHU+zIQABCCAAfAcgAAEI5CiBQr/b/Ze//MWmTZuWsdjDDjvMzj777Ix56irRq8+YMWOsWbNmNmTIEOvevbtde+21dVUE14EABCAQSgK+C8DcuXNtyZIl1rhxY8vPr34AsmnTJt9gLV682NWnrKzMlblo0SLLy8vzrXwKggAEIBAUAd8FwGvo3XffbV27dvUOA9sOHz7cVq9ebS1atAisDhQMAQhAIAgCgQlAbRq7du1amzp1qvXp08dKS0vt448/No0O9t57b+vZs6eLmzJlimlUceCBB1rv3r2rXPaLL76wWbNmWUlJiTPye+yxh+26666JfN99950tW7bMevTokYhjBwIQgEAuEAi1AMho33777c7Yz549O9EfY8eOtaFDh9pzzz3n3DdKePbZZ50RHz16tHPhyKUzYsQIkwAkh3HjxtkJJ5xgF154oYt+8skn7dNPPzUJQ6tWrZKzsg8BCEAg0gQCE4AXXnjB2rdvXy3cX/7ylykuGRn/AQMG2ODBg23SpEn2yCOPmCZv27VrZ9dff7117tzZbrjhBjcSmDlzpvXt29cmTpzojL9GBXLztG3b1o0g7rjjDhs/frydddZZbtK32goQCQEIQCAHCAQmABMmTKgRr1YBJfvkZegvueQSd2d/4oknmkYAcgXJiB9wwAHuOsccc4yL16hBAlBQUGD777+/nXfeedapUyeX5/DDD7eXXnrJvvzyS1u5ciUCUGMPkAABCOQCgcAEQHflHTt2rJaxDH5y0LLM5JU5GjksXLjQGXgvX+vWrd1ueXm52x511FF2xBFH2PTp0+3999+3BQsWuLkAnafgrfpxB/yBAAQgkIMEAhMAuWZquwpI7pvk4C0fbdmyZSI6WSAUKUN/xRVX2Lp161wejQhUpq61fPnyxHnsQAACEMhVAoEJwE8Bnm7ca3OufP0y/oMGDbLjjz8+MdoYNmyYE4BYLFaby5AHAhCAQGQJNAgB2BL6WhqqoHmCpk2bun3ND3jxnqvIJfAHAhCAQA4SCEwARo0aVeMkrPz5W/sqhi5duti8efPslltusaOPPtr0xO/zzz9vnuHXw18ECEAAArlMIDABSF7Xn94B3h17erx37M0BeMfVba+++mp78MEH3YNkephMQQ+L7b777vbAAw/Y5MmT3f6WuJeqK484CEAAAg2NQN7SpUtjFRUVJp+47o710br6qAQ9Qax3D2kpaGFhYHoXFZy0AwIQaKAEtDBGi2H00Y2vbqQjbxE1mujWrVsD7TKqDQEIQKD+CFT/Os76K48rQwACEIBASAggACHpCKoBAQhAwG8CCIDfxCkPAhCAQEgIIAAh6QiqAQEIQMBvAgiA38QpDwIQgEBICCAAIekIqgEBCEDAbwIIgN/EKQ8CEIBASAggACHpCKoBAQhAwG8CCIDfxCkPAhCAQEgI+P4ksF47MX/+fPdD7PpVLwIEIACBXCfQuHFjKyoqcm8tqM27zuqKl68CIONfXFzsfnxdP9uY7aVvddVIrgMBCEAgzAT0zjK9rl72UbbRLxHw1QWkO/9WrVpZjx49MP5h/jZSNwhAwFcCuhmWXZR9lJ30K/gqAMuWLUv8MpdfDaQcCEAAAg2FgH4nXXbSr+CrAMjnj9vHr66lHAhAoKERkH30c27UVwFoaJ1BfSEAAQhEmQACEOXepW0QgAAEMhBAADLAIQkCEIBAlAkgAFHuXdoGAQhAIAMBBCADHJIgAAEIRJkAAhDl3qVtEIAABDIQQAAywCEJAhCAQJQJIABR7l3aBgEIQCADAQQgAxySIAABCESZAAIQ5d6lbRCAAAQyEEAAMsAhCQIQgECUCSAAUe5d2gYBCEAgAwEEIAMckiAAAQhEmQACEOXepW0QgAAEMhBAADLAIQkCEIBAlAkgAFHuXdoGAQhAIAMBBCADHJIgAAEIRJkAAhDl3qVtEIAABDIQQAAywCEJAhCAQJQJIABR7l3aBgEIQCADAQQgAxySIAABCESZAAIQ5d6lbRCAAAQyEEAAMsAhCQIQgECUCSAAUe5d2gYBCEAgAwEEIAMckiAAAQhEmQACEOXepW0QgAAEMhBAADLAIQkCEIBAlAkgAFHuXdoGAQhAIAMBBCADHJIgAAEIRJkAAhDl3qVtEIAABDIQQAAywCEJAhCAQJQJIABR7l3aBgEIQCADAQQgAxySIAABCESZAAIQ5d6lbRCAAAQyEEAAMsAhCQIQgECUCSAAUe5d2gYBCEAgAwFfBaBx48ZWWlqaoTokQQACEMhdArKPspN+BV8FoKioyEpKSvxqG+VAAAIQaFAEZB9lJ/0KvgpAt27dbM2aNTZ37lxGAn71MOVAAAKhJ6A7f9lF2UfZSb9CoV8FqZz8/Hzr27evzZ8/34qLi23Tpk1+Fk9ZEIAABEJJQG4f3fnLPspO+hV8FQA1So3r0aOH+/jVSMqBAAQgAIGqBPyTmqplEwMBCEAAAgESQAAChE/REIAABIIkgAAESZ+yIQABCARIAAEIED5FQwACEAiSAAIQJH3KhgAEIBAgAQQgQPgUDQEIQCBIAghAkPQpGwIQgECABBCAAOFTNAQgAIEgCSAAQdKnbAhAAAIBEkAAAoRP0RCAAASCJIAABEmfsiEAAQgESAABCBA+RUMAAhAIkgACECR9yoYABCAQIAEEIED4FA0BCEAgSAIIQJD0KRsCEIBAgAQQgADhUzQEIACBIAkgAEHSp2wIQAACARJAAAKET9EQgAAEgiTg+09C3n333fbZZ5+ltLmwsNBatmxpvXv3tmOPPda6du2akp5rB0888YS9+eabdvvtt1vbtm1zrfm0FwIQ8ImA7wKgX75fsmSJ6UeQvR8/rqiosEWLFtmXX35p//rXv+yOO+6wnXfe2ScE4Svmm2++cYzKysrCVzlqBAEIRIaA7wLgkbv//vutQ4cO3qFt2rTJRo8ebW+99ZZplPDAAw8k0tiBAAQgAIG6JxCYAKQ3RSOCSy65xAnAwoULTXe/cg0plJSU2MyZM013xgo77rij9e/f3/Ly8tyx/qxcudI+/PBDW7x4sRUVFbk8u+66ayJdOwsWLLCpU6fa8uXLrVOnTrbbbru5rdKmT59uq1evtoMPPtgKCgoUZUuXLnXldunSxXbYYQcXpz8ff/yxadSy3377uTiVPWnSJFO9JWq777676RwvrFmzxqZNm2Z9+vSxzz//3NVD9e/Ro4fLotHPRx995Pa9a3rnsoUABCBQXwRCIwBq4Nq1a6u0829/+5v94x//qBKveYIxY8Y4N9K8efPssssus/Ly8pR8hxxyiF1zzTUu7rXXXrN77703JV0HQ4cOtWOOOcYmTJhg7777rhOPvn37unwvvvii/fOf/3RzE3fddZeL27Bhg40cOdLFyVi/8847NmrUqCpln3baaXbWWWe5c2Tg5c+X6Ghf4fXXX7fHHnvMHnzwQXvppZdcnP6ovU2bNk0cswMBCECgvgiEZhWQXEAyiAqdO3d2d/+aK5Dxl0G87bbb7LnnnrObbrrJTYx6d/PKr/Nk/IcPH+7ySBg0eSqDPmfOHGVxhlZ39ppfeP75550RV/zDDz/szpVYKEyePNltk/e//vprNyJR3JQpU1z6YYcd5oy56qUwYsQIJxZ33nmntWnTxp555pmUaymPjP+hhx5qQ4YMsQsuuMDVT8Zf7X300Uft6aefdumlpaXKToAABCBQrwQCGwFcccUV1qhRI9e4zZs3OxeO19JLL73U7a5YscJkmA866CDz3Dl77rmnDRw40MaNG+dcNMooF4xCq1atnFh0797dbrjhBudqkTGWO0kCIyHRaiO5m/bZZx+7/vrrXZrcOXvvvbe7hlw55513nhuNyGBLNCQuct3IZfT++++7fHIVvfzyy27/7LPPdq4jHcg99bvf/c6uuuoqV8dkl45ESfGe60r5FLT15kPERW6qdevWuTT+QAACEKgvAoEJwPr16xMCoNVAvXr1sm7dutkZZ5yRMIZaCaSP7sDHjx/vDLpWEc2aNcvx8FbJyIUj986NN97ojLyMrgy07rY9kZGIyHhfdNFF1q5dOzvwwANdHvnlvSDXT3Fxscln/8knn7jo008/3bQsU35/pWsE0LFjR3cN5VU44IAD3Nb7s8suuziR0ZxAclAbPeOveI1OJErJ8wUSnL322suNDpLPZR8CEIBAXRMITADSVwFV17CNGzc614oEwAtyl+gOf/bs2V6UDRgwwFq0aOHcRcorv7w+uuO+9dZbncHWXMCzzz7rfO9yLcn1ok+/fv2cO0ijArl1ZNR1By6Dr3DiiSfaU0895eJk6DWSUD4F7StoVJEemjRpYhK55LDddtslHzqh0QglPbRu3To9imMIQAACdU4gNHMA1bVMfnQZdLl/7rnnHjcK0PJQuW8U5LpRkAtJd92aqNU8wXXXXedEQqt95O9XkF9dD5nJ1z527Fg3+SvRmDFjRsLYa1SgIDeQREB37LpDl0hoonnixIku3Zsv0EhA4bvvvnNb749cRhpFJN/ZKy357l/HOl/5YrGYDhNBq48IEIAABOqbQKgFQA+GKZxyyinWs2dPt+JHd926u1eQoZXxlJtGfnsZUxlsLbE899xzXR4ZU7liTj31VDeaUKRGBnIb/fznP3d5li1b5ra6G9cIQ5PHuta+++7r4j0//iuvvOLmGeSqUpDoKHgi4w7if5RPQU82Zwo6X23whEV5Va430ZzpXNIgAAEIbC2BwFxAtam4jP6nn35qDz30kJvolfH/97//7Z4L0PmrVq1yd9XnnHOOe3DsyiuvdEZdcwPeBK3mAWTUZcS1wkeTwxIIiYKeOlbw7vy1r/yaYFbwJoY14tByTQXP/aN9jSjkVpJgqG6aZ9CIRa4luZQGDx6sbDUGTR6/9957buSi5xfat2/v3E0SBQIEIACB+iYQmAB4r4HI1EBNCMuN88EHHzgXkPJq/f/NN9/sVvDIVaM7fRlizQm8/fbbbkmo8mkyVUstjzjiCB26yV+5iuTy0UNfClo1JHeRJoW9oMljCYDO32mnnVy0XDVyF2lljuf+UYIeVJNrSktBVRd9FPSAl1b7aN1/ckh3AancP//5z+45Arm7FDQ68cQq+Vz2IQABCNQ1gby4iyQmX7pcKbrz1Ed3zGEKqpvW/esOuVmzZjVWTfnmz59vzZs3d3mry6g7deXZfvvtnQBUl2dL4jRhrSeWJRaaAP6pQUtZVTe1kQABCECgrgnI66EbW310M6qb8AYhAHUNgutBAAIQyDUC1QlAqCeBc62DaC8EIAABPwkgAH7SpiwIQAACISKAAISoM6gKBCAAAT8JIAB+0qYsCEAAAiEigACEqDOoCgQgAAE/CSAAftKmLAhAAAIhIoAAhKgzqAoEIAABPwkgAH7SpiwIQAACISKAAISoM6gKBCAAAT8J+P4uIL12Qq9i0Bs49eoDAgQgAIFcJ6CXRxYVFbkfxarNe9LqipevAiDjrx9c0UvY9OtaenUzAQIQgECuE9DvlehdYrKPso1+iYCvLiDd+cv4622ZGP9c/8rTfghAwCMgeyi7KPsoO+lX8FUA5PbxfkXLrwZSDgQgAIGGQkD20fuBKj/q7KsAyOfPnb8f3UoZEIBAQyQg++jn3KivAtAQO4Q6QwACEIgqAQQgqj1LuyAAAQhkIYAAZAFEMgQgAIGoEkAAotqztAsCEIBAFgIIQBZAJEMAAhCIKgEEIKo9S7sgAAEIZCGAAGQBRDIEIACBqBJAAKLas7QLAhCAQBYCCEAWQCRDAAIQiCoBBCCqPUu7IAABCGQhgABkAUQyBCAAgagSQACi2rO0CwIQgEAWAghAFkAkQwACEIgqAQQgqj1LuyAAAQhkIYAAZAFEMgQgAIGoEkAAotqztAsCEIBAFgIIQBZAJEMAAhCIKgEEIKo9S7sgAAEIZCGAAGQBRDIEIACBqBJAAKLas7QLAhCAQBYCCEAWQCRDAAIQiCoBBCCqPUu7IAABCGQhgABkAUQyBCAAgagSQACi2rO0CwIQgEAWAghAFkAkQwACEIgqAQQgqj1LuyAAAQhkIYAAZAFEMgQgAIGoEkAAotqztAsCEIBAFgIIQBZAJEMAAhCIKgEEIKo9S7sgAAEIZCGAAGQBRDIEIACBqBJAAKLas7QLAhCAQBYCCEAWQCRDAAIQiCoBBCCqPUu7IAABCGQhgABkAUQyBCAAgagSQACi2rO0CwIQgEAWAr4KQOPGja20tDRLlUiGAAQgkJsEZB9lJ/0KvgpAUVGRlZSU+NU2yoEABCDQoAjIPspO+hV8FYBu3brZmjVrbO7cuYwE/OphyoEABEJPQHf+souyj7KTfoVCvwpSOfn5+da3b1+bP3++FRcX26ZNm/wsnrIgAAEIhJKA3D6685d9lJ30K/gqAGqUGtejRw/38auRlAMBCEAAAlUJ+Cc1VcsmBgIQgAAEAiSAAAQIn6IhAAEIBEkAAQiSPmVDAAIQCJAAAhAgfIqGAAQgECQBBCBI+pQNAQhAIEACCECA8CkaAhCAQJAEEIAg6VM2BCAAgQAJIAABwqdoCEAAAkESQACCpE/ZEIAABAIkgAAECJ+iIQABCARJAAEIkj5lQwACEAiQAAIQIHyKhgAEIBAkAQQgSPqUDQEIQCBAAghAgPApGgIQgECQBBCAIOlTNgQgAIEACfj+ewAb4r8Bc/eLFfbqtAr7bmWALadoCEAAAiEg0L6N2cC98m3YoHxr5t/PAbuW+yoAMv5n3VluM+fHQoCdKkAAAhAInoBuhMdOrLCps2P2+OUFvoqAry4g3flj/IP/wlEDCEAgfARkG2Uj/Qy+CoDcPgQIQAACEKiegN820lcBwOdffacTCwEIQEAE/LaRvgoAXQwBCEAAAuEhgACEpy+oCQQgAAFfCSAAvuKmMAhAAALhIYAAhKcvqAkEIAABXwkgAL7ipjAIQAAC4SGAAISnL6gJBCAAAV8JIAC+4qYwCEAAAuEhgACEpy+oCQQgAAFfCSAAvuKmMAhAAALhIYAAhKcvqEkWAifsn2dT7y60UecXZMlZd8l796os884L/Cuz7mrPlSCQmQACkJkPqSEi8LO2eda8iVnHtv5VqmVTc2V28rFM/1pHSblOwNfXQec6bNrf8Ah89GXMhvyl3BYta3h1p8YQyEYAAchGiPQGS+Dkg/LtoF3yrEkjs+nxd60/8VaFlcZ/kyI5aERxcv98O7hPnv1nQcy9l13HS1fH7IWPYrZNc7N+3fNsc1nMZpeYdYj/eMcpB+fbOzNjVhgfP8st1aFNnk35OmZ/f6PCynnhbTJe9kNOAAEIeQdRvZ9OQEb75d8XWtE2P557ZL88G3pcvl1wb7lNnVX5g0R9uubZsyMKLD+vMt+hcRE456h8axr/VabvV1lcAMpsly6V582YG7MPvyi3vt0qj087xKxd0vUP363y3ENHlP1YKHsQCDkB5gBC3kFU76cTeGxYgTP+C5fG7Pgby+3ga8rs3fgduwz7/b+tNPgaFejXl2T8n3qnwvYdXmbX/K3cGtXylkjG/4uFMbvkgXK77KFyKys32651fDQRH3UQINBQCPBtbSg9RT1rRUBGXnftcsWc9KfyuNsmZstWm104ptzd1bdqVum2OaxvnjWLu3++WhSzG5+qsLWlZuMnx2zMv2rnw9mw0exXfyy3Nz6N2YTpsfhvXP8wquhSq2qSCQKhIIAAhKIbqERdEZAbR+Gb72O2ZkPqVd/9T6Vx79cjz/rH5wYU3v1P6u9Tj3u7dgKweHnqeSpPoVmTH/xJ7og/EAg3gVoOeMPdCGoHAY+ARgAK6+N36OlhxdrKmJZN82zblpX7upNPDmvTRCM5LXk/XVzKaqcbyZdgHwKBE2AEEHgXUIG6JPDVosqrFW1T9U68R4fKuGnxFUFzvq28Y++5fWo+uY8IEMgVAghArvR0jrRTPv2KuG3Xck25eryg5Z6ee+jt4gq3xFNpR++RZ21/GA3o+KYz+ZcQB0JuEMAFlBv9HKlW9o0v33zzT1W/uvPjfvhz7iq3xydW2H/Fl3OOu7LAxk+qnOA96cB8K4y/zUFLQEuWW/wTs0lfxWz/HfPsrVsK7T/fxKzrdj+6hiIFjMZAoAYCVf+LashINATCQkBLNbfftmptmv8wAfvn5yosL37zf+YR+faruOFX0DJNPbw1JL4ayAsSi9vPK7Cj4s8I7B4fLWg+4On4ktBfH5pvGzdXuogqaunbL//hshWxyvO8MthCIMwE8pYuXRqriH/LY/Evbnn8W6xP586d66XOu1zMQzL1ApaL1khg58557s6/eH6qYdbd/m8Oz7NXpsbskzk/ph2zT57dGX/Z3OfxEYGWkRIg4DeBz++vn/vyhQsXWkFBgfvkxe+Q8vPzDYen371Leb4S0MNa6cZfFdAo4uwj8+3vwwusS7vKuYLO8e3I0yvf+vlW8Y+i4GuFKQwCPhKoH6nxsQEUBYEtIaAHxOYuiZlWBk24qcC5iDRHoDBjXsxGj6+l76fyFP5CoEESQAAaZLdR6bogcOzIcjsk/uDYSfGXv/XtanFBiD8YFp8neDL+0jgCBHKBAAKQC71MG2skIIP/7kx8/TUCIiHSBJgDiHT30jgIQAACNRNAAGpmQwoEIACBSBNAACLdvTQOAhCAQM0EEICa2ZACAQhAINIEEIBIdy+NgwAEIFAzAQSgZjakQAACEIg0AQQg0t1L4yAAAQjUTMBXAWgff0UvAQIQgAAEqifgt430VQAG7uVrcdUTJhYCEIBASAn4bSN9tcjDBuVbn24//khHSPuAakEAAhDwnYBso2ykn8HX0prFf6/18csL3FsY/R7q+AmVsiAAAQjUloBsod5MK9soG+ln8PX3APxsGGVBAAIQgMCPBPg9gB9ZsAcBCEAg5wn46gLKedoAgAAEIBAiArwOOkSdkYtVefuFz+yfD31UpekFBfnWqk0z675LBxv82/7WMr5fH+GDlz+3Z8e8Zxf+YaDtum+XWhexeO5yqyivsM692tX6HDJCIGwEGAGErUdyrD4rl663L6YutFVL18V/qzQ/8VmycKV9NOFLe/qed+yyYx+2Zd+uqRcyq5ZXlr9udWmtr//Ju3PsvAPusYVzltX6HDJCIIwEGAGEsVdysE6/ufJwO/rUPVJarrvsMdf8y6a9Pdve/McMGzz0oJT0ujg49IQ+1mf/rrbdz1rX+nLfL1pV67xkhECYCSAAYe6dHK/bz3q0tVP/52AnANPjd93JAlBeVmEzPphncz9fYk2aFlrv3TvZjnv8rAqxtatKXb7Fc5fF0ztZ734dbcaH861r73bWsXtbU3rJvBW27XYtE+euWbnBpr45y5YsWGnbtm9pO/TZ3nrFz1NY8PX3Nqv4W7f/5bRF1qJlE9utf3d3XJs6TXnja2vfuXXcfRRz7dp57862S/yTHx/9ECDgNwEEwG/ilPeTCHiunxbbNE2cp7g//fezNnPygkScdgacsZf9z23HW2Gjyl93n/7OHLv2lL+n5JHBlcvpt3861k44f39nhO+5YrzdNO5M2/eo3rZw1lL7nwEP2Ya1G1POG3TB/nbxH4+1d14othcfrpyzeOqut+31Z6bbE9OvcC6q2tTphjOecGIya0ZJ4vrPfnGNbbNt88QxOxDwiwAC4BdpyslIYOGsZc4we5lWxucEZheX2OO3vemifn7aj+4huYVk/E8acqD9Mm7EW2zTxB4eOcFeGzfNeu3W0X553n72XXwO4cZzn7Y27VrYyLFnWM/dtrcPXvnCbrnwf70iqt0+c+97zvjf8Ndf2z5H9jK5e/4YF5sXH5lkx52zrxuRtC5qYX+59t824oHBTjR0odrUyStQxn/vI3rZL369h61bvRHj74Fh6zsBBMB35BRYHQFN9uqTHjp229YuvHFgwtDKBfPhq1+Y4v975ADLy698tchv/3iMvf70dHty1FtOACZN+MoZ8svvGmS661c4bFBfmxN33zwz+t30YhLHq5atc/stWje1Js0auVU+19x3smk+onXb5ta4aSNr2ryRy9O0ReO4+DR1bqHa1ClRSHznmvtPxvAnA2E/EAIIQCDYKTSdgNw3ux3YzTZvKrfij+bbG//7qTWL+9dvfvos67RDUSL7otk/rry5O+66SQ8aOWxYt8lmfVbpYul7QLeULHseukNGATjqlN1t8utf2YiTH7N2P9vGDjpuV9vv6B1tv5/vmHAtpVwwflDbOjWLC4aCrovLx6HgT8AEEICAO4DiKwnI+HurgI45c2/rvnN7e/Sm1+3/nfmk3fPKhdYyfkeuIAOvICP/1SeL3L73p8euHdzuuvjErrdSR3fxyUGikilolNA8nuffj01xy1Dl79dH177xyd9Uu1qotnXyBKBDZ96LnqkPSPOPAALgH2tK+gkEtOLns/hIQHfjoy79p/3+76e7s73lmvKhXzXmpJQrro2v3pFbRpPAWkGk5aNLvlnpjLeX8dsFK7zdardlm8vdJO3Ix8+wjRs2W/GkBfaP+95313p57FT7rxFHVjmvtnWqciIREAiYAGvPAu4Aiq+eQF5e/NW4o05wbiD5199+sdhl7LFLe7eVi0hLOL0gH/3gnf5s5+x3d9yNVOYmWZX2/IMfWiwWc9k2bSyLG/MPvFOqbGMVMXf+eQeMdtfW6GHvw3vaGZcf5vIuX1L5MJq3ZHNzaZmLr22dqhRIBAQCJsAIIOAOoPiaCbTt0MouvvkYu3PYC3b35eNtr8N6WlHHbey0Sw9xfvwL+o+24+Mrc7aJT86++Ogkd6FhowZZo8aFdsCAnaxffH2+Joa/j68I2ik+EfxhfBXQgq++r7FATSif97uj7bahz9vIs8fZkYP7WfnmCnv58Y/dObqmgrck9Zl737WFs5fa6cMPq1Wd3Mn8gUCICCAAIeqMXKxK/g+reGpqu5Z//v9nP3EPcz32pzfcOv+zrznSzQlojuCJO95yp/bZr6udfFF/t3RTERpB3PzUmfbYLRNt0utf2if3vOsmcn/x6z3tkRsnuBU+ypde/uG/2s3mffGdTXhquo2+8iVlcaOQ4fHVRAcO3Nkd735Qd7eySM8TaEnnoAsOsNrUyZ0c/+OtXPKO2UIgKAL8HkBQ5Cl3qwnIZfP94lXxZZmN3Sgg+YJaLiq30G7xVUDeHbvSx8dHCvdd97KbU/AMevJ53r7cRlrdo0njou1bedEpWy0Z1bJQb3JXiZnqlHIyBxDwmUB1vwfACMDnTqC4HwkMi7/kTXfRdR1eXfKH+BO9y+zGc54yrSi6OP7Ub+MmhbYo/vK2v8VHEQo771X5bMDADr+v6+J/0vX0HqJR48//SeeQGQJ1RYARQF2R5DqhIlC6fpMNP+4Rm/ufJa5eWnu/dPFqt68VRZnu/kPVECoDgToiUN0IAAGoI7hcJnwE9HK2rz9d7JZwlsxfYTvt2ck9bNZtp8qVROGrMTWCQP0RqE4AcAHVH2+uHDCBgsJ8N1nrvQoi4OpQPARCR4DnAELXJVQIAhCAgD8EEAB/OFMKBCAAgdARQABC1yVUCAIQgIA/BBAAfzhTCgQgAIHQEUAAQtclVAgCEICAPwQQAH84UwoEIACB0BFAAELXJVQIAhCAgD8EEAB/OFMKBCAAgdARQABC1yVUCAIQgIA/BBAAfzhTCgQgAIHQEUAAQtclVAgCEICAPwScAOjHMwgQgAAEIJAbBDybX2UE4CXkBgZaCQEIQCA3CFRn26sIQG6goJUQgAAEIJAiAJ5ClJeXQwYCEIAABCJCwLPpno33mpUiAF7kpk2bvF22EIAABCDQwAnUZNMTAuApg7YbNmxo4M2l+hCAAAQg4BGQTU+28V58viKTE7S/fv1627x5s5eHLQQgAAEINFACsuWy6dXZ+sQIQG1LFoKVK1c20OZSbQhAAAIQ8AjIlifbdi9e24QAeBny8/Nd5o0bN9qyZcuS87IPAQhAAAINiIBsuGy57Ltsu4Jn67XvfhTei/C2yhiLxdywQbPHbdq0scaNGys/AQIQgAAEQk5Ak76685fxlz33buxl472PmuAEwGuLJwDaemqhC5SUlFiLFi2sefPm1qRJEysoKPBOYQsBCEAAAiEgoJt12Wv5+9etW5cw/OnGP7mqhTL2utv3jL8SkwXAO9Yssi6qvAre1h3wBwIQgAAEAiPg2W/Pdusm3dtPF4DkvCkjANXeO6mioiIxbNC+JxKe4fe2Oid5X8cECEAAAhCoXwKeIVcp3r623ifZ8Hv76TVKzAEkG3hdQCcozouXCCh4cckXUhwBAhCAAAT8I+AZfa9Ez/Dr2DP4XpyXN32bGAEowTP23ta7sLYaUqQbfwx/MiH2IQABCPhPwDPqKln73rG3n3zs5fFq+X8Xrz/UNBZItgAAAABJRU5ErkJggg==;" parent="hTCJnXlIpCB_JW_4JN-e-1" vertex="1"><mxGeometry x="493.36" y="116" width="116.91" height="111.43" as="geometry"/></mxCell><mxCell id="szCiNJJ50kzvFfgiILUe-0" value="" style="group" parent="hTCJnXlIpCB_JW_4JN-e-1" vertex="1" connectable="0"><mxGeometry x="668" y="417" width="185.70000000000005" height="53" as="geometry"/></mxCell><mxCell id="hTCJnXlIpCB_JW_4JN-e-22" value="Open Authenticator App" style="rounded=1;whiteSpace=wrap;html=1;" parent="szCiNJJ50kzvFfgiILUe-0" vertex="1"><mxGeometry width="173" height="40" as="geometry"/></mxCell><mxCell id="hTCJnXlIpCB_JW_4JN-e-23" value="" style="shape=image;verticalLabelPosition=bottom;labelBackgroundColor=default;verticalAlign=top;aspect=fixed;imageAspect=0;image=https://logowik.com/content/uploads/images/google-authenticator-new-202365744.logowik.com.webp;clipPath=inset(13.56% 21% 15.33% 20.33%);" parent="szCiNJJ50kzvFfgiILUe-0" vertex="1"><mxGeometry x="156" y="26" width="29.7" height="27" as="geometry"/></mxCell><mxCell id="szCiNJJ50kzvFfgiILUe-1" value="" style="group" parent="hTCJnXlIpCB_JW_4JN-e-1" vertex="1" connectable="0"><mxGeometry x="668" y="511" width="203.51" height="52" as="geometry"/></mxCell><mxCell id="hTCJnXlIpCB_JW_4JN-e-25" value="Type Generated code" style="rounded=1;whiteSpace=wrap;html=1;" parent="szCiNJJ50kzvFfgiILUe-1" vertex="1"><mxGeometry width="173" height="40" as="geometry"/></mxCell><mxCell id="hTCJnXlIpCB_JW_4JN-e-29" value="" style="shape=image;verticalLabelPosition=bottom;labelBackgroundColor=default;verticalAlign=top;aspect=fixed;imageAspect=0;image=https://upload.wikimedia.org/wikipedia/commons/thumb/e/e4/Keyboard-icon_Wikipedians.svg/1280px-Keyboard-icon_Wikipedians.svg.png;clipPath=inset(22% 11% 19.5% 9.67%);" parent="szCiNJJ50kzvFfgiILUe-1" vertex="1"><mxGeometry x="144.51999999999998" y="23" width="58.99" height="29" as="geometry"/></mxCell><mxCell id="szCiNJJ50kzvFfgiILUe-2" value="" style="group" parent="hTCJnXlIpCB_JW_4JN-e-1" vertex="1" connectable="0"><mxGeometry x="668" y="631" width="185" height="53" as="geometry"/></mxCell><mxCell id="hTCJnXlIpCB_JW_4JN-e-27" value="Validate Account" style="rounded=1;whiteSpace=wrap;html=1;" parent="szCiNJJ50kzvFfgiILUe-2" vertex="1"><mxGeometry width="173" height="40" as="geometry"/></mxCell><mxCell id="hTCJnXlIpCB_JW_4JN-e-28" value="" style="shape=image;verticalLabelPosition=bottom;labelBackgroundColor=default;verticalAlign=top;aspect=fixed;imageAspect=0;image=https://upload.wikimedia.org/wikipedia/commons/thumb/5/50/Yes_Check_Circle.svg/768px-Yes_Check_Circle.svg.png;" parent="szCiNJJ50kzvFfgiILUe-2" vertex="1"><mxGeometry x="156" y="24" width="29" height="29" as="geometry"/></mxCell><mxCell id="EjEGZ4Cg5vDpazam6wm8-5" value="" style="group" parent="hTCJnXlIpCB_JW_4JN-e-1" vertex="1" connectable="0"><mxGeometry x="668" y="727" width="185" height="52" as="geometry"/></mxCell><mxCell id="EjEGZ4Cg5vDpazam6wm8-1" value="JWT Flow" style="rounded=1;whiteSpace=wrap;html=1;" parent="EjEGZ4Cg5vDpazam6wm8-5" vertex="1"><mxGeometry width="173" height="40" as="geometry"/></mxCell><mxCell id="EjEGZ4Cg5vDpazam6wm8-4" value="" style="shape=image;verticalLabelPosition=bottom;labelBackgroundColor=default;verticalAlign=top;aspect=fixed;imageAspect=0;image=https://play-lh.googleusercontent.com/3C-hB-KWoyWzZjUnRsXUPu-bqB3HUHARMLjUe9OmPoHa6dQdtJNW30VrvwQ1m7Pln3A;" parent="EjEGZ4Cg5vDpazam6wm8-5" vertex="1"><mxGeometry x="163" y="30" width="22" height="22" as="geometry"/></mxCell><mxCell id="EjEGZ4Cg5vDpazam6wm8-6" value="" style="group" parent="hTCJnXlIpCB_JW_4JN-e-1" vertex="1" connectable="0"><mxGeometry x="273" y="477" width="185" height="52" as="geometry"/></mxCell><mxCell id="EjEGZ4Cg5vDpazam6wm8-7" value="JWT Flow" style="rounded=1;whiteSpace=wrap;html=1;" parent="EjEGZ4Cg5vDpazam6wm8-6" vertex="1"><mxGeometry width="173" height="40" as="geometry"/></mxCell><mxCell id="EjEGZ4Cg5vDpazam6wm8-8" value="" style="shape=image;verticalLabelPosition=bottom;labelBackgroundColor=default;verticalAlign=top;aspect=fixed;imageAspect=0;image=https://play-lh.googleusercontent.com/3C-hB-KWoyWzZjUnRsXUPu-bqB3HUHARMLjUe9OmPoHa6dQdtJNW30VrvwQ1m7Pln3A;" parent="EjEGZ4Cg5vDpazam6wm8-6" vertex="1"><mxGeometry x="163" y="30" width="22" height="22" as="geometry"/></mxCell><mxCell id="EjEGZ4Cg5vDpazam6wm8-9" style="edgeStyle=orthogonalEdgeStyle;rounded=0;orthogonalLoop=1;jettySize=auto;html=1;entryX=0.5;entryY=0;entryDx=0;entryDy=0;" parent="hTCJnXlIpCB_JW_4JN-e-1" source="hTCJnXlIpCB_JW_4JN-e-27" target="EjEGZ4Cg5vDpazam6wm8-1" edge="1"><mxGeometry relative="1" as="geometry"/></mxCell><mxCell id="EjEGZ4Cg5vDpazam6wm8-10" style="edgeStyle=orthogonalEdgeStyle;rounded=0;orthogonalLoop=1;jettySize=auto;html=1;entryX=0.5;entryY=1;entryDx=0;entryDy=0;" parent="hTCJnXlIpCB_JW_4JN-e-1" source="EjEGZ4Cg5vDpazam6wm8-1" target="hTCJnXlIpCB_JW_4JN-e-35" edge="1"><mxGeometry relative="1" as="geometry"/></mxCell></root></mxGraphModel></diagram></mxfile>